<?xml version="1.0" encoding="UTF-8" standalone="no"?>
<!-- Created with Inkscape (http://www.inkscape.org/) -->

<svg
   width="210mm"
   height="297mm"
   viewBox="0 0 210 297"
   version="1.1"
   id="svg5"
   inkscape:version="1.2 (dc2aedaf03, 2022-05-15)"
   sodipodi:docname="cizim1.svg"
   xmlns:inkscape="http://www.inkscape.org/namespaces/inkscape"
   xmlns:sodipodi="http://sodipodi.sourceforge.net/DTD/sodipodi-0.dtd"
   xmlns="http://www.w3.org/2000/svg"
   xmlns:svg="http://www.w3.org/2000/svg">
  <sodipodi:namedview
     id="namedview7"
     pagecolor="#505050"
     bordercolor="#ffffff"
     borderopacity="1"
     inkscape:showpageshadow="0"
     inkscape:pageopacity="0"
     inkscape:pagecheckerboard="1"
     inkscape:deskcolor="#505050"
     inkscape:document-units="mm"
     showgrid="false"
     inkscape:zoom="1.0129245"
     inkscape:cx="321.84037"
     inkscape:cy="502.99899"
     inkscape:window-width="1920"
     inkscape:window-height="991"
     inkscape:window-x="-9"
     inkscape:window-y="-9"
     inkscape:window-maximized="1"
     inkscape:current-layer="layer1" />
  <defs
     id="defs2">
    <inkscape:path-effect
       effect="spiro"
       id="path-effect2849"
       is_visible="true"
       lpeversion="1" />
    <inkscape:path-effect
       effect="spiro"
       id="path-effect2845"
       is_visible="true"
       lpeversion="1" />
    <inkscape:path-effect
       effect="spiro"
       id="path-effect2841"
       is_visible="true"
       lpeversion="1" />
  </defs>
  <g
     inkscape:groupmode="layer"
     id="layer1"
     inkscape:label="Layer 1">
    <path
       style="fill:#ffffff;stroke-width:0.892835"
       id="path2913"
       d="m 85.113961,60.835256 c -0.171137,1.614027 -0.512115,3.210291 -0.788097,4.811467 -0.320552,1.718298 -0.614075,3.442992 -0.837124,5.175461 -0.193584,1.860172 -0.237982,3.730363 -0.263587,5.598246 -0.01447,1.562617 -0.01034,3.125301 -0.0069,4.687918 0.0023,1.56476 0.0034,3.129552 0.0034,4.694312 3.68e-4,1.562025 3.22e-4,3.124046 3.22e-4,4.686105 -1.1e-5,1.963455 -3.4e-5,3.92691 -3.4e-5,5.890329 -0.06307,2.443654 0.17077,4.865526 0.627826,7.266466 0.433599,2.22636 1.046124,4.41589 1.572724,6.62334 0.36502,1.68249 0.674258,3.37494 0.835689,5.08656 0.14366,1.97848 0.150713,3.96293 0.159558,5.94523 0.03148,2.68451 -0.07134,5.37083 0.07857,8.05235 0.109014,2.6866 0.707663,5.29142 1.537815,7.84926 0.850208,2.39281 1.629161,4.8048 2.26628,7.25697 0.559155,2.70652 0.973456,5.43808 1.387515,8.16769 0.358897,2.65341 0.861811,5.28595 1.256307,7.93487 0.486337,2.96104 0.930688,5.91977 1.193265,8.90769 0.198822,3.34642 0.529885,6.68321 0.7261,10.0301 0.05514,1.75634 -0.0057,3.51315 -0.06663,5.26846 -0.118916,2.32988 3.335839,2.49021 3.45471,0.16022 v 0 c 0.06594,-1.88695 0.130828,-3.77564 0.06203,-5.6635 -0.199488,-3.37741 -0.53154,-6.7448 -0.734279,-10.12172 -0.271743,-3.04934 -0.722699,-6.07013 -1.218089,-9.09253 -0.395886,-2.65139 -0.89834,-5.28675 -1.257628,-7.94282 -0.430681,-2.83675 -0.859226,-5.67662 -1.457794,-8.48626 -0.655774,-2.51217 -1.450982,-4.98483 -2.321626,-7.437 -0.751521,-2.30257 -1.283842,-4.64694 -1.377888,-7.06678 -0.164981,-2.62369 -0.01861,-5.25637 -0.07042,-7.88349 -0.01034,-2.07748 -0.01895,-4.15746 -0.178546,-6.23046 -0.183223,-1.85341 -0.509565,-3.68847 -0.912734,-5.50986 -0.515228,-2.16119 -1.116036,-4.30451 -1.540778,-6.48406 -0.415633,-2.17347 -0.619636,-4.366802 -0.56344,-6.578996 2.3e-5,-1.963457 4.6e-5,-3.926912 4.6e-5,-5.890366 0,-1.596893 3.4e-5,-3.193783 -3.45e-4,-4.790674 -4.71e-4,-1.565847 -9.07e-4,-3.131661 -0.0034,-4.697476 -0.0023,-1.512854 -0.0069,-3.025708 0.0069,-4.538497 0.02275,-1.750627 0.06203,-3.503134 0.233433,-5.247272 0.211458,-1.687682 0.504763,-3.366467 0.814817,-5.039914 0.282116,-1.64237 0.628837,-3.280191 0.808682,-4.935018 0.338415,-2.310179 -3.087094,-2.766647 -3.425521,-0.456467 z" />
    <path
       style="fill:#ffffff;stroke-width:0.892835"
       id="path2915"
       d="m 87.489348,62.117321 c 1.558549,0.232008 3.11773,0.463685 4.662529,0.771027 2.074086,0.642072 3.931075,1.812914 5.744722,2.945661 1.902754,1.170612 3.651591,2.54792 5.318051,4.005277 1.79223,1.619498 3.54336,3.279631 5.28265,4.950671 1.7974,1.602956 3.51293,3.300493 5.09353,5.099962 1.66497,1.698296 3.03408,3.610207 4.28405,5.59818 0.92064,1.68518 1.64681,3.45792 2.40992,5.211317 1.44077,3.852101 2.42169,7.84037 3.43972,11.807724 0.85641,3.40143 1.81086,6.7796 2.68473,10.17694 0.924,3.20031 1.40057,6.49448 2.07388,9.74587 0.52159,2.13267 0.81173,4.30029 0.94347,6.48363 0.0805,1.98623 -0.0819,3.9742 -0.15305,5.9595 -0.0145,1.90338 -0.18385,3.79937 -0.28784,5.69904 -0.008,1.80361 -0.31859,3.5743 -0.65623,5.34214 -0.42752,2.41056 -0.89241,4.80564 -1.51218,7.17901 -0.56467,2.29239 -1.23859,4.56352 -2.24472,6.71683 -0.60791,0.96725 -1.08543,2.01021 -1.72886,2.95781 -0.17727,0.26102 -0.97689,1.26406 -1.10235,1.42322 -1.50116,1.93048 -3.07547,3.8012 -4.74187,5.60405 -1.68787,1.81433 -3.35002,3.65014 -5.04396,5.45908 -1.35465,1.51035 -2.97856,2.76477 -4.6205,3.9769 -1.07421,0.8827 -2.33869,1.47634 -3.6217,2.02525 -1.47136,0.66142 -2.94971,1.30896 -4.487708,1.81752 -1.39312,0.51193 -3.050632,0.76412 -4.166702,1.78663 -0.244703,0.22408 -0.413049,0.51354 -0.619579,0.77032 -0.113264,0.36249 -0.226828,0.72501 -0.340242,1.0875 -0.415679,2.29869 2.992806,2.85936 3.408485,0.56068 v 0 c -0.06341,0.0606 -0.1269,0.12098 -0.19023,0.18159 -0.213594,-0.24619 0.339932,-0.34453 0.683402,-0.47453 0.773692,-0.29297 1.560536,-0.5613 2.356034,-0.79468 1.62877,-0.54737 3.20663,-1.21221 4.76451,-1.92183 1.52517,-0.6583 3.02875,-1.376 4.31406,-2.41739 1.8055,-1.33532 3.58739,-2.72049 5.08053,-4.37999 1.69867,-1.8144 3.36633,-3.65492 5.05886,-5.4748 1.72498,-1.86676 3.35791,-3.80152 4.91226,-5.80003 0.39509,-0.50162 0.96456,-1.2049 1.32643,-1.73831 0.71119,-1.04829 1.24199,-2.20125 1.90425,-3.27619 1.07979,-2.32905 1.84353,-4.76945 2.44441,-7.24969 0.63779,-2.44071 1.12338,-4.90285 1.5611,-7.38212 0.36448,-1.90486 0.70039,-3.81529 0.71354,-5.75823 0.10373,-1.91902 0.27851,-3.83427 0.2913,-5.75701 0.075,-2.1209 0.24982,-4.24444 0.14746,-6.36636 -0.14746,-2.33064 -0.45615,-4.64547 -1.00911,-6.92314 -0.68329,-3.30037 -1.1696,-6.64359 -2.10988,-9.89169 -0.8757,-3.39606 -1.82685,-6.77409 -2.68406,-10.17448 -1.06013,-4.128892 -2.08233,-8.281018 -3.60945,-12.28132 -0.82771,-1.901497 -1.61479,-3.8258 -2.64277,-5.639539 -1.34739,-2.132419 -2.82138,-4.186039 -4.60284,-6.015299 -1.64918,-1.861887 -3.41707,-3.634727 -5.2859,-5.297232 -1.77912,-1.707259 -3.56786,-3.40572 -5.40262,-5.058765 -1.80768,-1.571681 -3.6984,-3.062291 -5.758727,-4.326694 -2.173843,-1.349789 -4.402296,-2.733723 -6.922813,-3.404334 -1.772236,-0.34913 -3.560243,-0.642302 -5.358428,-0.838487 -2.445713,0 -2.445713,3.298846 0,3.298846 z" />
    <path
       style="fill:#ffffff;stroke-width:0.892835"
       id="path2917"
       d="m 86.600979,60.832455 c 1.167499,0.614223 2.459416,0.958607 3.750495,1.244494 1.235952,0.257714 2.498393,0.315057 3.758583,0.342344 1.170106,0.0098 2.333113,0.152915 3.500348,0.224097 1.569726,0.06062 3.138295,0.07414 4.706805,0.165769 1.56067,0.242552 3.10039,0.604207 4.64688,0.921634 1.70139,0.2152 3.33192,0.706696 4.97688,1.153738 1.96817,0.562354 3.83389,1.391447 5.70651,2.18686 1.73305,0.712366 3.34957,1.623618 4.952,2.565388 1.97092,1.043733 3.74198,2.37632 5.45352,3.765294 1.74402,1.625991 3.43106,3.311138 5.0671,5.036027 0.27642,0.295942 0.5524,0.591716 0.82879,0.887427 0.56765,0.607336 1.08425,1.127341 1.58545,1.788196 1.10477,1.456534 2.06729,3.023205 3.07889,4.538597 1.6514,2.588718 3.42278,5.106716 4.72519,7.877614 0.63433,1.432606 1.02833,2.951626 1.70164,4.370095 0.37014,0.779792 0.73767,1.361982 1.17728,2.103251 1.07534,1.7239 2.2451,3.39731 3.20375,5.18442 0.91059,1.56526 1.61204,3.21198 2.27668,4.88114 0.86254,2.68303 2.00404,5.26899 3.15757,7.8467 0.80381,1.72628 1.43564,3.50638 2.0203,5.30818 0.6032,2.05367 0.98011,4.16006 1.32499,6.26474 0.41281,2.4881 0.63534,4.99709 0.93564,7.49782 0.32481,2.21338 0.5042,4.44061 0.6086,6.67224 0.003,1.10118 0.11303,2.20877 0.0649,3.31021 -0.018,0.3878 -0.11165,0.78977 -0.18554,1.16835 -0.3148,1.56613 -1.18305,2.86705 -2.14912,4.13376 -1.19552,1.66959 -2.70654,3.09054 -4.20017,4.5126 -2.10086,1.92931 -4.17704,3.88221 -6.23809,5.85044 -2.29448,2.11912 -4.68324,4.14658 -7.08923,6.14994 -1.95548,1.65584 -4.121,3.05213 -6.27844,4.45136 -2.07278,1.36241 -4.2413,2.58151 -6.34265,3.90195 -2.02718,1.2332 -4.15998,2.29273 -6.29472,3.34328 -2.02134,1.05233 -4.03057,2.12715 -6.07848,3.13214 -2.02064,0.9495 -4.0782,1.82799 -6.16854,2.6288 -1.92818,0.72924 -3.96587,1.09129 -5.99757,1.4404 -2.41385,0.41094 -4.830737,0.80644 -7.232867,1.27691 -1.367963,0.26696 -0.708995,0.12124 -1.978306,0.43141 -2.369195,0.57902 -1.510635,3.77461 0.858549,3.19557 v 0 c 1.098023,-0.27484 0.495986,-0.13803 1.809971,-0.39446 2.374445,-0.46692 4.764653,-0.85445 7.150843,-1.262 2.26025,-0.38964 4.52392,-0.8061 6.66696,-1.62228 2.18872,-0.83943 4.34406,-1.75823 6.45942,-2.75414 2.04847,-1.0062 4.0611,-2.07709 6.08133,-3.13358 2.24286,-1.10368 4.48232,-2.2194 6.61052,-3.51743 2.1139,-1.33043 4.29855,-2.55442 6.3834,-3.92768 2.27113,-1.473 4.54748,-2.94726 6.60651,-4.68966 2.46482,-2.05222 4.91175,-4.1294 7.26136,-6.30114 2.0597,-1.96712 4.13426,-3.91921 6.23431,-5.84691 1.62268,-1.54469 3.25584,-3.09514 4.55821,-4.90579 1.2608,-1.66735 2.35696,-3.41346 2.76226,-5.46503 0.32687,-1.77948 0.26329,-3.50806 0.17763,-5.306 -0.11028,-2.30639 -0.29751,-4.60825 -0.63081,-6.89618 -0.30543,-2.54597 -0.53467,-5.10018 -0.95695,-7.63299 -0.37408,-2.25971 -0.78101,-4.52157 -1.44351,-6.72347 -0.62114,-1.90776 -1.2976,-3.79224 -2.14556,-5.62151 -1.13539,-2.53773 -2.25148,-5.08496 -3.10437,-7.72502 -0.71067,-1.78445 -1.47292,-3.54176 -2.43914,-5.21787 -0.99172,-1.81866 -2.1573,-3.54203 -3.26844,-5.295561 -0.28784,-0.483395 -0.72931,-1.197868 -0.97445,-1.712635 -0.69487,-1.459431 -1.07814,-3.033088 -1.76039,-4.497332 -1.38622,-2.905029 -3.20838,-5.571686 -4.96166,-8.284186 -1.08003,-1.617852 -2.11351,-3.282102 -3.30287,-4.830484 -0.54251,-0.706301 -1.09109,-1.263545 -1.69736,-1.911976 -0.28299,-0.302862 -0.56589,-0.605592 -0.84883,-0.908386 -1.73975,-1.826196 -3.52021,-3.622831 -5.38955,-5.329199 -1.84626,-1.492983 -3.75679,-2.924273 -5.87595,-4.054053 -1.73193,-1.017567 -3.48541,-1.993872 -5.35633,-2.76648 -2.02014,-0.857766 -4.03563,-1.744928 -6.16175,-2.342773 -1.7165,-0.466387 -3.42171,-0.973275 -5.19533,-1.205216 -1.71424,-0.351304 -3.41948,-0.767006 -5.15813,-0.987906 -1.56546,-0.09096 -3.130732,-0.110059 -4.697518,-0.165431 -1.214321,-0.0735 -2.42415,-0.225086 -3.64186,-0.230029 -1.027308,-0.02308 -2.057292,-0.05701 -3.06645,-0.260678 -0.965955,-0.210256 -1.939537,-0.453765 -2.818728,-0.900773 -2.129777,-1.146785 -3.830205,1.725845 -1.70044,2.872632 z" />
    <path
       style="fill:#ffffff;stroke-width:0.892835"
       id="path2919"
       d="m 84.367242,91.875794 c 1.395257,0.828636 2.743991,1.723837 4.104441,2.602991 1.268082,0.933332 2.566972,1.803719 3.957485,2.565384 1.600512,0.797321 3.251626,1.497109 4.93549,2.11716 1.687505,0.695862 3.448602,1.179451 5.244552,1.538401 2.10446,0.32065 4.25114,0.39477 6.37951,0.34128 1.95729,-0.0102 3.79394,-0.58525 5.58691,-1.27791 1.98411,-0.696512 3.8411,-1.63954 5.64922,-2.67467 1.88174,-1.13235 3.80566,-2.212599 5.62682,-3.432709 1.73877,-1.148136 3.2895,-2.507187 4.81585,-3.895404 1.28726,-1.197405 2.65412,-2.305731 3.94632,-3.498158 1.1699,-1.094059 2.31607,-2.194606 3.21029,-3.509958 0.45299,-0.828534 0.24981,-0.413525 0.61394,-1.243113 0.94764,-2.150411 -2.24095,-3.428623 -3.18862,-1.27818 v 0 c -0.19938,0.492553 -0.0902,0.250133 -0.32792,0.727295 -0.71486,1.117554 -1.74795,1.980164 -2.69344,2.915473 -1.28648,1.186892 -2.64807,2.28955 -3.92893,3.482473 -1.4056,1.279529 -2.82463,2.539253 -4.42853,3.595411 -1.74106,1.186858 -3.61186,2.200338 -5.41302,3.301117 -1.65614,0.953038 -3.35702,1.818186 -5.17918,2.452377 -1.40814,0.556197 -2.84381,1.033026 -4.38789,1.038432 -1.86112,0.05597 -3.73941,-0.01976 -5.5826,-0.274524 -1.61533,-0.318999 -3.19457,-0.760542 -4.709927,-1.389529 -1.522927,-0.560212 -3.014965,-1.193056 -4.466222,-1.906673 -1.318683,-0.717078 -2.52942,-1.561992 -3.737182,-2.435971 -1.432499,-0.925523 -2.852178,-1.86963 -4.326927,-2.733592 -2.129766,-1.146784 -3.830206,1.725879 -1.70044,2.872664 z" />
    <path
       style="fill:#ffffff;stroke-width:0.892835"
       id="path2925"
       d="m 91.106223,132.1409 c 3.358929,0.25409 6.73657,0.0741 10.098977,-0.0231 4.59601,-0.12888 9.19294,-0.22441 13.79057,-0.27813 0.54647,0.007 1.09338,10e-4 1.63943,0.0231 1.97839,0.0784 3.95184,0.25475 5.9318,0.31934 1.98664,0.0649 2.05606,0.0415 3.98553,0.0135 2.79879,-0.1262 5.54611,-0.67631 8.19788,-1.51863 1.87426,-0.64172 3.54609,-1.69208 5.2857,-2.59602 1.34788,-0.65371 2.73648,-1.22275 4.15303,-1.72547 1.36055,-0.48198 2.7896,-0.72281 4.22862,-0.85559 1.49203,-0.0995 2.98905,-0.0871 4.48377,-0.0871 0.79302,-0.0169 1.58364,-0.0804 2.37423,-0.13769 2.43882,-0.17532 2.17895,-3.46477 -0.25984,-3.28951 v 0 c -0.70426,0.0511 -1.40845,0.10765 -2.11468,0.1282 -1.60675,1.5e-4 -3.21619,-0.0135 -4.81962,0.10251 -1.73226,0.16581 -3.45142,0.46154 -5.08899,1.04365 -1.56844,0.55857 -3.10777,1.18735 -4.59804,1.91699 -1.56226,0.81418 -3.06483,1.7561 -4.73183,2.36817 -2.31677,0.74454 -4.72055,1.22635 -7.16707,1.35174 -1.81222,0.0298 -1.88612,0.0524 -3.76597,-0.0103 -2.01741,-0.0655 -4.02847,-0.24486 -6.04456,-0.32262 -0.57666,-0.0231 -1.15414,-0.0169 -1.73123,-0.0231 -4.61884,0.0541 -9.23702,0.14988 -13.85422,0.27946 -3.18596,0.0937 -6.384813,0.2633 -9.568664,0.048 -2.42724,-0.2864 -2.851983,2.98741 -0.424742,3.27386 z" />
    <path
       style="fill:#ffffff;stroke-width:0.892835"
       id="path2927"
       d="m 96.743356,160.11683 c 2.649704,-0.4262 5.253474,-1.10985 7.844734,-1.78497 2.14553,-0.55462 4.31947,-1.24144 6.5746,-1.10995 0.39399,0.0231 0.78289,0.0969 1.17434,0.14532 3.22981,0.60586 6.33629,1.68768 9.35421,2.92133 2.29904,0.90104 4.42554,2.10946 6.55182,3.32178 1.59733,0.96474 3.29058,1.80547 4.83729,2.84417 1.19041,0.75358 2.18789,1.73147 3.18118,2.70078 0.54882,0.60073 1.06665,1.22432 1.58489,1.84871 1.53493,1.81605 4.22774,-0.2544 2.69282,-2.07032 v 0 c -0.5922,-0.71399 -1.18581,-1.42611 -1.82434,-2.10368 -1.14588,-1.11655 -2.30982,-2.22762 -3.68033,-3.09732 -1.62473,-1.06304 -3.35974,-1.97213 -5.03286,-2.96294 -2.25848,-1.28752 -4.52417,-2.5605 -6.96424,-3.51987 -3.3209,-1.34966 -6.73963,-2.53928 -10.30138,-3.15948 -0.53887,-0.0557 -1.07516,-0.14244 -1.61653,-0.16699 -2.54646,-0.11599 -5.01138,0.57657 -7.43441,1.22407 -2.30268,0.60044 -4.619857,1.14697 -6.941794,1.67059 -2.445735,0 -2.445735,3.29885 0,3.29885 z" />
    <path
       style="fill:#ffffff;stroke-width:0.892835"
       id="path2929"
       d="M 78.862864,59.427165 H 74.84651 c -1.605038,-0.02308 -3.204547,0.220802 -4.777147,0.506197 -1.507075,0.365345 -3.052207,0.507679 -4.590653,0.686494 -1.629054,0.210916 -3.273451,0.264305 -4.914956,0.302202 -1.994742,0.03295 -3.989898,0.02965 -5.984856,0.02965 -2.579559,0.07316 -5.069538,0.868575 -7.544662,1.504449 -2.317978,0.447241 -4.416007,1.521358 -6.482239,2.575078 -1.988345,1.044391 -3.690187,2.463191 -5.32219,3.949088 -1.649098,1.54492 -3.338991,3.049469 -5.001576,4.581242 -1.82621,1.513808 -3.66292,3.012492 -5.258538,4.751487 -1.433743,1.534144 -2.682522,3.208515 -3.753485,4.989231 -1.00871,1.638019 -1.947867,3.308334 -2.755229,5.045089 -0.887604,1.890492 -6.094059,12.991558 -6.226295,15.033438 -0.08604,1.89132 -0.0746,3.78495 -0.06947,5.67755 0.009,1.57685 -0.197994,3.10925 -0.637681,4.62603 -0.660364,2.03685 -0.965407,4.13977 -1.142776,6.25755 -0.15635,1.92717 9.17e-4,3.8583 0.201965,5.77613 0.211399,1.73185 0.07913,-1.65785 0.541836,0.0835 0.511805,1.9018 0.923727,3.80469 1.469546,5.70549 0.52001,1.79975 1.189988,3.58558 2.054693,5.3377 0.784739,1.4803 0.919679,1.37363 1.275503,2.86642 0.477227,1.67103 1.5185,2.49821 1.911508,4.18918 0.50523,1.77691 1.66354,2.88372 2.346074,4.60589 0.921505,2.11691 2.562705,3.35498 3.730591,5.35482 1.05746,1.85848 2.077287,3.73323 3.074772,5.62111 0.783219,1.61509 1.364812,3.3001 2.147966,4.91515 1.00114,1.97455 2.185767,3.85824 3.473767,5.67308 1.371156,1.82987 2.882656,3.55811 4.341377,5.32431 1.274368,1.64261 2.852974,3.04003 4.335673,4.50733 1.595106,1.571 3.197808,3.13236 4.824603,4.67388 1.486962,1.41253 3.074562,2.71186 4.826826,3.81298 1.402262,0.97472 2.791947,1.96856 4.198022,2.9407 1.529681,1.26661 3.321122,2.12974 5.133887,2.95465 1.835048,0.7805 3.680015,1.54459 5.55939,2.22338 2.102066,0.73792 4.314238,0.90063 6.52988,0.99878 2.039611,0.16766 4.058567,-0.0728 6.076078,-0.32396 1.24246,-0.13802 2.487083,-0.22212 3.719841,-0.4312 1.213643,-0.20729 2.435546,-0.37311 3.657804,-0.52914 0.802743,-0.0896 0.374578,-0.0198 1.280752,-0.22641 2.36722,-0.58632 1.497862,-3.77925 -0.869358,-3.19295 v 0 c -0.449175,0.14242 -0.165531,0.0705 -0.866428,0.14921 -1.274733,0.16308 -2.549121,0.33665 -3.815031,0.55254 -1.174714,0.20959 -2.367243,0.25838 -3.550845,0.40631 -1.819289,0.22641 -3.635198,0.46226 -5.475414,0.30023 -1.85498,-0.0804 -3.710337,-0.18422 -5.475197,-0.79299 -1.790735,-0.64539 -3.546721,-1.37653 -5.295949,-2.11735 -1.627157,-0.74046 -3.232792,-1.50379 -4.597303,-2.65423 -1.448199,-1.00079 -2.877406,-2.02624 -4.326273,-3.02407 -1.562915,-0.9785 -2.96561,-2.14957 -4.292696,-3.40519 -1.609793,-1.52406 -3.193939,-3.06943 -4.771636,-4.62343 -1.403741,-1.38887 -2.902851,-2.70853 -4.108909,-4.26351 -1.408255,-1.70537 -2.867134,-3.3742 -4.19544,-5.13768 -1.187185,-1.66647 -2.270426,-3.40217 -3.19532,-5.21491 -0.79982,-1.64638 -1.368808,-3.37726 -2.198504,-5.01211 -1.018384,-1.92839 -2.062386,-3.84207 -3.142598,-5.74006 -1.086301,-1.86059 -2.84789,-3.02108 -3.71006,-4.98855 -0.625485,-1.57675 -2.056707,-2.53631 -2.526848,-4.16125 -0.396695,-1.69717 -0.978953,-2.53201 -1.459478,-4.20935 -0.363223,-1.49888 -0.936683,-2.05899 -1.740525,-3.54361 -0.766108,-1.54666 -1.013465,-2.40839 -1.476169,-3.99692 -0.540445,-1.87841 -0.937676,-3.75961 -1.449962,-5.63896 -0.487074,-1.82865 -0.313296,1.47409 -0.5341,-0.34453 -0.176537,-1.69086 -0.324041,-3.39382 -0.194467,-5.09317 0.154489,-1.91418 0.419521,-3.81467 1.023438,-5.65421 0.520434,-1.83509 0.793257,-3.69059 0.771482,-5.59652 -0.0046,-1.79027 -0.01554,-3.5814 0.06033,-5.37063 0.100238,-1.6537 5.217446,-12.37581 5.924973,-13.913217 0.754651,-1.637854 1.646239,-3.206603 2.594775,-4.749544 0.948082,-1.601307 2.07887,-3.093962 3.359945,-4.469621 1.511017,-1.681587 3.320391,-3.0729 5.048779,-4.543771 1.658245,-1.528079 3.344029,-3.028674 4.988887,-4.569772 1.405287,-1.284111 2.857368,-2.524092 4.567905,-3.434488 1.836458,-0.938244 3.690083,-1.919659 5.756151,-2.303689 1.777489,-0.456795 0.697687,-0.181914 2.529283,-0.641972 1.074092,-0.269904 2.171026,-0.603019 3.281077,-0.716551 0.279795,-0.02965 0.562246,-0.02308 0.843361,-0.0346 2.022859,0 4.045899,0.0016 6.068524,-0.03295 1.752499,-0.04119 3.507725,-0.101182 5.247013,-0.325271 1.617001,-0.189494 3.24132,-0.340825 4.8261,-0.72156 1.355676,-0.256065 2.741078,-0.462233 4.125975,-0.447207 h 4.016335 c 2.445755,0 2.445755,-3.298843 0,-3.298843 z"
       sodipodi:nodetypes="ccccccccccccccccccccccccccccccccccccccccssccccccccccccccccccccccccccccccccccccccccscc" />
    <path
       style="fill:#ffffff;stroke-width:0.892835"
       id="path2939"
       d="m 78.085337,63.48247 c -0.256339,1.025444 -0.216329,0.908121 -0.577083,2.105361 -0.771382,2.559883 0.478699,2.672912 -0.331463,5.634359 -0.09181,0.335718 -0.836058,5.026049 -0.8581,5.358866 -0.325875,6.745362 -0.152599,13.584317 0.347887,20.45962 1.757444,13.470734 1.401525,13.200894 0.671457,20.304534 -0.365789,3.19293 -0.518283,6.39952 -0.358961,9.55287 0.193631,3.83244 0.7899,7.57806 1.386502,11.32404 0.685907,3.90965 1.480853,7.79664 2.476452,11.61522 0.773468,2.79881 0.401078,1.40849 1.118397,4.17056 0.86144,3.15304 1.600212,6.34435 2.108675,9.60173 0.424042,2.21899 0.520797,4.4934 0.454211,6.79375 -0.0059,1.69721 -0.309812,3.41267 -0.399719,5.11285 -0.04828,0.91325 -0.0029,1.44843 0.03882,2.33004 0.113954,1.92671 1.071212,3.76456 1.882042,5.55211 0.909701,1.80085 1.590438,3.69459 2.346336,5.5559 0.696279,1.57377 1.395395,3.18037 1.635433,4.8847 -0.05399,0.58325 -0.104075,-0.10308 0.257729,-0.46695 0.193653,-0.19476 0.487865,-0.26726 0.731809,-0.40109 -2.43334,0.23462 -2.085471,3.51674 0.347869,3.28213 v 0 c 0.420481,-0.15091 0.906106,-0.19048 1.261454,-0.45272 0.853402,-0.62967 0.867037,-1.59876 0.813736,-2.49871 -0.32656,-1.93495 -1.008618,-3.78576 -1.837931,-5.57561 -0.77213,-1.90151 -1.471384,-3.83444 -2.399189,-5.67478 -0.700931,-1.53846 -1.460468,-3.1209 -1.563278,-4.77919 -0.02995,-0.60703 -0.07746,-1.26499 -0.04345,-1.87899 0.09833,-1.77432 0.403745,-3.56315 0.410179,-5.33404 0.06523,-2.48437 -0.0444,-4.94187 -0.497086,-7.33962 -0.529717,-3.34942 -1.281945,-6.63485 -2.170186,-9.87822 -0.181618,-0.69805 -0.363223,-1.39611 -0.544844,-2.09422 -0.188105,-0.68055 -0.386079,-1.35779 -0.564287,-2.04174 -0.974864,-3.74111 -1.753585,-7.54908 -2.425234,-11.37927 -0.574196,-3.60428 -1.155325,-7.20994 -1.343642,-10.89712 -0.154779,-3.03026 -0.0077,-6.11214 0.347245,-9.18066 0.706644,-6.60081 1.282196,-6.74208 -0.627026,-19.776603 -0.495966,-6.737063 -0.663712,-13.437539 -0.352329,-20.048179 0.0067,-0.103149 1.156406,-4.884932 0.674001,-5.292659 0.556409,-2.038362 0.215883,-5.02109 0.743649,-7.065682 0.107751,-0.416952 0.18807,-0.839837 0.282093,-1.259755 0.239349,-2.321452 -3.20285,-2.644283 -3.442204,-0.322964 z"
       sodipodi:nodetypes="ccccccscccccsccccscssccccccccccccscccccccc" />
    <path
       style="fill:#ffffff;stroke-width:0.892835"
       id="path2941"
       d="m 60.648796,60.498088 c -0.757974,1.477987 -1.516924,2.956467 -2.154418,4.485703 -0.733703,1.633734 -1.135225,3.361754 -1.3337,5.121479 -0.136437,1.814628 -0.121614,3.635583 -0.120534,5.453704 -0.09054,1.51526 0.160472,3.062257 -0.05186,4.569047 -0.270523,1.337369 -0.317003,2.703075 -0.517972,4.048219 -0.02603,0.08042 -0.10427,0.321316 -0.07753,0.241234 0.04555,-0.135454 0.03922,-0.296927 0.133185,-0.407395 0.150713,-0.17697 0.379149,-0.278145 0.568516,-0.417381 0.03036,-0.02308 0.104822,-0.03361 0.09089,-0.06788 -0.02042,-0.0501 -0.09957,-0.05042 -0.149267,-0.07582 -0.0824,-0.04218 -0.164447,-0.08436 -0.246707,-0.126546 -0.945606,-0.564331 -1.912408,-1.081534 -3.092072,-0.619432 -1.004029,0.393322 -1.147693,1.002076 -1.558433,1.805828 -0.338416,1.172195 -0.643258,2.739426 0.405082,3.721663 0.836169,0.783485 1.324665,0.697173 2.315576,0.789647 1.395594,-0.117649 2.866581,-0.53757 3.897807,-1.49252 0.200535,-0.185869 0.354519,-0.412373 0.531778,-0.618544 0.76972,-1.176806 0.994831,-2.543502 -0.335995,-3.540306 -0.720585,-0.539714 -1.364602,-0.353614 -2.135244,-0.274191 -0.250339,0.09721 -0.523665,0.152254 -0.751016,0.291656 -1.141624,0.70004 -1.674955,1.891546 -1.618484,3.160036 0.01261,0.291326 0.116193,0.572537 0.174386,0.85882 0.218498,0.332488 0.36509,0.71945 0.655421,0.99743 0.879356,0.841981 2.206606,0.907067 3.22972,0.284076 0.638108,-0.388644 0.811662,-0.83664 1.156929,-1.422589 0.452265,-0.964672 0.637999,-2.020764 0.722626,-3.068715 0.01807,-0.224755 0.0571,-0.452183 0.02656,-0.675655 -0.04717,-0.344514 -0.171676,-0.675289 -0.25755,-1.01295 -0.299131,-0.304182 -0.488643,-0.764471 -0.897391,-0.912671 -2.224298,-0.806455 -3.567558,1.19345 -4.670022,2.612118 -0.431448,0.67473 -0.914722,1.362972 -1.161501,2.127672 -0.08746,0.270892 -0.12831,0.553355 -0.192403,0.830015 -0.437665,2.294989 2.965303,2.88532 3.402966,0.590333 v 0 c -0.07409,-0.489816 0.509551,-1.147839 0.718218,-1.568978 0.144027,-0.188506 0.282361,-0.381195 0.431881,-0.565879 0.244772,-0.302201 0.57213,-0.551642 0.754739,-0.891578 0.09885,-0.184221 -1.938775,-0.215528 -1.594088,-0.986818 0.0037,-0.119638 -0.0037,-0.478512 0.0091,-0.359379 0.08711,0.780451 -0.148364,1.622893 -0.365017,2.366005 -0.01446,0.05536 -0.09487,0.137418 -0.04338,0.166429 0.06396,0.03592 0.136075,-0.06031 0.208974,-0.07316 0.143123,-0.02637 0.290402,-0.05965 0.434789,-0.04153 0.490649,0.06195 0.722718,0.370024 0.78463,0.805663 -0.02421,-0.04582 -0.04806,-0.09162 -0.07211,-0.137757 -0.03216,0.0132 -0.07626,0.07217 -0.09649,0.04416 -0.401268,-0.556947 0.546886,0.110723 -0.306665,-0.182901 -0.662523,-0.206631 -0.849884,-0.495948 -1.050924,-1.183894 -0.04121,-0.141042 0.104086,-0.55085 0.156855,-0.413294 0.02204,0.05767 -0.04427,0.115354 -0.06632,0.173016 -0.04211,0.08667 -0.04246,0.203334 -0.121262,0.261996 -0.398592,0.297258 -0.960224,0.421337 -1.433688,0.557673 -0.31084,0.155879 -0.0037,-0.04119 0.280645,0.474427 0.06938,0.126229 0.06559,0.279133 0.07337,0.421371 0.01261,0.217835 -0.09723,-0.242884 -0.07988,-0.459171 0.0108,-0.134456 0.05115,-0.265621 0.07662,-0.398266 -0.136437,-0.284406 0.06108,0.03888 -0.535103,0.06658 -0.236966,0.0098 -0.46889,-0.06986 -0.70199,-0.11205 -0.04463,-0.0066 0.09416,-0.0066 0.135715,0.0098 0.156857,0.06657 0.300811,0.157861 0.450475,0.238267 0.21595,0.115992 0.430887,0.233654 0.646331,0.350285 0.706236,0.298575 1.598895,0.702447 2.403184,0.519048 1.3249,-0.302203 1.893814,-0.935078 2.151291,-2.153543 0.200517,-1.382284 0.263584,-2.78164 0.533548,-4.156016 0.161556,-1.668501 0.0533,-3.345375 0.07662,-5.019548 -9.23e-4,-1.672227 -0.01261,-3.346498 0.09758,-5.016187 0.146557,-1.467212 0.490503,-2.904005 1.102607,-4.262957 0.562354,-1.388249 1.275693,-2.713225 1.935052,-4.061138 1.235701,-2.013019 -1.749173,-3.679742 -2.984855,-1.666723 z" />
    <path
       style="fill:#ffffff;stroke-width:0.892835"
       id="path2943"
       d="m 69.414883,94.812556 c -1.197481,0.589278 -2.368614,1.211809 -3.615645,1.704227 -1.29512,0.54364 -2.371398,0.881659 -3.770804,1.072468 -1.336809,0.158531 -2.685401,0.182573 -4.030757,0.194441 -1.456439,0.04156 -2.907024,-0.102486 -4.359163,-0.185544 -1.549976,-0.06948 -3.093391,-0.230351 -4.640654,-0.339638 -1.504636,-0.08542 -3.012687,-0.08694 -4.519455,-0.09357 -0.204581,-4.59e-4 -0.410683,-0.02639 -0.61382,-0.0013 -0.295735,0.03429 -0.597348,0.0705 -0.874953,0.173675 -0.28617,0.106444 -0.530563,0.295277 -0.793822,0.44602 -0.02349,0.01326 -0.08949,0.05927 -0.06572,0.04653 0.577427,-0.312754 0.07744,-0.141704 1.089511,-0.28903 0.07633,0.01326 0.214784,0.112438 0.229056,0.03991 0.01482,-0.07546 -0.142185,-0.07317 -0.216755,-0.102497 -0.145744,-0.05736 -0.28579,-0.160825 -0.443399,-0.156861 -0.5213,0.01326 -1.067652,0.01644 -1.549394,0.20631 -0.713445,0.282094 -0.875902,0.99393 -1.123867,1.575303 -0.256215,1.33787 -0.434872,2.77598 0.279156,4.02449 0.140811,0.24618 0.345626,0.45377 0.518441,0.68067 0.346702,0.21025 0.648615,0.51203 1.040105,0.63109 1.553627,0.47255 3.129438,-0.45192 4.207577,-1.42816 0.259013,-0.23464 0.479137,-0.50527 0.718724,-0.7579 1.034967,-1.4019 1.365288,-2.800175 0.277282,-4.305276 -0.159026,-0.219823 -0.359325,-0.409841 -0.538988,-0.61476 -1.177566,-1.090201 -2.662937,-1.495186 -4.2578,-1.595768 -1.581748,0.09162 -2.885345,0.933037 -3.484349,2.359051 -0.123797,0.294626 -0.189488,0.608693 -0.284236,0.913007 -0.104695,1.133726 -0.117829,0.547643 0.07076,1.757346 0.555491,2.27169 3.923896,1.52241 3.368403,-0.74924 v 0 c -0.138658,0.0557 -0.06144,0.0472 -0.08375,-0.207623 -0.0273,-0.25145 0.142817,-0.360009 0.186036,-0.58641 2.68e-4,-0.0013 -0.08915,-0.109761 -0.07342,-0.127541 0.03247,-0.03696 0.0905,-0.04219 0.135786,-0.06323 0.659378,0.0038 1.305712,0.135776 1.850482,0.506302 0.06036,0.05405 0.121978,0.106822 0.180929,0.162139 0.03759,0.03532 0.06163,0.133469 0.108612,0.110391 0.07536,-0.03723 0.03903,-0.547656 0.155048,-0.279469 0.04663,0.107462 -0.202215,0.528151 -0.211648,0.546761 -0.403238,0.49537 -0.231744,0.33608 -0.796955,0.7828 -0.118207,0.0936 -0.244983,0.17664 -0.363274,0.27023 -0.04455,0.0353 -0.159712,0.0711 -0.124564,0.11498 0.08171,0.10186 0.238971,0.11728 0.35844,0.17599 0.0756,0.0946 0.151163,0.18949 0.226738,0.28408 -0.438473,-0.0402 -0.153657,-1.36103 -0.156658,-1.6364 -0.142327,0.10248 -0.499907,0.36346 -0.570594,0.37615 -1.071967,0.19213 -1.830398,-0.25442 -0.24647,0.34132 0.364256,-0.0198 0.735249,0.006 1.092784,-0.0616 0.182464,-0.0356 0.333773,-0.15817 0.494768,-0.24748 0.05783,-0.033 0.226575,-0.12353 0.160111,-0.11562 -0.142219,0.0164 -0.262339,0.116 -0.402588,0.14434 -0.03415,0.006 -0.12866,-0.0412 -0.09398,-0.0439 0.201655,-0.0164 0.40481,8.5e-4 0.607243,0.001 1.427543,0.006 2.856317,0.006 4.282016,0.0846 1.563258,0.11002 3.122614,0.27321 4.68869,0.34268 1.530657,0.0873 3.059976,0.23531 4.595225,0.19115 1.501906,-0.0133 3.007246,-0.0449 4.498779,-0.22872 0.762492,-0.10976 1.081428,-0.13611 1.825812,-0.32066 0.955292,-0.23661 1.833692,-0.652453 2.760648,-0.965155 1.364947,-0.543207 2.654661,-1.213662 3.964725,-1.863479 2.143954,-1.122465 0.479553,-4.014235 -1.664401,-2.891773 z" />
    <path
       style="fill:#ffffff;stroke-width:0.892835"
       id="path2945"
       d="m 17.605675,123.29094 c 1.597563,0.0393 3.157995,-0.26793 4.669976,-0.73039 1.53985,-0.5316 3.148056,-0.8224 4.716887,-1.25782 1.535743,-0.45735 3.135834,-0.59279 4.732128,-0.69202 1.737238,-0.0133 3.493157,-0.17632 5.224848,-10e-4 1.751959,0.28902 3.512008,0.50903 5.275659,0.72548 0.667791,0.11664 2.07648,0.1829 2.668433,0.55628 0.05114,0.0331 -0.08782,0.084 -0.117466,0.13549 0.118909,1.1367 0.223141,2.27089 0.389921,3.40346 0.303628,1.72786 0.785856,3.41826 1.301714,5.09726 0.535987,1.91701 1.006234,3.84654 1.556192,5.75984 0.472595,1.53487 0.915789,3.07967 1.171874,4.66207 0.355928,1.36772 0.602344,2.7516 0.740119,4.15375 -0.201655,-0.60107 0.130654,0.67691 -0.06687,0.60332 -0.179265,-0.0669 0.171496,-0.32992 -0.116737,-0.29363 -0.08927,0.0103 -0.175831,0.0366 -0.263747,0.0547 -1.032709,0.21057 -2.027052,-0.14075 -3.027684,-0.35048 -1.568048,-0.29824 -3.129885,-0.57352 -4.7296,-0.63337 -1.644463,0.11638 -3.258412,0.44882 -4.895397,0.63142 0.01022,0.11017 -1.245942,-0.0515 -0.973506,-0.19873 0.0132,-0.0198 0.04095,-0.0346 0.03966,-0.0577 -0.02418,-0.42929 -0.225875,-0.89118 -0.299958,-1.31551 -0.08866,-0.50796 -0.110772,-0.83316 -0.162712,-1.35309 -0.137285,-1.25021 -0.08198,-2.50987 -0.187798,-3.76079 -0.05842,-1.24239 -0.4302,-2.43086 -0.778892,-3.62005 -0.289284,-0.9654 -1.007152,-2.74981 -2.157054,-3.03726 -0.523012,-0.1309 -1.080836,-0.0329 -1.621253,-0.0474 -0.305247,0.14431 -0.631337,0.25377 -0.915709,0.43264 -0.71943,0.45248 -1.724569,1.59515 -1.901971,2.43308 -0.07626,0.36007 -0.05796,0.73263 -0.08694,1.09894 0.181405,0.36228 0.276012,0.77737 0.544182,1.08683 0.249478,0.28771 0.614779,0.4689 0.958794,0.64727 1.060604,0.54996 2.328762,0.24587 3.408144,-0.047 1.829186,-0.72441 2.518979,-2.08192 2.783228,-3.85304 -0.05367,-0.3489 -0.04106,-0.71316 -0.161122,-1.04667 -0.382603,-1.06245 -1.40853,-1.65996 -2.571692,-1.5462 -0.790686,0.0773 -1.043963,0.45084 -1.588331,0.92144 -0.519774,0.87579 -0.322693,0.44252 -0.622398,1.2866 -0.74322,2.22233 2.552018,3.2248 3.295233,1.00248 v 0 c 0.03693,-0.19247 0.08576,-0.18289 -0.05538,-0.13244 -0.09862,0.0494 -0.189629,0.11639 -0.295881,0.14837 -0.700133,0.21024 -1.676999,-0.27452 -1.431932,-1.04661 -0.0056,0.32825 -0.136184,0.59011 -0.194019,0.89975 -0.0056,0.0264 0.03933,0.0589 0.0228,0.0824 -0.03913,0.0557 -0.111301,0.0814 -0.166958,0.12225 -0.121497,0.039 -0.241046,0.0834 -0.364422,0.11639 -0.11683,0.0295 -0.24685,0.0231 -0.355202,0.0748 -0.02799,0.0135 0.04061,0.0741 0.01354,0.0889 -0.04361,0.0231 -0.162477,-0.06 -0.150585,-0.0135 0.07809,0.30715 0.652145,0.41673 0.373792,0.87834 -0.04811,0.15294 -0.09115,0.30713 -0.144262,0.45841 -0.0183,0.0524 0.01789,-0.1104 0.03994,-0.16157 0.09689,-0.22574 0.328776,-0.42504 0.400589,-0.65335 0.0072,-0.0231 -0.01699,-0.0474 -0.02557,-0.0712 -0.436716,-0.13142 -0.796895,-0.0836 -0.989889,-0.47732 -0.03145,-0.064 0.108222,0.0969 0.154111,0.15225 0.27083,0.32625 0.359101,0.74492 0.487839,1.13195 0.291146,0.99272 0.61778,1.97802 0.655673,3.01681 0.120171,1.26411 0.02488,2.5445 0.193017,3.80738 0.171151,1.60111 0.361606,3.2702 1.350937,4.62428 0.202794,0.18094 0.385775,0.38479 0.608416,0.54328 0.934521,0.66518 2.158377,0.72357 3.273178,0.66131 1.467661,-0.16512 2.919633,-0.41866 4.382972,-0.61111 1.391042,0.0331 2.742823,0.32296 4.107786,0.55979 1.559607,0.32628 3.113704,0.72923 4.706833,0.30057 2.215605,-0.65848 3.063465,-1.63094 2.940781,-3.90169 -0.150714,-1.46742 -0.39312,-2.92116 -0.769684,-4.35261 -0.288523,-1.69919 -0.742234,-3.36425 -1.256628,-5.01353 -0.555578,-1.93111 -1.023113,-3.88096 -1.573051,-5.81386 -0.46882,-1.52707 -0.909482,-3.06348 -1.190182,-4.63408 -0.02187,-0.14835 -0.176554,-1.18351 -0.195509,-1.38021 -0.112943,-1.16826 -0.133366,-2.34375 -0.768185,-3.39549 -0.215643,-0.25903 -0.391004,-0.55391 -0.646945,-0.77709 -1.147875,-1.00102 -2.856424,-1.10493 -4.312207,-1.31004 -1.802955,-0.22048 -3.60024,-0.45387 -5.393055,-0.73781 -1.917408,-0.15623 -3.8467,-0.0573 -5.768146,-0.007 -1.845113,0.11639 -3.692471,0.29 -5.467798,0.81476 -1.603205,0.44835 -3.250457,0.73888 -4.823283,1.2889 -1.162137,0.37416 -2.37067,0.60112 -3.603388,0.56963 -2.445738,0 -2.445738,3.29883 0,3.29883 z" />
    <path
       style="fill:#ffffff;stroke-width:0.892835"
       id="path2947"
       d="m 81.809747,165.55187 c -1.212619,0.47854 -2.491058,0.71125 -3.786809,0.85921 -1.685672,0.14565 -3.380722,0.14497 -5.071922,0.15328 -0.806947,-0.0458 -1.626688,0.0586 -2.432839,-0.001 -0.179446,-0.0135 -0.34832,-0.0874 -0.522616,-0.1304 -0.384752,-0.17568 0.0108,-0.0448 0.0037,-0.0712 -0.05692,-0.22176 -0.28171,-0.37332 -0.378951,-0.58198 -0.04355,-0.0934 -0.06253,-0.19542 -0.09379,-0.2933 -0.267217,-1.04588 -0.414479,-2.11951 -0.549614,-3.18776 -0.228997,-1.27949 -0.359957,-2.56891 -0.430164,-3.8642 0.03145,-1.46288 -0.265808,-2.89786 -0.463379,-4.34158 -0.192548,-1.63024 -0.402516,-3.2592 -0.661781,-4.88117 -0.175471,-1.80316 -0.647741,-3.53282 -1.290294,-5.23068 -0.665468,-1.80074 -1.537055,-3.51718 -2.366915,-5.25113 -1.014295,-1.94201 -2.149629,-3.82267 -3.160236,-5.76625 -0.718126,-1.37733 -1.372536,-2.78841 -1.802393,-4.27334 -0.694327,-2.23666 -4.010824,-1.30014 -3.316478,0.93653 v 0 c 0.503605,1.67588 1.216582,3.28159 2.038852,4.83783 0.997506,1.91001 2.105643,3.76386 3.110866,5.67022 0.792562,1.65318 1.624518,3.28971 2.258814,5.00718 0.570757,1.49744 0.965646,3.02078 1.116161,4.61272 0.255381,1.60024 0.458879,3.20778 0.651065,4.81592 0.189366,1.36004 0.468836,2.70972 0.434953,4.08836 0.07789,1.36988 0.214992,2.73432 0.454235,4.08806 0.174386,1.3404 0.347796,2.69542 0.774562,3.98729 0.581891,1.29319 1.348954,2.50353 2.864503,2.90657 1.25961,0.27912 2.492708,0.24089 3.778738,0.22309 1.823553,-0.0103 3.65139,-0.0103 5.468238,-0.17696 1.563928,-0.18422 3.109245,-0.4712 4.575609,-1.04139 2.293092,-0.8112 1.090258,-3.90414 -1.202834,-3.09294 z" />
    <path
       style="fill:#ffffff;stroke-width:0.892835"
       id="path2949"
       d="m 58.61737,127.3332 c 0.496052,-1.29092 0.429713,-2.66834 -0.336049,-3.85443 -0.142582,-0.22082 -0.325425,-0.41558 -0.488137,-0.62337 -0.324972,-0.20959 -0.616586,-0.47661 -0.974898,-0.62906 -1.115439,-0.47454 -2.282289,-0.16648 -3.14907,0.60343 -0.542059,0.48134 -0.695772,1.06824 -0.947682,1.69377 -0.427021,1.89652 0.241321,3.72995 1.054068,5.44336 0.67846,1.24375 1.738312,2.27176 3.235755,2.52993 0.270109,0.0465 0.548006,0.0298 0.822016,0.046 0.314221,-0.0701 0.643044,-0.0959 0.942699,-0.20992 1.153856,-0.43972 1.849901,-1.56372 1.806439,-2.73215 -0.01261,-0.32494 -0.104822,-0.64271 -0.157219,-0.96403 -0.394709,-1.20791 -0.868785,-2.39456 -1.584762,-3.46289 -1.375662,-1.92868 -4.235447,-0.0732 -2.859785,1.85551 v 0 c 0.537849,0.67617 0.719374,1.5643 1.069789,2.33014 0.223974,0.28012 0.29577,-0.31604 0.809333,-0.11537 -0.417514,0.25308 -0.801617,-0.43418 -0.95672,-0.68583 -0.451975,-0.92307 -0.835806,-1.91384 -0.920397,-2.93604 0.179086,-0.8642 -0.460848,0.2165 -0.868387,-0.68004 0.490286,0.41292 0.461589,0.72104 0.235537,1.30875 -0.80232,2.20353 2.46506,3.28572 3.267398,1.08219 z" />
    <path
       style="fill:#ffffff;stroke-width:0.892835"
       id="path2951"
       d="m 62.746687,192.75198 c 0.01933,-1.95656 0.314889,-3.90718 0.62197,-5.83948 0.316064,-1.95611 0.636754,-3.90945 0.828559,-5.88082 0.125956,-1.43238 0.142583,-2.87045 0.151075,-4.30691 0.0423,-1.48442 -0.223901,-2.95195 -0.392486,-4.42231 -0.135352,-1.59198 -0.510635,-3.1567 -0.830565,-4.72233 -0.267578,-1.21746 -0.594774,-2.40566 -1.211089,-3.50592 -0.15252,-0.18884 -0.276812,-0.40211 -0.457523,-0.56695 -0.8992,-0.82018 -2.678099,-1.28524 -3.865008,-1.6532 -1.631821,-0.45528 -3.172019,-1.12469 -4.823048,-1.52459 -2.059851,-0.43458 -4.047544,-0.46244 -6.138568,-0.28736 -1.709453,0.20432 -3.378556,0.62271 -5.080919,0.87066 -0.943153,0.12123 -1.888554,0.1862 -2.835209,0.0919 -0.962679,-0.35465 -1.977066,-0.5445 -2.994083,-0.68873 -0.684285,-0.0649 -1.366291,-0.12543 -2.047792,-0.21453 -2.423667,-0.31276 -2.887309,2.9564 -0.463641,3.26909 v 0 c 0.670319,0.0871 1.341088,0.15394 2.014717,0.21025 1.07577,0.14769 2.100995,0.44738 3.150434,0.70693 1.234616,0.11361 2.467955,0.054 3.69617,-0.1136 1.63062,-0.24058 3.233055,-0.62007 4.865508,-0.84595 0.448001,-0.0392 1.283716,-0.12263 1.744167,-0.12224 1.09341,4e-4 2.188626,0.14801 3.262717,0.32692 1.578022,0.36331 3.029311,1.06348 4.596364,1.46351 1.018468,0.31176 0.418886,0.11601 1.448832,0.48125 0.211918,0.0752 0.422211,0.15497 0.636553,0.22345 0.07626,0.0231 0.156315,0.0743 0.234545,0.0553 0.206769,-0.0488 -0.195548,-0.15495 0.02873,-0.0863 0.08819,0.15394 0.204113,0.2956 0.266785,0.46051 0.261543,0.68819 0.388257,1.42101 0.586099,2.12592 0.302691,1.47687 0.659487,2.95264 0.783743,4.45483 0.15234,1.31107 0.393608,2.62081 0.366555,3.94388 -0.0072,1.3428 -0.01933,2.68716 -0.132281,4.02643 -0.181108,1.90786 -0.497244,3.7969 -0.801254,5.68975 -0.33323,2.09433 -0.647812,4.20777 -0.668377,6.3286 -0.03831,2.33232 3.419953,2.38417 3.458373,0.0517 z" />
    <path
       style="fill:#ffffff;stroke-width:0.892835"
       id="path2953"
       d="m 124.78303,58.885938 c -2.27061,-1.297426 -4.51377,-2.637033 -6.77361,-3.952121 -1.89497,-1.071712 -3.62033,-2.381232 -5.36304,-3.659345 -1.46051,-1.205016 -3.18606,-1.986162 -4.90737,-2.778904 -1.84501,-0.815716 -3.71893,-1.5613 -5.61538,-2.261968 -2.07405,-0.890752 -4.27051,-1.379713 -6.499021,-1.754252 -2.579803,-0.414414 -5.202017,-0.486753 -7.812043,-0.55006 -2.311265,0.0098 -4.612858,0.142042 -6.901722,0.443416 -2.987315,0.605887 -5.987829,-0.443229 -8.774698,0.742114 -1.912318,0.777257 -4.330564,0.677922 -6.303801,1.313863 -0.579918,0.186858 -1.169958,0.343892 -1.754919,0.51582 -4.056544,1.112248 -6.738301,1.383952 -10.859268,2.246002 -2.661908,0.570393 -7.472966,3.047338 -10.1408,3.58906 -1.983584,0.384986 -3.342661,1.303852 -5.326074,1.686464 -1.542994,0.430036 -2.536514,1.482423 -4.015459,2.108381 -0.358019,0.151594 -0.696968,0.341055 -1.045453,0.5116 -1.956015,1.141017 -3.817743,2.42315 -5.583071,3.816971 -2.156229,1.576952 -4.111926,3.37497 -6.047004,5.188214 -1.924053,1.891742 -3.84444,3.786751 -5.678417,5.758675 -1.122029,1.249045 -2.383622,2.379089 -3.486016,3.644481 -0.750524,0.861522 -1.077154,1.315027 -1.567029,2.008703 -2.3306403,3.300249 -4.7012734,6.610952 -6.5126486,10.222385 -1.3974416,2.786152 -2.2697149,5.807074 -3.31638575,8.743052 -0.67461111,1.892327 -1.51496585,3.746611 -1.90933805,5.716501 -0.3942263,1.96916 0.2419748,4.10871 -0.4383394,6.00874 -0.731211,1.98263 -0.3018013,3.94614 -0.305819,6.03579 0.00808,2.07115 -0.2245991,4.15085 -0.011461,6.22495 0.5614442,2.7482 -0.5720596,6.66603 0.3281214,9.32955 1.27405897,3.69835 1.7269633,6.27519 2.9495001,10.11336 1.0634102,3.78422 2.9082925,7.51859 4.5020167,11.13062 0.9775382,2.10414 1.8739819,4.24097 2.8007611,6.3656 0.7774664,1.89636 1.9582465,3.59489 3.0318665,5.34181 1.066675,1.83995 2.01115,3.74337 2.934612,5.65181 1.02556,1.80368 2.016452,3.62415 3.048626,5.42447 0.963008,1.78746 1.903374,3.58688 2.789762,5.41024 0.886151,1.59832 1.67338,3.24216 2.54758,4.8462 1.171643,2.02773 2.674909,3.85374 4.239649,5.61487 1.688652,1.90198 3.577288,3.62925 5.380534,5.43053 1.67383,1.6718 3.64814,3.01312 5.571086,4.40453 1.300143,0.91725 2.426338,2.05168 3.720272,2.9741 1.075852,0.76695 1.778289,1.12469 2.941451,1.78524 1.48322,0.82678 2.947141,1.68463 4.414839,2.53611 0.518297,0.30057 2.11045,1.24597 2.652583,1.51515 0.528019,0.26232 1.078626,0.48074 1.617923,0.72111 3.733505,1.44919 7.761767,1.96795 11.734552,2.44402 2.7358,0.39084 5.494714,0.26958 8.230171,-0.0339 1.675208,-0.21289 3.347072,-0.45996 5.029671,-0.61362 2.008982,-0.15548 4.014675,-0.33489 6.028443,-0.42537 2.094855,-0.10171 4.151539,0.2419 6.203065,0.58833 1.070799,0.19543 2.150443,0.32922 3.234578,0.43293 2.433927,0.22904 2.773376,-3.05402 0.33945,-3.28291 v 0 c -0.997981,-0.0944 -1.991241,-0.21916 -2.976724,-0.39931 -2.301753,-0.38886 -4.61342,-0.74934 -6.962398,-0.63425 -2.070089,0.0939 -4.132168,0.27551 -6.197295,0.43686 -1.705441,0.15988 -3.401504,0.39938 -5.099211,0.62068 -2.460775,0.28011 -4.941936,0.39275 -7.403489,0.037 -3.623778,-0.43286 -7.303502,-0.88607 -10.722608,-2.17048 -0.441567,-0.19213 -0.893922,-0.36331 -1.324647,-0.57672 -0.520049,-0.25772 -2.135531,-1.21595 -2.610494,-1.49153 -1.47556,-0.85605 -2.947469,-1.71824 -4.438603,-2.54955 -0.772503,-0.436 -1.749029,-0.95576 -2.481776,-1.47769 -1.340691,-0.95497 -2.505287,-2.13274 -3.857044,-3.077 -1.778051,-1.28674 -3.610305,-2.51882 -5.161777,-4.06112 -1.757273,-1.75467 -3.597371,-3.43768 -5.24465,-5.28902 -1.4013,-1.573 -2.748943,-3.20421 -3.806027,-5.0119 -0.850457,-1.56124 -1.614652,-3.16213 -2.478933,-4.71672 -0.92047,-1.88684 -1.890794,-3.75173 -2.893041,-5.6001 -0.995008,-1.73595 -1.9483,-3.49229 -2.942364,-5.22864 -0.972465,-2.00517 -1.964561,-4.00622 -3.094537,-5.93572 -0.99893,-1.61588 -2.094365,-3.1891 -2.8179,-4.94411 -0.929935,-2.12816 -1.8259196,-4.26992 -2.8062469,-6.37774 -1.5396297,-3.4839 -3.32358,-7.09229 -4.3541504,-10.74128 -1.1029862,-3.77369 -1.7051261,-6.48232 -2.9914318,-10.21386 -0.82512008,-2.44273 0.3975679,-6.1384 -0.1690494,-8.64766 -0.1899866,-1.8141 -0.075438,-3.63121 0.00716,-5.44399 0.047484,-1.04212 0.2040841,-2.0766 0.280509,-3.11699 0.059502,-0.81002 0.1056536,-1.62113 0.1385695,-2.43267 0.025232,-0.6221 0.00161,-1.24621 0.045151,-1.8673 0.076659,-1.09363 0.1660603,-2.19167 0.3799676,-3.26691 0.4770492,-2.39797 1.2065394,-4.74465 2.0056141,-7.055341 0.9460712,-2.735761 1.9917509,-5.449846 3.2929713,-8.035627 1.658029,-3.29483 3.6616364,-6.302234 5.7225294,-9.470869 0.562222,-0.771555 0.711024,-1.010151 1.335073,-1.731547 1.093469,-1.264074 2.359656,-2.382386 3.472725,-3.630376 1.778005,-1.918504 3.648889,-3.75429 5.513633,-5.595776 1.86642,-1.750068 3.750022,-3.488141 5.833215,-5.006631 1.580567,-1.256626 3.256042,-2.399356 4.996352,-3.446913 0.21216,-0.112702 0.416305,-0.240576 0.636531,-0.338518 1.305042,-0.579556 2.140438,-1.564549 3.504263,-1.970198 1.991266,-0.391313 3.363458,-1.296467 5.354675,-1.6921 2.674647,-0.543107 7.492807,-3.020447 10.161365,-3.593245 4.21519,-0.881758 6.992073,-1.170236 11.139351,-2.315802 0.650668,-0.193119 1.306884,-0.370156 1.951967,-0.57972 2.037498,-0.661812 4.521505,-0.582745 6.49662,-1.388935 2.484865,-1.07313 5.185072,0.09799 7.842318,-0.489049 2.10377,-0.280782 4.219027,-0.397015 6.343693,-0.413657 2.440416,0.05867 4.893078,0.119637 7.305983,0.502275 2.009873,0.335981 3.987455,0.770827 5.854453,1.58473 1.81127,0.669094 3.60206,1.378594 5.36365,2.158913 1.51098,0.694901 3.03174,1.359809 4.30632,2.429807 1.84037,1.349232 3.66644,2.725848 5.66791,3.85642 2.28785,1.331269 4.55946,2.686134 6.85844,3.999345 2.12977,1.146784 3.83019,-1.725879 1.70045,-2.872664 z"
       sodipodi:nodetypes="ccccccccccccccccccccaaaacccccccccccccccsccccccccccsscccccccccscccccccccccccaaaaaaaccccccccccccccccccccccc" />
    <path
       style="fill:#ffffff;stroke-width:0.892835"
       id="path2955"
       d="m 127.22482,59.076158 c 0.38746,-1.336214 0.54318,-2.722881 0.95516,-4.052076 0.26099,-1.971248 0.46398,-3.047526 0.95475,-4.556788 0.62015,-2.673213 1.29793,-2.11706 1.30932,-3.29357 0.0103,-0.917021 -0.15305,-1.195099 -0.42689,-2.045613 -1.25369,-1.36457 -2.7506,-2.714091 -3.40062,-4.237512 -2.34948,-2.057469 -3.41791,-5.342853 -4.20724,-8.004412 -0.86176,-5.073511 -0.39991,-4.23879 -2.16205,-5.652511 -1.43543,-0.883601 -2.93185,-1.686627 -4.44811,-2.439364 -2.24867,-0.498912 -3.71373,-0.907478 -5.5663,-1.29978 -1.73206,-0.226402 -3.04875,-0.313589 -4.95167,-1.273153 -1.79263,-0.05884 -1.84719,-0.106222 -3.88067,-0.565879 -1.69083,-0.27551 -2.063039,-0.358457 -3.106705,0.220801 -0.54637,0.30352 -1.184511,1.018654 -1.622992,1.473836 -3.158934,8.497704 -2.10636,8.593827 -6.245712,8.828488 -1.0664,0.02306 -7.772678,0.504566 -8.671398,-0.01985 C 80.45177,31.266044 80.420365,28.910974 80.573439,27.001544 79.839263,26.223564 80.19899,25.181963 79.78493,24.21805 79.383094,23.166506 79.233468,22.419937 79.030712,21.323014 77.171983,19.623498 77.868874,20.413786 75.680963,19.847427 74.44145,20.049444 73.246574,19.736396 71.993199,19.689599 70.3998,19.608209 69.082222,19.50995 67.486906,19.480296 66.033539,19.284211 64.26242,19.350313 62.798318,19.239188 c -1.503226,-0.09721 -2.964033,-0.155582 -4.47006,-0.163174 -1.60914,-0.0402 -2.874325,-0.07211 -4.46872,0.09099 -1.789242,-0.179101 -2.717272,0.210853 -4.213642,0.744274 -1.806373,1.886601 -0.599592,3.204853 0.844092,5.070205 0.79437,1.05909 1.519616,2.163001 2.364097,3.187289 0.481396,0.773598 0.945605,1.569901 1.287367,2.411191 1.045111,3.060051 2.285533,4.121639 0.885806,5.168696 -1.299582,0.103149 -2.736455,0.872912 -4.03947,0.871292 -1.423369,-0.147969 -5.0675,1.704098 -6.371329,1.157598 -1.464285,-0.492981 -4.164061,0.239023 -5.561448,-0.39168 -1.137917,-0.604765 -1.481606,-8.849731 -2.531396,-9.576003 -0.770024,-0.52831 -1.537482,-1.049435 -2.157857,-1.740083 -0.922351,-1.031935 -2.300686,-1.381921 -3.67059,-1.158286 -0.278328,0.04548 -0.545675,0.13874 -0.818517,0.208278 -1.79426,0.662735 -3.353512,1.766118 -5.039935,2.631825 -1.36524,0.709334 -2.796163,1.280585 -4.139308,2.031476 -1.631462,1.035264 -3.394392,1.850681 -5.173469,2.623949 -1.99451,0.907626 -3.851132,2.046602 -5.6985564,3.194868 -1.44037,0.815978 -2.8392837,1.705711 -4.3236501,2.448658 -1.121452,0.587235 -2.2196124,1.214049 -3.3461579,1.792713 -1.52140255,0.822931 -1.7839663,1.734448 -0.9563361,3.272612 0.1019727,0.189494 0.7779052,0.666162 0.9896699,0.82257 0.8999266,0.583377 1.737869,0.997002 2.4287396,1.811792 0.7554453,1.070494 1.3377714,2.260417 1.788119,3.476376 0.3807932,1.021324 0.487857,2.093858 0.5407651,3.168076 0.09384,0.913758 -0.3117753,1.710523 -0.790478,2.471267 -0.4875457,0.7182 -1.2509907,1.195986 -2.0449322,1.565749 -0.7400098,0.26463 -1.5241239,0.37813 -2.2826317,0.582322 -1.11664457,0.326259 -2.27593112,0.510612 -3.4289778,0.677763 -0.7056639,0.0032 -1.6654933,0.379021 -2.3241203,0.0702 -0.3431424,-0.177624 -1.0318512,-0.339139 -1.1757145,-0.689094 -0.4566759,-0.536251 -0.8742571,-1.101569 -1.3119239,-1.652454 -0.5889359,-0.79871 -1.1696124,-1.608985 -1.8359933,-2.35111 -0.6998216,-0.55619 -1.4608163,-1.665603 -2.3698984,-1.894083 -0.459636,-0.115355 -0.945985,-0.08964 -1.418977,-0.134794 -0.328982,0.09195 -0.672329,0.145988 -0.986952,0.276168 -1.572908,0.649421 -2.839982,1.987545 -3.972983,3.168966 -1.200268,1.389765 -2.064076,3.000664 -2.940423,4.585427 -0.786193,1.641347 -1.60658,3.2706 -2.320309,4.942235 -0.701714,1.5148 -1.256163,3.08615 -1.943706,4.606188 -0.583626,1.399488 -1.324624,2.727595 -2.013484,4.080417 -0.72704,1.222351 -1.315153,2.505934 -1.923954,3.78319 -0.428241,1.001188 -0.92409,1.977264 -1.304299,2.99595 -0.02765,0.330346 -0.15476,0.666789 -0.083,0.991004 0.402917,1.820296 1.971446,2.053161 3.555545,2.389834 1.479948,0.279134 2.920951,0.755801 4.307449,1.318253 1.320151,0.430068 2.493313,1.127276 3.683243,1.801016 1.101405,0.676742 1.859638,1.647017 2.583556,2.662507 0.633195,0.897476 0.811352,1.92829 0.928617,2.979473 -0.03007,0.742453 0.265095,1.615346 -0.06904,2.317362 -0.560256,1.018984 -1.42512,1.848179 -2.303261,2.621706 -0.711125,0.569863 -1.568697,0.848235 -2.456922,1.05095 -0.961464,0.173013 -1.944807,0.163134 -2.919223,0.171699 -1.353842,0.0038 -2.707693,-0.0013 -4.061536,-0.0038 -1.699134,-0.09254 -3.096481,0.766216 -3.771301,2.247519 -0.133852,0.29397 -0.198059,0.61225 -0.29709,0.91838 -0.244224,1.47717 -0.525661,2.94932 -0.74068,4.43172 -0.212158,1.5465 -0.227983,3.10876 -0.247402,4.66584 -0.01319,1.56786 -0.0083,3.13577 -0.0065,4.70366 -0.01103,1.41734 -0.01771,2.8307 0.101596,4.24392 0.04755,1.28231 0.27553,2.54643 0.403083,3.82153 0.166037,1.23958 0.312951,2.48088 0.402177,3.72774 0.06921,1.05807 0.371851,2.06431 0.685231,3.07379 0.354712,0.81709 0.488181,1.73243 1.230668,2.34796 0.231751,0.19212 0.536623,0.28472 0.80494,0.42718 1.310825,0.33053 2.648768,0.0524 3.954184,-0.1641 1.169451,-0.22643 2.352505,-0.33537 3.542845,-0.38085 1.204202,-0.0581 2.315718,-0.0666 3.469609,0.28804 1.388799,0.56579 2.511717,1.53721 3.525822,2.58184 1.036203,1.24765 1.56428,2.76054 2.04868,4.26126 0.356918,1.2622 0.493887,2.56421 0.564489,3.86555 0.03076,0.78958 0.326158,6.56132 -0.173699,7.39226 -0.905967,0.83168 -1.989132,1.37992 -3.025305,1.88406 -1.135316,0.53838 -2.255483,0.89362 -3.361554,1.19996 -1.101855,0.28739 -2.177579,0.50972 -3.302792,0.90905 -1.356775,0.65064 -2.687955,1.40736 -3.534814,2.72547 -0.209119,0.32545 -0.265423,0.64723 -0.398157,0.97087 0.007,0.36264 -0.02473,0.74405 0.02087,1.08795 0.0366,0.27643 0.142643,0.51427 0.224751,0.76484 0.342609,1.04554 0.823873,1.99327 1.32103,2.93566 0.466236,0.72623 0.727489,1.59544 1.139718,2.35842 0.1153,0.21325 0.658021,1.05806 0.790791,1.26656 0.709465,1.34769 1.600797,2.56178 2.303289,3.91393 0.747621,1.40368 1.548815,2.76777 2.288354,4.17717 0.726439,1.38482 1.190685,2.94392 1.613452,4.52112 0.216892,1.03166 0.575375,1.97953 0.661115,3.08233 0.223833,0.60229 -0.298168,3.28739 0.185538,3.62839 0.32835,0.23152 0.786545,0.32304 1.179818,0.48453 0.587697,-0.17827 1.173529,-0.29193 1.76323,-0.53835 0.379767,-0.15908 1.3469713,-0.87224 1.7415197,-1.13061 0.7282394,-0.47674 1.4837587,-0.86389 2.2390654,-1.25698 1.2019226,-0.51784 4.6112889,-1.33613 5.7050914,-1.42494 1.19292633,0.11007 11.1152572,1.05233 12.0086615,1.94524 0.763694,0.90736 1.545377,1.81331 2.100762,2.86348 0.07071,0.1407 0.138154,0.28298 0.212195,0.42207 0.167566,0.31456 0.411982,0.71481 0.558651,1.04638 0.256488,0.57989 0.398284,1.21958 0.577243,1.82788 0.384951,1.2833 0.583684,2.61699 0.742925,3.95497 0.126768,1.15298 -1.434537,8.28044 -1.655206,9.43111 -0.103804,0.29518 -0.614985,2.04746 -1.022238,2.16908 -0.388707,0.0643 -1.502735,0.71664 -1.870127,0.99783 -0.308787,0.23628 0.830545,-0.42599 0.566013,-0.18119 -0.216893,0.41604 -0.527374,0.83345 -0.650689,1.24808 -0.3823748,1.28579 -4.9485842,4.4811 -4.6077283,5.39997 0.3278613,0.95733 0.8615251,1.77295 1.3474805,2.62193 0.5997958,0.96266 1.2330763,1.90133 1.8457248,2.85511 0.5435477,0.54752 0.7911592,1.30672 1.156233,1.98363 0.202734,0.37588 0.47947,0.75347 0.722207,1.10156 0.657474,0.89366 1.315593,1.77985 2.135135,2.53717 0.697339,0.62055 1.329938,1.30437 2.068422,1.88584 0.6199,0.42511 1.209074,0.88157 1.846146,1.28923 0.606915,0.52103 1.301049,0.96228 1.987636,1.40486 0.684466,0.40531 1.244653,0.9355 1.91797,1.35119 0.302964,0.0474 0.5632,0.17796 0.908887,0.14229 1.688647,-0.17352 3.285731,-1.77847 4.546416,-3.09969 0.998108,-1.12844 1.705072,-2.35182 2.673405,-3.48795 0.961781,-1.17297 1.237043,-1.37179 2.545237,-1.89785 1.498092,-0.56591 2.703706,-0.66791 3.925687,-0.50508 0.97056,0.23999 8.793803,1.23559 9.643253,1.95821 0.637638,0.59848 -0.685935,6.13752 -0.405623,6.85684 0.287784,0.56657 0.464032,1.19269 0.487218,1.86032 0.176638,0.73963 0.260785,1.50237 0.326201,2.27561 0.16428,0.683 0.09917,1.40575 -0.0094,2.1435 -0.01839,0.0504 -0.0065,0.16882 -0.0551,0.15193 -0.05173,-0.0191 0.03792,-0.11347 0.02444,-0.16269 -0.01714,-0.0627 -0.622667,0.57986 -0.701672,0.66481 -0.147993,0.23487 -0.34789,0.45827 -0.4435,0.70425 -0.42492,1.09343 -0.04112,1.86683 0.940145,2.30612 0.06399,0.0284 1.535418,0.34791 1.754213,0.39584 1.636304,0.3739 3.345069,0.58299 5.091796,0.69163 1.385376,0.0714 2.793615,0.0653 4.200359,0.0602 1.987049,-0.009 3.974327,-0.0198 5.962099,-0.0321 1.883831,-0.0561 3.720855,0.0535 5.560963,0.1503 1.287381,0.0757 2.592977,0.0918 3.899968,0.10025 1.285054,0.11135 2.557121,-0.23066 3.855026,-0.74255 1.663922,-0.58906 2.635164,-0.86082 2.918337,-2.80557 0.05296,-0.36429 -0.213958,-0.64605 -0.320943,-0.96907 -0.548716,-0.87633 -1.217138,-1.68756 -1.364997,-2.75923 0.04673,-0.39309 0.15266,-1.17225 0.640993,-1.45738 0.956055,-1.01163 2.06817,-3.59099 3.160485,-4.4827 0.643985,-0.55201 2.331701,-3.62586 3.09178,-3.86587 0.70154,-0.13346 1.329304,-1.47255 2.041792,-1.47883 1.211322,0.22871 2.183127,1.39896 3.321207,1.84596 0.83408,0.41193 1.888475,0.52373 2.528156,1.21783 0.748075,0.9358 1.261201,2.02387 1.986611,2.97685 1.314617,0.87646 1.118563,1.10156 3.156362,-0.36274 0.3254,-0.23366 0.279187,-2.15899 0.279566,-2.5947 -0.07834,-1.40472 -0.424628,-2.79163 -0.895285,-4.12087 -0.501064,-1.15744 -1.259098,-2.17741 -1.795715,-3.31905 -0.399987,-0.97966 -0.472484,-2.01566 -0.522993,-3.05321 -0.03814,-1.1447 -0.03113,-2.29013 -0.02619,-3.43523 0.0034,-0.58255 0.0034,-1.16512 0.0057,-1.74769 0.0448,-2.33224 -3.413401,-2.39267 -3.458213,-0.0603 v 0 c -0.0023,0.58128 -0.0034,1.16254 -0.0057,1.74377 -0.0057,1.237 -0.01264,2.47441 0.03285,3.71083 0.07754,1.44985 0.241245,2.89031 0.842742,4.2418 0.503178,1.04393 1.140194,2.00793 1.672767,3.03508 0.368558,0.97892 0.594559,2.02341 0.691856,3.05815 3.11e-4,0.13583 -0.05675,1.11509 -0.01264,1.1792 0.03596,0.0534 0.05675,-0.13073 0.119457,-0.15225 0.684837,-0.232 1.362978,-0.56102 2.088779,-0.59576 0.251629,-0.0135 0.383055,0.31208 0.574571,0.46837 -0.270307,-0.31143 -0.09178,-0.0899 -0.468693,-0.70469 -0.569287,-0.92862 -1.129763,-1.88604 -1.902283,-2.67689 -0.219545,-0.18685 -0.424834,-0.39042 -0.658658,-0.56093 -0.864522,-0.63053 -1.967726,-0.8619 -2.933554,-1.3051 -1.55516,-0.60471 -3.148941,-1.20989 -4.836618,-1.3483 -1.143847,0.0103 -1.126441,1.1388 -2.338858,1.48917 -1.455496,0.52704 -3.380094,4.18981 -4.49277,5.24764 -1.240716,1.01596 -2.49988,2.01316 -3.587626,3.16298 -0.220445,0.24864 -0.646302,1.22467 -0.845725,1.48426 -0.888721,1.15677 -1.10944,2.48963 -1.051229,3.67877 0.248993,1.24635 0.793747,2.33284 1.550189,3.32384 0.579863,-0.50961 -1.696579,1.50385 0.793071,-1.1187 0.128111,-0.13495 0.34693,-0.15715 0.516409,-0.24511 0.06978,-0.0362 -0.143108,0.0645 -0.216414,0.0893 -1.253392,0.42845 -0.0073,-0.037 -1.072001,0.3697 -0.879389,0.35194 -1.300557,0.50897 -2.205779,0.42325 -1.248479,-0.008 -2.495779,-0.0227 -3.725484,-0.0951 -1.912342,-0.10072 -3.822696,-0.21128 -5.779832,-0.15549 -1.98538,0.009 -3.971023,0.0198 -5.957142,0.0321 -1.324097,0.005 -2.649883,0.012 -3.954509,-0.053 -1.567028,-0.0944 -3.097603,-0.28399 -4.564247,-0.62006 -0.275788,-0.0599 -0.54582,-0.13159 -0.827401,-0.17941 -0.09736,-0.016 -0.279668,-0.10664 -0.306116,-0.0119 -0.0389,0.13885 0.175724,0.19337 0.221885,0.31351 0.15655,0.40651 0.105762,0.86307 -0.307208,1.25907 0.237973,-0.29012 0.54573,-0.51643 0.801745,-0.79893 0.517092,-0.57058 0.829712,-1.23291 0.932462,-1.88805 0.129676,-0.942 0.203699,-1.87879 0.01807,-2.75725 -0.06676,-0.75538 -0.129543,-1.51293 -0.321914,-2.22936 -0.07912,-0.9304 -0.270768,-1.83178 -0.682673,-2.63428 -0.432602,-0.96412 0.0025,-2.7345 -0.73438,-3.50747 -0.961589,-5.54047 -2.348192,-6.11043 -3.831998,-6.69158 -2.010724,-0.67207 -9.747399,-0.31327 -12.08173,0.58389 -0.412264,0.18258 -0.826856,0.33885 -1.236674,0.5472 -1.52353,0.77481 -2.74462,1.90335 -3.811682,3.20916 -0.876454,1.05131 -1.61651,2.13588 -2.423932,3.21097 -0.375022,0.40826 -0.377983,0.42712 -0.798062,0.8188 -0.1204,0.11214 -0.275812,0.20204 -0.370122,0.32864 -0.03035,0.0408 0.07645,0.0114 0.118586,0.009 0.651756,-0.0259 0.325407,-0.099 0.792599,0.11449 -0.682843,-0.37224 -1.168842,-0.9585 -1.865351,-1.31936 -0.690636,-0.44429 -1.380431,-0.89301 -1.997276,-1.41083 -0.598653,-0.37581 -1.143429,-0.80814 -1.721832,-1.20441 -0.720966,-0.52766 -1.275338,-1.2234 -1.954292,-1.7923 -0.736982,-0.6768 -1.308606,-1.48657 -1.90545,-2.28159 -0.08126,-0.11651 -0.488144,-0.68871 -0.568016,-0.83864 -0.399867,-0.75075 -0.697738,-1.57493 -1.275476,-2.19601 -0.597647,-0.93083 -1.21781,-1.84517 -1.8019,-2.7853 -0.440699,-0.77068 4.924006,-4.14067 4.391067,-4.88874 -0.294113,-0.38774 -0.572271,-0.78966 -0.876114,-1.16975 -0.02721,-0.0337 -0.04109,-0.13535 -0.09155,-0.0927 -0.299295,0.25106 0.260584,0.82581 -0.588701,0.92537 -0.104994,0.0708 -0.20691,0.14811 -0.31502,0.21197 -0.03088,0.0198 0.04896,-0.0548 0.0797,-0.073 0.142451,-0.0848 0.289539,-0.15635 0.434497,-0.23361 0.889896,-0.4753 1.719862,-0.94094 2.458583,-1.68858 0.225902,-0.27868 0.480088,-0.54692 0.67766,-0.83577 0.863155,-1.2619 -0.08782,-1.80007 0.309093,-3.06508 0.236418,-1.23113 1.482902,-7.64708 1.343874,-8.88001 -0.18254,-1.50573 -0.417268,-3.00452 -0.852304,-4.44841 -0.399937,-1.35655 -0.855229,-2.67301 -1.598232,-3.87756 -0.727181,-1.30689 -1.663345,-2.48051 -2.671462,-3.58908 -1.455058,-1.34295 -10.929764,-3.0899 -13.02539623,-2.93195 -0.36354683,0.0761 -0.71784548,0.12657 -1.09068605,0.22863 -1.50311712,0.41166 -5.23656842,1.23868 -6.73366842,1.9046 -0.9983628,0.52272 -1.9749099,1.04847 -2.9377043,1.67751 -0.197302,0.12909 -0.388933,0.26826 -0.581985,0.40455 -0.109869,0.0778 -0.396071,0.18663 -0.326654,0.2376 0.142755,0.10451 0.439071,0.004 0.65863,0.006 0.139531,0.13688 0.26806,0.28349 0.418588,0.41068 0.05002,0.0422 -0.09228,-0.0934 -0.116075,-0.15518 -0.06616,-0.1714 -0.09903,-0.36157 -0.152278,-0.54031 -0.07753,-0.26027 -0.254952,-0.81431 -0.34969,-1.06341 -0.05335,-0.14023 -0.117295,-0.27412 -0.175947,-0.41118 -0.444814,-1.05802 -1.093743,-1.97115 -1.675658,-2.93734 -0.93942,-1.44842 0.90625,-4.76323 0.122052,-6.24793 -0.739185,-1.40909 -1.54094,-2.77229 -2.287704,-4.17598 -0.729597,-1.38435 -1.629606,-2.64363 -2.36822,-4.02195 -0.231034,-0.36311 -0.485445,-0.70931 -0.691062,-1.09082 -0.424215,-0.7871 -0.699046,-1.67945 -1.176702,-2.43019 -0.345698,-0.65568 -0.690699,-1.30727 -0.965977,-2.01082 -0.08348,-0.21351 -0.161032,-0.43065 -0.236462,-0.64919 -0.05747,-0.16631 -0.06517,-0.36649 -0.162119,-0.50561 -0.0177,-0.0233 -0.08407,0.0615 -0.125989,0.092 -0.301438,0.40193 -0.164505,0.25726 -0.717539,0.72685 -0.01521,0.0134 -0.0049,-0.0482 0.228838,-0.19391 0.443779,-0.27663 0.250032,-0.0968 0.428223,-0.27214 0.34566,-0.17612 0.115295,-0.0734 0.678585,-0.21142 0.710528,-0.17443 1.420022,-0.3446 2.135001,-0.53531 1.445476,-0.40326 2.911305,-0.88505 4.393163,-1.5977 2.292068,-1.14275 4.5676851,-2.49682 6.0542562,-4.65095 0.6962172,-1.25999 0.4513238,-6.51035 0.351397,-7.71915 -0.091611,-1.57224 -0.2737351,-3.14394 -0.7275438,-4.66355 -0.6548603,-1.96932 -1.3987195,-3.92867 -2.8381354,-5.51773 -1.444473,-1.44346 -3.035467,-2.7618 -5.028643,-3.45954 -1.543204,-0.43073 -3.002769,-0.52511 -4.605023,-0.42494 -1.339915,0.0533 -2.672823,0.17401 -3.989768,0.42602 -0.566917,0.0944 -1.139554,0.21455 -1.714337,0.25904 -0.0435,0.003 -0.502469,0.0135 -0.509571,0.0231 -0.02523,0.0331 0.07333,0.0395 0.110016,0.0593 0.534245,0.41844 0.120047,0.0298 0.517947,0.62362 0.04144,0.0617 -0.0639,-0.13346 -0.0896,-0.20235 -0.357982,-0.95996 0.06354,0.0801 -0.304588,-0.84082 -0.03473,-0.0871 -0.07288,-0.1727 -0.109293,-0.25904 -0.243429,-0.78206 -0.494432,-1.55115 -0.541954,-2.37339 -0.09426,-1.27656 -0.241251,-2.54802 -0.411421,-3.81735 -0.130058,-1.25655 -0.348284,-2.5031 -0.39715,-3.76697 -0.111373,-1.32729 -0.09032,-2.65543 -0.08649,-3.98643 -0.0018,-1.51962 -0.0065,-3.03926 0.0056,-4.5588 0.01663,-1.42108 0.02454,-2.84722 0.209359,-4.25956 0.19153,-1.33984 0.466258,-2.66587 0.642639,-4.00717 0.102805,-0.48968 0.083,-0.2343 0.07398,-0.53427 -9.17e-4,-0.0329 -0.03041,-0.2465 0.03676,-0.25442 0.207907,-0.0231 0.419036,7.9e-4 0.628557,9e-4 1.367051,0.003 2.73412,0.0102 4.101182,0.004 1.239041,-0.0102 2.488275,-0.0133 3.70544,-0.26529 1.452824,-0.34729 2.832321,-0.865581 3.974125,-1.82286 1.321598,-1.176911 2.59163,-2.454465 3.272508,-4.081311 0.07999,-0.296598 0.185345,-0.587693 0.240045,-0.889336 0.16759,-0.923741 -0.02937,-1.892798 -0.04462,-2.818155 -0.193837,-1.579158 -0.564796,-3.114191 -1.522687,-4.449778 -1.011005,-1.406112 -2.132403,-2.70838 -3.671468,-3.621413 -1.324978,-0.749538 -2.641544,-1.511371 -4.104748,-2.001221 -1.579946,-0.627439 -3.209253,-1.177302 -4.891522,-1.493807 -0.212642,-0.04481 -0.425554,-0.08898 -0.637918,-0.135114 -1.101672,-0.239587 0.134684,0.134133 -0.319136,1.080906 0.30635,-0.928355 0.820198,-1.789581 1.177321,-2.70123 0.597201,-1.252472 1.168272,-2.512954 1.886531,-3.709435 0.710541,-1.39728 1.475653,-2.768986 2.079375,-4.213657 0.696521,-1.544227 1.267866,-3.136075 1.975352,-4.676217 0.657855,-1.573954 1.450005,-3.094553 2.170407,-4.642902 0.741253,-1.342736 1.464077,-2.710226 2.438689,-3.916362 0.82368,-0.871806 1.70953,-1.6804 2.684462,-2.394449 -0.135028,-0.06986 -0.279053,-0.125884 -0.40514,-0.209596 -0.0177,-0.0132 0.04288,-0.02965 0.06099,-0.01976 0.103581,0.06195 0.192773,0.144345 0.281921,0.224097 0.247645,0.22179 0.483416,0.45551 0.728518,0.679937 0.09433,0.08634 0.186034,0.175324 0.279052,0.262986 0.640767,0.656834 1.1095256,1.465035 1.6821311,2.175029 0.47743,0.593493 0.9264163,1.207554 1.4255929,1.784869 0.153044,0.158182 0.2916656,0.330346 0.4591135,0.474722 0.6577953,0.567165 1.5243468,0.907827 2.3345783,1.217047 0.240769,0.06163 0.4767867,0.143686 0.7223298,0.184552 1.0355133,0.172687 2.0904137,-0.0547 3.1200157,-0.150933 1.30814159,-0.193408 2.6216737,-0.4063 3.8888752,-0.776687 C 3.751273,59.882096 4.7820881,59.82772 5.6771981,59.375174 7.0358499,58.693918 8.3038073,57.847357 9.1190244,56.572014 9.9616363,55.192529 10.532553,53.812847 10.399773,52.180333 10.322153,50.782691 10.148258,49.39065 9.6447136,48.06584 9.0334694,46.487504 8.2859974,44.929894 7.2223793,43.57905 7.0204156,43.362203 6.8310787,43.134183 6.6164859,42.928772 5.9298253,42.271475 5.0745969,41.837385 4.2835732,41.313261 c -0.7004097,-0.510941 -0.073151,0.0025 -0.1528269,0.837563 -0.051934,0.544558 -1.1262341,1.0466 -0.3461532,0.604701 1.1170018,-0.575601 2.2099757,-1.191769 3.3197819,-1.779465 1.5729736,-0.796765 3.06978,-1.722253 4.594454,-2.598737 1.704344,-1.059256 3.41151,-2.117423 5.248144,-2.961511 1.890209,-0.822009 3.764409,-1.688773 5.500341,-2.784937 1.294711,-0.743444 2.707388,-1.257682 4.020665,-1.968168 1.469558,-0.760118 2.852947,-1.665306 4.354014,-2.367949 0.07938,-0.02637 0.457937,-0.203336 0.592262,-0.206962 0.04788,-0.0016 0.106074,0.04548 0.142853,0.01643 0.02937,-0.02306 -0.06071,-0.128188 -0.03041,-0.10578 0.107934,0.07943 0.184445,0.191472 0.27667,0.287042 0.808257,0.847778 1.727722,1.562253 2.71527,2.213026 1.2254,0.838124 0.357522,7.460461 1.71041,8.118088 1.43167,0.634657 2.288645,1.72695 3.955608,1.998174 1.666962,0.271224 3.588798,-0.507049 5.641669,-0.82483 2.052872,-0.31778 4.486284,-0.530551 6.67376,-1.090594 2.187475,-0.560043 4.737708,-1.751226 6.399028,-2.258492 0.811668,-0.247834 -0.980324,-2.008833 -1.405315,-3.04682 -0.424991,-1.037987 -0.753891,-1.940409 -1.141443,-3.175515 -0.488155,-1.11472 -1.211313,-2.647837 -1.782696,-3.986731 -0.456435,-1.069544 -0.526679,-2.213291 -1.314144,-3.231615 -0.306216,-0.394874 -0.587673,-0.741169 -0.861378,-1.155684 -0.174566,-0.264303 -0.294613,-0.583509 -0.379095,-0.517171 -0.348482,0.27386 0.499504,1.456798 -0.926377,0.942362 -0.0768,-0.0026 -0.303271,0.01643 -0.230191,-0.0066 0.166074,-0.05108 0.985561,-0.0669 1.045124,-0.06986 0.791098,-0.03592 1.58169,-0.08502 2.369933,-0.159181 1.466903,-0.150933 2.928637,-0.422587 4.408243,-0.395727 1.422339,0.0066 2.845618,0.01643 4.265428,0.106776 1.531741,0.113034 3.040353,0.372926 4.566925,0.527486 1.5743,0.02965 3.147912,0.08108 4.720351,0.161484 1.449391,0.05076 2.056873,0.267252 3.490163,0.03879 0.744758,0.546154 1.580832,-0.141524 2.412756,3.10698 0.60784,1.355725 0.660696,2.445934 0.816701,4.117166 0.249491,2.00331 -0.385712,3.173226 1.190906,4.181004 14.208322,-0.360282 14.215479,-0.754386 14.444588,-0.986999 1.234492,-1.442659 2.323252,-4.449737 3.466823,-5.959001 1.528809,-3.055578 1.721304,-3.387568 6.819355,-1.882003 1.68813,0.303191 2.97168,0.591095 4.8604,1.163238 3.46977,0.930267 5.63444,1.365682 8.60044,3.057653 0.71885,0.501549 1.41523,0.814088 1.58105,1.728208 3.07209,7.098421 3.86404,6.823373 4.03774,9.517297 0.7869,1.208181 1.17151,0.906487 2.05536,2.630586 0.26121,0.696603 2.79643,2.649601 1.54555,4.717648 -0.14691,0.767402 -0.60498,3.078438 -0.7411,3.851575 -2.24185,6.366387 -1.05655,11.723482 0.41122,7.361858 z"
       sodipodi:nodetypes="ccccccccccccccccccccccccccccccccccccccccccccccccccccccccccccccccccccccccccccccccccccccscccccccccccsccscccccccsccccccccsccccccscccscccccccccccccccccscccccccccccccccccccccccccccsscccccccccscccccccsccssccccccccccccscccccccccccsccccccccccccccccccsccccccccccccccsscccccsccccccsccccccccccccccccccccccccccccccccccccccccccccccccccccccsccccccccccccccccccccccccczzzszcaccccccccccccccccccccccccccc" />
    <path
       style="fill:#ffffff;stroke-width:0.892835"
       id="path2957"
       d="m 152.41139,73.016096 c 0.81842,1.944835 1.1906,3.989722 1.40262,6.06315 0.23082,3.678987 0.34449,7.375636 0.95744,11.021434 0.13861,0.824941 0.32205,1.642503 0.48299,2.463752 0.78401,3.156675 1.66951,6.306694 2.9088,9.332768 0.66514,1.62397 0.86945,1.94041 1.66047,3.47274 1.59589,3.02252 3.56758,5.84147 5.36677,8.7538 1.99917,3.25579 4.11027,6.44226 6.28917,9.59082 1.47206,2.11791 2.81633,4.34368 3.75378,6.73023 0.55141,1.40367 0.72988,2.17859 1.13198,3.61511 0.89818,3.37096 0.82102,6.42352 0.0523,9.81151 -0.18831,0.82942 -0.43751,1.64517 -0.65624,2.46774 -1.52097,5.09186 -2.96091,10.20409 -4.75484,15.21601 -1.167,3.4778 -3.10437,6.63144 -5.13978,9.69965 -1.56566,2.53584 -3.66018,4.66957 -5.80659,6.75564 -1.25402,1.29873 -2.72794,2.37478 -4.35042,3.22413 -0.96315,0.50419 -2.56959,1.17969 -3.54053,1.60211 -3.41941,1.4334 -6.95069,2.60767 -10.49486,3.72503 -2.21941,0.76921 -4.41497,1.59323 -6.56223,2.52924 -1.6075,0.65155 -2.9847,1.68616 -4.48085,2.52443 -1.4263,0.66714 -2.55616,1.7859 -3.70707,2.80678 -1.42046,1.18027 -2.68688,2.50971 -4.07868,3.71948 -1.50577,1.03546 -2.99706,2.07784 -4.43088,3.20414 -1.77688,1.48252 -3.63666,2.87084 -5.38037,4.38881 -1.41305,1.16954 -2.50052,2.60664 -3.48292,4.11076 -1.10237,1.85151 -2.17027,3.72173 -3.3335,5.53928 -1.12063,2.04292 -2.69616,3.75848 -4.36581,5.40069 -1.74756,1.68982 -3.369728,3.49004 -4.806971,5.42711 -0.811566,1.08854 -1.515139,2.25149 -2.387656,3.29892 -0.558316,0.6702 -0.779515,0.85659 -1.414889,1.48361 -1.603671,1.48735 -2.996607,3.15981 -4.52854,4.71054 -1.279454,1.32763 -2.831559,2.30601 -4.470921,3.17397 -1.856839,0.95144 -3.874981,1.58179 -5.873426,2.20247 -2.109601,0.65315 -4.302438,0.93798 -6.491588,1.21162 -1.450673,0.21322 -2.926648,0.34147 -4.352097,0.6803 -0.420459,0.12889 -0.834431,0.27417 -1.254837,0.4028 -2.330033,0.70901 -1.278693,3.85177 1.051321,3.14275 v 0 c 0.368578,-0.11372 0.73506,-0.23236 1.09903,-0.3592 0.509478,-0.15852 0.139146,-0.0613 0.920722,-0.17037 0.994127,-0.13837 1.980934,-0.32528 2.980917,-0.42499 2.398611,-0.29989 4.798651,-0.62624 7.108859,-1.34364 2.207218,-0.68787 4.43211,-1.39124 6.478823,-2.45185 1.942718,-1.03514 3.781925,-2.21247 5.302474,-3.78359 1.521847,-1.5437 2.912015,-3.20196 4.502522,-4.68488 0.796597,-0.79281 1.000221,-0.9568 1.703507,-1.80385 0.887186,-1.06854 1.614917,-2.24564 2.434523,-3.3596 1.324867,-1.80453 2.844607,-3.46565 4.462427,-5.03737 1.84424,-1.81534 3.58436,-3.7198 4.8355,-5.96839 1.15842,-1.81084 2.23152,-3.66891 3.3198,-5.51863 0.81182,-1.25317 1.69657,-2.45937 2.87778,-3.42766 1.69786,-1.48366 3.51826,-2.83076 5.2479,-4.28062 1.47569,-1.16313 3.03071,-2.21222 4.55926,-3.30884 1.4007,-1.21776 2.67962,-2.55046 4.10508,-3.7423 0.97006,-0.86164 1.90169,-1.8353 3.11059,-2.38789 1.39197,-0.78517 2.67889,-1.74087 4.16437,-2.36879 2.03361,-0.88664 4.11224,-1.66736 6.21294,-2.39994 3.66237,-1.15481 7.31068,-2.37005 10.84299,-3.85382 1.25338,-0.54638 2.70773,-1.15138 3.9166,-1.79141 1.85824,-0.9838 3.55084,-2.23069 5.00046,-3.71227 2.3157,-2.25058 4.56524,-4.56376 6.26167,-7.29348 2.17773,-3.28487 4.24037,-6.66628 5.49457,-10.38659 1.82404,-5.09615 3.29416,-10.2924 4.83771,-15.47071 0.57217,-2.17086 0.89793,-3.12263 1.19008,-5.33177 0.38651,-2.92279 0.15523,-5.84413 -0.60023,-8.69669 -0.47112,-1.65513 -0.64323,-2.41556 -1.29254,-4.04139 -1.02486,-2.56612 -2.46704,-4.9656 -4.05313,-7.24862 -2.1468,-3.10274 -4.22646,-6.24283 -6.19582,-9.45138 -1.75762,-2.84191 -3.67982,-5.59472 -5.24346,-8.5417 -0.71343,-1.37549 -0.90652,-1.67617 -1.50706,-3.14012 -1.17376,-2.861364 -2.00899,-5.841167 -2.75625,-8.825222 -0.41631,-2.113731 -0.53161,-2.479241 -0.77963,-4.62105 -0.33067,-2.854276 -0.41944,-5.726346 -0.61529,-8.589882 -0.25327,-2.341057 -0.68363,-4.652027 -1.60273,-6.850094 -0.86383,-2.18231 -4.09973,-1.017137 -3.23591,1.165142 z" />
    <path
       style="fill:#ffffff;stroke-width:0.892835"
       id="path2959"
       d="m 67.462175,248.37731 c 3.967996,-0.007 7.93507,0.1104 11.902162,0.18291 2.783412,0.0791 5.556213,-0.0555 8.283283,-0.61556 1.528085,-0.31405 2.271588,-0.55677 3.741225,-0.97948 2.064242,-0.69537 4.138145,-1.38415 6.120817,-2.27539 0.47671,-0.21421 0.943588,-0.44796 1.415383,-0.67197 0.562107,-0.24914 1.124265,-0.49838 1.686395,-0.74758 3.52347,-1.49412 7.26506,-2.50734 10.71475,-4.1642 0.54733,-0.26297 1.07175,-0.56709 1.60765,-0.85065 2.37196,-1.30866 4.16639,-3.24864 5.99149,-5.14972 1.73759,-1.71948 3.47089,-3.44346 5.24023,-5.13342 1.8072,-1.72639 3.63831,-3.4299 5.41246,-5.18752 1.68539,-1.5835 3.23129,-3.29521 4.92923,-4.86614 1.60069,-1.58525 3.16887,-3.19969 4.77011,-4.78454 1.58564,-1.75719 3.40579,-3.27538 5.26331,-4.75978 2.05801,-1.63296 4.06401,-3.32238 6.00295,-5.08279 1.41657,-1.09895 2.62292,-2.44391 4.07217,-3.50507 0.72904,-0.53376 2.01724,-1.28277 2.77345,-1.73769 0.58863,-0.31737 1.17187,-0.64405 1.76586,-0.95216 0.62944,-0.3266 1.27665,-0.62121 1.904,-0.95133 2.95129,-1.55283 5.77498,-3.31594 8.55848,-5.12418 3.92952,-2.5819 7.53531,-5.54746 10.89559,-8.77004 3.04641,-2.85239 5.38129,-6.24585 7.59778,-9.69738 2.55088,-3.8025 4.24161,-8.03561 5.89407,-12.2429 1.23661,-3.41172 2.42379,-6.85853 3.36058,-10.35911 0.55542,-2.07553 0.64979,-2.75887 1.05173,-4.84245 0.62971,-4.0687 0.96053,-8.20006 0.72315,-12.3132 -0.0542,-0.93819 -0.16717,-1.8724 -0.25087,-2.80861 -0.62813,-4.60876 -1.72555,-9.18983 -3.58845,-13.49642 -0.31341,-0.7244 -0.67769,-1.42773 -1.01655,-2.14161 -1.21157,-2.34139 -2.59872,-4.60023 -4.2833,-6.66238 -0.9022,-1.10438 -1.44071,-1.65018 -2.41298,-2.69586 -2.08713,-2.1753 -4.29022,-4.24516 -6.48561,-6.320039 -1.85039,-1.760912 -3.73278,-3.491831 -5.54481,-5.288861 -2.10726,-2.379649 -4.21373,-4.760121 -6.30573,-7.152097 -1.73214,-1.862876 -3.40232,-3.776435 -5.07937,-5.684261 -1.37237,-1.51246 -2.52809,-3.182809 -3.78518,-4.779369 -1.1198,-1.403609 -2.16423,-2.871445 -3.0801,-4.404436 -1.24131,-2.009855 -4.22154,-0.335519 -2.98019,1.674337 v 0 c 0.99756,1.642336 2.10332,3.229373 3.31425,4.735834 1.29424,1.642503 2.48398,3.361492 3.90016,4.914982 1.67528,1.905914 3.34419,3.817168 5.07416,5.67846 2.14461,2.450734 4.29699,4.895572 6.46964,7.323534 1.83262,1.813672 3.73102,3.565392 5.60179,5.343106 2.14335,2.02583 4.29453,4.0464 6.33344,6.16917 0.88546,0.95096 1.39927,1.47252 2.21881,2.47156 1.54076,1.87823 2.80256,3.94039 3.91204,6.07403 0.30925,0.648 0.6421,1.28618 0.92771,1.94397 1.74876,4.02769 2.77281,8.3158 3.36891,12.62673 0.0788,0.87158 0.18416,1.74138 0.23633,2.61472 0.23117,3.85349 -0.0847,7.72453 -0.66067,11.53804 -0.36179,1.89824 -0.47185,2.6586 -0.97485,4.5445 -0.91044,3.41353 -2.06758,6.7746 -3.26862,10.10228 -1.57276,4.01332 -3.16933,8.05877 -5.60131,11.68595 -2.07468,3.23717 -4.2449,6.43047 -7.10132,9.10521 -3.20116,3.08113 -6.64456,5.90796 -10.39164,8.37595 -2.67162,1.73913 -5.38341,3.44047 -8.21827,4.93179 -0.65978,0.34709 -1.3403,0.65746 -2.00183,1.00159 -0.6418,0.33384 -1.2717,0.68804 -1.90757,1.03208 -1.11039,0.66993 -2.14856,1.26195 -3.19114,2.02981 -1.48835,1.09614 -2.73546,2.47271 -4.19095,3.60652 -1.88396,1.71457 -3.83751,3.35543 -5.83858,4.94471 -1.9505,1.5585 -3.86312,3.15368 -5.53168,4.99502 -1.57522,1.5589 -3.12077,3.14423 -4.68967,4.70872 -1.72373,1.59873 -3.30191,3.33085 -5.01135,4.94358 -1.75883,1.74378 -3.57561,3.43255 -5.36783,5.14484 -1.80441,1.72351 -3.57276,3.48105 -5.3441,5.23537 -1.57747,1.64469 -3.09731,3.35172 -5.13166,4.50928 -0.45591,0.24521 -0.90086,0.50999 -1.36775,0.73563 -3.44916,1.66699 -7.20942,2.65315 -10.727409,4.16972 -0.590607,0.262 -1.181226,0.52431 -1.771845,0.78646 -0.428855,0.20465 -0.853345,0.4181 -1.286519,0.61439 -1.848499,0.83771 -3.788047,1.47315 -5.711892,2.1312 -1.317614,0.38225 -2.006346,0.60771 -3.369772,0.89434 -2.500173,0.52571 -5.042436,0.63645 -7.596365,0.56248 -3.988992,-0.0732 -7.977987,-0.18981 -11.967885,-0.18355 -2.445741,0 -2.445741,3.29884 0,3.29884 z" />
    <path
       style="fill:#ffffff;stroke-width:0.892835"
       id="path2961"
       d="m 143.98987,43.775057 c 1.86428,4.451363 3.52179,8.977404 5.49108,13.389813 1.49895,3.134495 2.85794,6.343964 4.78025,9.269983 1.46348,2.06967 3.30807,3.850454 5.13593,5.623622 1.70324,1.503463 3.295,3.110965 4.87298,4.731815 1.61376,1.4885 2.98198,3.171176 4.3307,4.874314 1.32644,1.778674 2.76852,3.470015 4.3598,5.038104 1.58478,1.515951 3.25888,2.941341 4.92097,4.378597 2.13934,1.651399 4.26669,3.316871 6.39031,4.986955 2.25811,1.854535 4.38246,3.85082 6.539,5.81061 1.80569,1.66257 3.59397,3.34887 5.31379,5.09268 0.91509,1.06024 1.86914,2.09281 2.66089,3.24367 0.44779,0.65088 0.76389,1.2239 1.16187,1.90635 1.20156,2.1866 1.39379,4.64689 1.56877,7.06394 0.18692,2.35793 0.0311,4.71788 -0.0739,7.07496 -0.0909,1.97416 -0.12715,3.94993 -0.14547,5.92575 -0.0103,1.75902 -0.0103,3.51813 -0.0103,5.27719 0.0145,1.67605 -0.0346,3.35284 0.0425,5.02763 0.10683,1.5313 0.1928,3.06342 0.24429,4.59733 0.0363,1.34297 0.0348,2.68648 0.0363,4.02979 0.0103,1.88192 0.15865,3.76063 0.23185,5.64132 0.0811,2.40044 0.096,4.8024 0.047,7.20344 -0.12793,2.1573 -0.16931,4.35491 -0.66686,6.47423 -0.18794,0.80125 -0.54765,1.76915 -0.81958,2.54904 -0.79572,2.14466 -2.03818,4.10523 -3.50398,5.88958 -2.12223,2.30096 -4.97157,3.83725 -7.75157,5.30086 -0.69854,0.34059 -1.39534,0.68445 -2.09563,1.0218 -1.81447,0.87409 -2.53529,1.17027 -4.29966,2.1261 -1.85486,1.00481 -3.6305,2.1458 -5.43384,3.23093 -2.63912,1.55346 -5.47236,2.7694 -8.15997,4.24156 -1.43793,0.78769 -2.24933,1.29957 -3.63013,2.13724 -2.66409,1.56673 -5.01044,3.53901 -7.24197,5.61673 -1.86066,1.76125 -3.66281,3.57973 -5.56172,5.3036 -1.3673,1.12904 -2.60743,2.39078 -3.94852,3.54597 -0.74993,0.64597 -1.45411,1.16871 -2.24284,1.77488 -2.37868,1.70456 -4.6332,3.55393 -6.8945,5.39518 -1.39865,1.15993 -2.69242,2.42193 -4.10716,3.56368 -1.43601,1.22339 -2.99516,2.29363 -4.57032,3.34476 -0.74183,0.6001 -1.59846,1.03976 -2.39797,1.55819 -0.13065,0.0847 -0.36952,0.12301 -0.37722,0.27353 -0.0466,0.90997 0.14854,1.81657 0.22288,2.72483 0.7126,0.0198 1.4268,0.10812 2.13784,0.0589 0.48993,-0.0339 0.95848,-0.20563 1.43819,-0.30647 0.65456,-0.13736 1.31174,-0.26397 1.9646,-0.40872 2.31912,-0.5144 4.57309,-1.15694 6.83428,-1.86382 3.22935,-1.05705 6.24242,-2.59833 9.25684,-4.10576 2.22085,-1.16469 4.60607,-1.9891 6.9462,-2.89932 1.04629,-0.40692 3.2222,-1.2861 4.23434,-1.69333 4.66709,-1.72009 9.29043,-3.53701 13.91002,-5.36919 4.80254,-1.94403 9.62433,-3.84079 14.37786,-5.89285 3.15,-1.42599 6.39559,-2.64808 9.57307,-4.01458 1.95512,-0.84085 2.55173,-1.14971 4.42111,-2.04701 3.28187,-1.70675 6.34975,-3.8944 8.72384,-6.67255 0.52049,-0.60904 0.98101,-1.26256 1.47149,-1.89384 2.39901,-3.31043 4.37899,-6.9042 5.72416,-10.72574 0.28852,-0.8198 0.51338,-1.65872 0.77011,-2.48803 1.532,-5.77628 2.79072,-11.61902 4.03659,-17.45724 1.01341,-5.18272 2.17344,-10.33666 3.1368,-15.5282 1.10038,-6.05729 1.36267,-12.20103 1.54211,-18.33299 0.0208,-5.26005 -0.41526,-10.51751 -1.43839,-15.68898 -0.19695,-0.99575 -0.44085,-1.98253 -0.66126,-2.9738 -0.96531,-3.8176 -2.3004,-7.57775 -4.40863,-10.969828 -0.34749,-0.559155 -0.73954,-1.092011 -1.1093,-1.637984 -2.14896,-2.710755 -4.81135,-4.985869 -7.62303,-7.050629 -2.63132,-1.794559 -5.2391,-3.629618 -7.97516,-5.277261 -3.19704,-1.897082 -6.28285,-3.95591 -9.46898,-5.869997 -3.79809,-2.108031 -7.55585,-4.269287 -11.20096,-6.610969 -3.13814,-2.094554 -5.69851,-4.816478 -8.31058,-7.456674 -2.36722,-2.301445 -4.16137,-5.032138 -5.99499,-7.719197 -1.7033,-2.74865 -3.76501,-5.253597 -5.87352,-7.722524 -1.73639,-1.989061 -3.49308,-3.972257 -5.00424,-6.124875 -1.14849,-1.529828 -2.24859,-3.087995 -3.24765,-4.710756 -0.97782,-1.451097 -1.89607,-2.937291 -2.84681,-4.404534 -0.89263,-1.323427 -1.48983,-2.78342 -2.13063,-4.224301 -0.76223,-1.55385 -1.25844,-3.20189 -1.84239,-4.818653 -0.8428,-2.067692 -1.90539,-2.21342 -3.93443,-0.432671 -0.37318,0.327577 -0.33862,0.913097 -0.46776,1.380867 -0.26364,0.954095 -0.42848,2.092771 -0.59142,3.063279 -0.20419,1.766512 -0.50115,3.539221 -0.49138,5.321752 0.003,0.827214 0.0652,1.363104 0.13445,2.171304 0.15307,1.877705 0.66484,3.707195 1.09037,5.540608 0.29198,1.827843 0.70434,3.631331 1.16584,5.426747 0.3058,1.024421 0.4502,2.080875 0.66926,3.122366 0.51583,2.280158 3.89684,1.584368 3.38097,-0.695788 v 0 c -0.23046,-1.08516 -0.38111,-2.186793 -0.70203,-3.254123 -0.45503,-1.772578 -0.85122,-3.553723 -1.14766,-5.356784 -0.39305,-1.688274 -0.86975,-3.373224 -1.01411,-5.101772 -0.0408,-0.472879 -0.11545,-1.232404 -0.12156,-1.71217 -0.0208,-1.641017 0.2664,-3.272972 0.44386,-4.899854 0.23427,-1.428027 0.1942,-1.308069 0.49201,-2.664551 0.0532,-0.242551 0.42065,-0.648167 0.17348,-0.724526 -0.60642,-0.187516 -1.26798,0.126879 -1.90197,0.190155 -0.21733,-0.254418 -0.36074,-0.588158 -0.65164,-0.76335 -0.16065,-0.09655 0.1451,0.334697 0.21768,0.502012 0.61033,1.687617 1.13496,3.405982 1.92985,5.028347 0.70839,1.593893 1.38953,3.200242 2.37538,4.663796 0.93788,1.447273 1.84323,2.913562 2.80811,4.344752 1.03749,1.676939 2.16996,3.293306 3.35913,4.875862 1.57895,2.22911 3.38291,4.301846 5.19282,6.362882 2.03206,2.378956 4.01808,4.792418 5.65588,7.443489 1.94585,2.850387 3.86729,5.734749 6.37851,8.175532 2.78584,2.816143 5.53338,5.701892 8.89221,7.920554 3.67485,2.35892 7.45946,4.54222 11.2889,6.664918 3.18609,1.913526 6.26992,3.974892 9.46824,5.869569 2.64939,1.588817 5.16356,3.376091 7.71315,5.1053 2.50783,1.834005 4.88127,3.858098 6.82953,6.2443 0.32342,0.473541 0.66751,0.93492 0.97058,1.42058 1.94618,3.11882 3.16741,6.58085 4.05705,10.09367 0.2101,0.94287 0.44288,1.88135 0.63033,2.82851 0.97614,4.93265 1.39472,9.94567 1.38703,14.96294 -0.17276,5.9718 -0.41788,11.95571 -1.48379,17.8558 -0.95626,5.1643 -2.11287,10.29036 -3.11913,15.44585 -1.22588,5.74916 -2.46806,11.50164 -3.96394,17.19246 -0.22736,0.74943 -0.42446,1.50794 -0.68235,2.24835 -1.23481,3.54489 -3.05671,6.88044 -5.27214,9.95301 -1.03512,1.35447 -1.35723,1.88446 -2.56971,3.06414 -1.86653,1.81598 -4.06063,3.32162 -6.40001,4.52831 -1.7652,0.84883 -2.39777,1.17457 -4.24181,1.96784 -3.19424,1.37408 -6.45729,2.6023 -9.62403,4.0359 -4.72066,2.03925 -9.51056,3.92106 -14.28008,5.85282 -4.62504,1.83423 -9.25387,3.65312 -13.92623,5.37561 -0.92042,0.37034 -3.20415,1.29278 -4.17114,1.66889 -2.44965,0.95281 -4.94383,1.82124 -7.26904,3.03929 -2.8471,1.4237 -5.68822,2.88904 -8.7344,3.89739 -2.14882,0.67462 -4.29041,1.28756 -6.49531,1.77662 -0.65846,0.14598 -1.32134,0.27352 -1.98156,0.41228 -0.48373,0.1017 -1.06643,0.0103 -1.45034,0.30912 -0.17548,0.1365 0.35251,0.27188 0.52877,0.40771 0.0103,0.8674 0.0145,1.73489 0.0311,2.60217 2.4e-4,0.0135 0.0103,-0.0264 0.0208,-0.0345 0.17132,-0.10811 0.3501,-0.20531 0.52408,-0.30977 0.70056,-0.42002 1.37718,-0.868 2.03432,-1.34814 1.66098,-1.10834 3.30404,-2.23915 4.82067,-3.52617 1.41859,-1.14518 2.72464,-2.40049 4.11842,-3.57269 2.23705,-1.82131 4.46579,-3.6524 6.82018,-5.33717 0.94142,-0.72438 1.56299,-1.18175 2.45867,-1.95293 1.34068,-1.15437 2.57861,-2.41723 3.94665,-3.54429 1.90827,-1.73554 3.72669,-3.55854 5.59458,-5.3334 2.05748,-1.9243 4.22123,-3.75213 6.68323,-5.19977 1.26959,-0.77152 2.12446,-1.30943 3.44071,-2.03151 2.74587,-1.50638 5.64541,-2.74358 8.3376,-4.34029 1.7366,-1.04487 3.44558,-2.14941 5.2305,-3.11902 1.72443,-0.93674 2.43889,-1.22809 4.23463,-2.09391 0.73336,-0.35356 1.46294,-0.71419 2.19438,-1.07131 3.18275,-1.68363 6.41179,-3.46886 8.80174,-6.1449 1.69483,-2.08632 3.14801,-4.35867 4.06338,-6.86222 0.37092,-1.06891 0.69366,-1.9167 0.95229,-3.0297 0.52954,-2.27898 0.58876,-4.63835 0.72192,-6.95803 0.0477,-2.49687 0.0391,-4.99464 -0.0496,-7.49081 -0.0728,-1.84097 -0.21734,-3.68004 -0.22772,-5.5222 -0.001,-1.37749 -4.9e-4,-2.75527 -0.0397,-4.13238 -0.0532,-1.54629 -0.13952,-3.09086 -0.24637,-4.63463 -0.076,-1.62724 -0.018,-3.25719 -0.0371,-4.88562 -5.4e-4,-1.71476 -0.001,-3.42957 0.0103,-5.14432 0.018,-1.93851 0.0519,-3.87696 0.1406,-5.81391 0.11338,-2.5147 0.2709,-5.03272 0.0674,-7.54808 -0.21804,-2.89798 -0.53518,-5.82056 -2.01346,-8.42201 -0.51352,-0.87326 -0.78026,-1.36501 -1.36027,-2.19961 -0.88531,-1.27386 -1.94076,-2.42509 -2.96741,-3.59419 -1.76662,-1.78164 -3.59013,-3.51563 -5.44348,-5.215005 -2.21561,-2.013788 -4.39877,-4.064603 -6.72387,-5.964719 -2.08225,-1.63772 -4.16602,-3.273401 -6.26816,-4.887659 -1.60796,-1.390228 -3.22771,-2.768723 -4.76185,-4.234087 -1.49722,-1.468268 -2.8338,-3.068915 -4.08242,-4.734715 -1.41835,-1.79123 -2.86647,-3.555239 -4.55621,-5.126424 -1.60014,-1.643525 -3.21522,-3.272876 -4.941,-4.798616 -1.65536,-1.606086 -3.33396,-3.212567 -4.67405,-5.076891 -1.83641,-2.771755 -3.07679,-5.848972 -4.52301,-8.813154 -0.35401,-0.792645 -0.72266,-1.579491 -1.06193,-2.378002 -1.38323,-3.255803 -2.55596,-6.589813 -3.91525,-9.85402 -0.18797,-0.451259 -0.40258,-0.891973 -0.60386,-1.337959 -1.1179,-2.07468 -4.19423,-0.566802 -3.07632,1.507878 z" />
  </g>
</svg>
