<?xml version="1.0" encoding="UTF-8" standalone="no"?>
<!-- Created with Inkscape (http://www.inkscape.org/) -->

<svg
   width="210mm"
   height="297mm"
   viewBox="0 0 210 297"
   version="1.1"
   id="svg5"
   sodipodi:docname="hom.svg"
   inkscape:version="1.2 (dc2aedaf03, 2022-05-15)"
   xmlns:inkscape="http://www.inkscape.org/namespaces/inkscape"
   xmlns:sodipodi="http://sodipodi.sourceforge.net/DTD/sodipodi-0.dtd"
   xmlns="http://www.w3.org/2000/svg"
   xmlns:svg="http://www.w3.org/2000/svg">
  <sodipodi:namedview
     id="namedview7"
     pagecolor="#505050"
     bordercolor="#ffffff"
     borderopacity="1"
     inkscape:showpageshadow="0"
     inkscape:pageopacity="0"
     inkscape:pagecheckerboard="1"
     inkscape:deskcolor="#505050"
     inkscape:document-units="mm"
     showgrid="false"
     inkscape:zoom="0.70710678"
     inkscape:cx="420.02143"
     inkscape:cy="582.65599"
     inkscape:window-width="1920"
     inkscape:window-height="1009"
     inkscape:window-x="-8"
     inkscape:window-y="-8"
     inkscape:window-maximized="1"
     inkscape:current-layer="layer1" />
  <defs
     id="defs2" />
  <g
     inkscape:label="Katman 1"
     inkscape:groupmode="layer"
     id="layer1">
    <path
       style="fill:#ffffff;stroke-width:1.24587"
       d="m 9.9425903,110.13265 v 113.32686 c 0.2986237,0.25559 0.6273157,0.50165 1.0046757,0.72843 0.687247,0.36353 1.438677,0.68485 2.240419,0.97602 0.150486,0.065 0.298613,0.13096 0.445408,0.19811 h 66.261444 c -0.04533,-0.41799 -0.0701,-0.8369 -0.09394,-1.25539 -0.03879,-0.78575 -0.05187,-1.5709 -0.06683,-2.35685 -0.007,-0.7058 -0.01402,-1.41244 -0.01402,-2.11821 -0.0015,-0.80767 3.28e-4,-1.61465 0,-2.4223 -1.87e-4,-0.744 0,-1.48913 0,-2.23315 -7e-5,-0.93738 0,-1.87388 0,-2.81128 v -2.13054 -2.26145 c -0.04533,-0.94893 0.05841,-1.89465 0.211243,-2.83957 0.182033,-0.8683 0.369394,-1.73726 0.505487,-2.60797 0.153525,-0.80583 0.524274,-1.58716 0.997934,-2.35511 0.502894,-0.68553 0.986532,-1.37559 1.503679,-2.05807 0.515838,-0.72111 1.130195,-1.41674 1.801708,-2.10053 0.78571,-0.79675 1.480217,-1.61289 2.381083,-2.37632 1.09928,-0.92022 2.878578,-1.48484 4.614788,-2.02095 1.561279,-0.39279 3.091082,-0.94382 4.705242,-1.27125 0.34542,-0.0702 0.705022,-0.11803 1.0582,-0.17695 0.997304,-0.11731 2.012928,-0.14002 3.030749,-0.13448 0.61113,0.004 1.22406,0.0166 1.83185,0.0273 1.43998,0.0205 2.87977,0.0356 4.32013,0.0425 1.74955,0.007 3.49819,0.0111 5.24774,0.0111 1.41119,-0.0129 2.81817,0.004 4.22296,0.0759 1.27376,0.0899 2.5276,0.24873 3.73072,0.48622 1.11232,0.30726 2.29546,0.53202 3.49287,0.72669 1.16961,0.15868 2.25387,0.44449 3.38913,0.65424 1.01658,0.13096 1.99281,0.29219 2.92017,0.55165 0.87456,0.27885 1.65183,0.62356 2.35097,1.01487 0.71712,0.45366 1.23219,0.97639 1.70464,1.5082 0.45233,0.61277 0.84408,1.23643 1.2491,1.85829 0.50872,0.66897 0.90417,1.35432 1.22236,2.05455 0.3007,0.69374 0.64962,1.3825 0.9678,2.07395 0.27996,0.64608 0.56122,1.29091 0.83392,1.93788 0.3331,0.77493 0.59491,1.55623 0.78362,2.34451 0.15095,0.85865 0.25794,1.71926 0.36809,2.57968 0.11918,1.02744 0.16848,2.06013 0.2075,3.09063 0.0259,0.84628 0.0388,1.69257 0.0453,2.53898 -0.0584,0.71119 0.10702,1.41607 0.24109,2.12174 0.16591,0.96382 0.23063,1.93093 0.29162,2.89794 0.0453,0.83388 0.0584,1.66772 0.0705,2.50188 0.0141,0.77242 0.0141,1.54551 0.0141,2.31798 10e-4,0.70485 2.1e-4,1.40977 0,2.11467 h 66.60305 c 0.0141,-0.004 0.0187,-0.007 0.0325,-0.011 0.84557,-0.26585 1.54838,-0.63646 2.27394,-0.9831 0.23274,-0.10843 0.45364,-0.22171 0.6664,-0.33942 V 110.13265 Z M 118.97627,123.95041 h 0.002 c 0.48149,9.9e-4 0.98368,0.012 1.50367,0.0371 4.259,0.20478 8.51652,0.41099 12.78278,0.57463 6.05423,0.1835 12.10285,0.43266 18.15437,0.63829 4.64238,0.15178 9.28696,0.28559 13.93482,0.38014 2.15659,0.0699 4.30624,0.0615 6.45666,-0.0424 0.24367,-0.0165 0.48669,-0.0315 0.7301,-0.0478 0.52687,-0.0352 1.02445,-0.051 1.50699,-0.0583 h 0.002 c 0.40308,-0.0715 0.81856,-0.10784 1.23569,-0.10784 0.69019,1e-5 1.38718,0.098 2.04287,0.2935 3.81884,0.55636 5.09557,2.219 3.5063,3.58395 0.0325,0.1716 0.0518,0.34913 0.0647,0.53221 0.0927,1.55905 0.10237,3.11893 0.16076,4.67842 0.11917,1.98429 0.41475,3.96308 0.63962,5.94436 0.20938,1.83246 0.313,3.66892 0.38171,5.50413 0.0388,1.37763 0.0518,2.7547 0.0668,4.13206 1.64248,0.65159 2.85428,1.9994 2.74947,4.03129 -0.0388,0.73343 -0.0823,1.46639 -0.14067,2.19953 -0.0325,0.38891 -0.10493,0.75168 -0.21778,1.08914 0.068,0.49717 -0.20728,0.99684 -0.82381,1.43925 -1.59902,1.83762 -4.68776,2.32752 -6.94901,1.46929 -0.23525,0.002 -0.47114,0.004 -0.71661,0 -0.80624,-0.0129 -1.61124,-0.0288 -2.41795,-0.0229 h -5.13718 -8.87126 -19.31989 -18.54954 c -7.72421,0 -10.09109,-2.72034 -7.10306,-4.38844 -0.12688,-0.36635 -0.21451,-0.76046 -0.23783,-1.19171 -0.0259,-0.41075 -0.0519,-0.82186 -0.0837,-1.23237 -0.0895,-1 -0.21381,-1.99944 -0.37524,-2.99693 -0.12642,-0.8622 -0.32013,-1.71751 -0.68647,-2.562 -0.32532,-0.98383 -0.67282,-1.96565 -0.9411,-2.9545 -0.42513,-1.54222 -0.65843,-3.09926 -0.80034,-4.65544 -0.0881,-2.19175 -0.0325,-4.38381 0.0388,-6.57559 0.0811,-1.69203 0.24624,-3.38237 0.31819,-5.07447 0.007,-0.16645 0.0259,-0.32741 0.0453,-0.48446 -2.94845,-1.68145 -0.0584,-4.14876 7.0461,-4.13207 z m -89.747323,0.37661 h 0.0023 c 0.878619,-0.0157 1.778667,0.12673 2.605458,0.43141 0.548879,-0.0379 1.131596,-0.06 1.751467,-0.0601 0.478263,-1e-4 0.976928,0.0106 1.496995,0.0353 1.993205,0.0955 3.991482,0.14517 5.991183,0.18387 2.61775,0.0486 5.237487,0.0594 7.856545,0.0708 3.273186,0.0551 6.544947,0.12383 9.818973,0.16443 3.256596,0.0383 6.514804,0.0523 9.772123,0.0636 2.233821,0.007 4.467221,0.0104 6.701112,0.0123 1.765629,0.002 3.532402,0.004 5.297961,0.004 1.008239,1.6e-4 2.015826,-6e-5 3.024088,0 4.906461,3e-4 7.650769,1.0984 8.234981,2.32683 0.431623,0.0332 0.755964,0.48823 0.954402,1.63018 0.04533,0.25085 0.108193,0.49994 0.134129,0.75147 0.02594,0.24377 0.0187,1.25577 0.0187,1.48697 0,0.77328 -0.01403,1.54652 -0.02594,2.31976 -0.0187,1.81172 -0.270223,3.6182 -0.508711,5.42456 -0.239144,1.82428 -0.381055,3.65153 -0.472446,5.47935 -0.06683,1.56285 -0.09791,3.12588 -0.117304,4.68902 -0.01403,1.17316 -0.0187,2.34714 -0.0187,3.52031 -0.0016,0.65771 -0.0023,1.31549 -0.0023,1.97321 -4.68e-4,0.48514 -0.07641,0.92986 -0.211243,1.33493 1.807481,1.09037 2.388982,2.06644 -1.687861,2.27908 -0.09277,0.006 -0.185305,0.007 -0.278028,0.0129 -1.832226,1.02917 -4.440768,1.04267 -6.292577,0.0407 -1.79402,2e-5 -3.587503,7e-5 -5.381686,0 -3.194251,-1.1e-4 -6.3871,4.2e-4 -9.58128,0 -3.713081,-6.8e-4 -7.427983,-0.004 -11.141764,-0.006 -3.15934,-0.004 -6.318259,-0.006 -9.477388,-0.0284 -3.062575,-0.0242 -6.126691,-0.0587 -9.186087,-0.13965 -2.600902,-0.079 -5.227648,-0.14777 -7.772796,-0.46147 -7.864021,-0.96935 -8.567478,-3.85291 -4.162694,-5.03205 -0.0046,-0.2011 -0.007,-0.40223 -0.01403,-0.60291 -0.02454,-0.66297 -0.05841,-1.32521 -0.127353,-1.98737 -0.08203,-0.73864 -0.196756,-1.47558 -0.294665,-2.21366 -0.137169,-0.81374 -0.344719,-1.62408 -0.435385,-2.43998 -0.138336,-0.90621 -0.334507,-1.81019 -0.445385,-2.71759 -0.163574,-0.93913 -0.406596,-1.87388 -0.492331,-2.81659 -0.05841,-1.06452 -0.125717,-2.12985 -0.100478,-3.19498 -1.86e-4,-1.06301 0.0011,-2.12494 0,-3.18789 -0.0013,-0.766 -0.0046,-1.53254 -0.01403,-2.29854 -0.0046,-0.46876 -0.0093,-0.93714 -0.04019,-1.40565 -0.02524,-0.32096 -0.05631,-0.64211 -0.117304,-0.96185 h 0.0023 c -0.57496,-3.01474 1.974277,-4.62704 4.73534,-4.68019 z"
       id="rect280" />
    <path
       style="fill:#ffffff;stroke-width:1.29152"
       d="M 108.24975,66.138599 -0.2749175,106.48681 25.19351,142.58449 c -0.159132,-0.84232 -0.361729,-1.68218 -0.438748,-2.5284 -0.05841,-1.06446 -0.125719,-2.1298 -0.100478,-3.19496 -2.1e-4,-1.06301 0.0011,-2.1249 0,-3.18789 -0.0013,-0.76602 -0.007,-1.53256 -0.0093,-2.29855 -0.007,-0.46872 -0.01168,-0.93712 -0.04394,-1.40564 -0.0257,-0.32098 -0.05631,-0.64211 -0.117304,-0.96185 h 0.0023 c -0.57538,-3.01716 1.978413,-4.62951 4.742046,-4.68018 0.879649,-0.0161 1.780982,0.12635 2.608777,0.43141 0.548927,-0.0379 1.131598,-0.06 1.751492,-0.0601 0.478497,-1e-4 0.976904,0.0106 1.496949,0.0353 1.993205,0.0955 3.991504,0.14517 5.991182,0.18387 2.617727,0.0486 5.237486,0.0594 7.856567,0.0708 3.27321,0.0551 6.544947,0.12381 9.818975,0.16443 3.256572,0.0383 6.514802,0.0523 9.772122,0.0636 2.23382,0.007 4.467292,0.0104 6.701159,0.0123 1.765629,0.002 3.532425,0.004 5.297961,0.004 1.008263,1.6e-4 2.015824,-7e-5 3.024088,0 4.905596,2.9e-4 7.650723,1.09839 8.234935,2.32683 0.431786,0.0332 0.755964,0.4882 0.954447,1.63018 0.04183,0.25085 0.107961,0.49994 0.133663,0.75146 0.02781,0.24377 0.02103,1.25578 0.01403,1.48698 0,0.77327 -0.01403,1.5465 -0.02103,2.31975 -0.02103,1.81175 -0.270222,3.61824 -0.509086,5.42455 -0.238862,1.82433 -0.380937,3.65151 -0.472164,5.47937 -0.06964,1.56281 -0.09744,3.12584 -0.117072,4.68902 -0.01403,1.17312 -0.01403,2.34717 -0.02103,3.52031 -0.0016,0.65771 -0.0023,1.31553 -0.0023,1.9732 -4.9e-4,0.48653 -0.07595,0.93247 -0.211009,1.33846 1.802947,1.08898 2.377976,2.06314 -1.694521,2.27556 -0.09043,0.006 -0.181099,0.007 -0.2709,0.0129 -1.832249,1.0292 -4.440816,1.04231 -6.292624,0.0407 -1.796193,0 -3.591966,5e-5 -5.38837,0 -3.194228,-1.2e-4 -6.387052,4.2e-4 -9.581233,0 -3.713828,-6.9e-4 -7.427983,-2.1e-4 -11.14181,-0.006 -3.159271,-0.004 -6.318282,-0.006 -9.477412,-0.0284 -3.062528,-0.0242 -6.126621,-0.0587 -9.186017,-0.13965 -0.75157,-0.0229 -1.503912,-0.0453 -2.257212,-0.0724 l 8.047457,11.40608 136.06944,-1.30311 39.52373,-63.98074 z m 10.72991,57.811811 h 0.002 c 0.4812,9.9e-4 0.98143,0.012 1.50026,0.0371 4.259,0.20478 8.51649,0.41101 12.78278,0.57463 6.05483,0.1835 12.10233,0.43265 18.15443,0.63829 4.64241,0.15178 9.28699,0.28562 13.93478,0.38014 2.15659,0.0699 4.30626,0.0615 6.45671,-0.0424 0.24374,-0.0165 0.48609,-0.0315 0.73005,-0.0478 0.52719,-0.0352 1.0245,-0.051 1.50704,-0.0583 h 0.002 c 0.40324,-0.0715 0.81857,-0.10788 1.23572,-0.10784 0.69015,1e-5 1.38718,0.098 2.04284,0.2935 3.81884,0.55636 5.09558,2.219 3.5063,3.58395 0.0278,0.1716 0.0557,0.34913 0.0626,0.53221 0.0925,1.55907 0.10237,3.11893 0.161,4.67842 0.11917,1.98429 0.41576,3.9631 0.63929,5.94436 0.20961,1.83248 0.31341,3.66892 0.38164,5.50413 0.0418,1.37822 0.0626,2.75587 0.0738,4.13382 1.63942,0.65248 2.84744,2.00007 2.74274,4.02953 -0.0349,0.73343 -0.0823,1.46639 -0.14067,2.19953 -0.0278,0.38957 -0.10516,0.75298 -0.21801,1.09091 0.0696,0.49656 -0.20821,0.99561 -0.82378,1.43748 -1.59904,1.83763 -4.68777,2.32752 -6.94902,1.46929 -0.23468,0.002 -0.46798,0.004 -0.71332,0 -0.80625,-0.0129 -1.61124,-0.0288 -2.41788,-0.0229 h -5.13721 -8.87126 -19.31985 -18.54955 c -7.72142,0 -10.08949,-2.71842 -7.10641,-4.38668 -0.12735,-0.36681 -0.21451,-0.76153 -0.23748,-1.19347 -0.0278,-0.41075 -0.0488,-0.82186 -0.0802,-1.23237 -0.0893,-0.99997 -0.21451,-1.99941 -0.37537,-2.99693 -0.12595,-0.8622 -0.32035,-1.71751 -0.68666,-2.562 -0.32523,-0.98381 -0.67273,-1.96565 -0.94106,-2.9545 -0.42482,-1.54218 -0.6581,-3.0993 -0.80038,-4.65544 -0.0883,-2.19178 -0.0348,-4.38378 0.0418,-6.57559 0.0808,-1.69199 0.24653,-3.38241 0.31827,-5.07447 0.007,-0.16645 0.021,-0.32744 0.0488,-0.48446 -2.94749,-1.68087 -0.0556,-4.14714 7.0394,-4.13207 z"
       id="path286" />
    <path
       style="fill:#ffffff;stroke-width:0.283332"
       d="m 18.798595,117.32374 h 10.145639 l 0.307443,42.82239 -10.760525,0.26112"
       id="path1772" />
    <path
       style="fill:#ffffff;stroke-width:0.283332"
       d="m 99.348823,165.10727 -11.375415,0.26111 -0.307443,-45.95575 11.990302,-0.52222"
       id="path1774" />
    <path
       style="fill:#ffffff;stroke-width:0.283332"
       d="m 27.407016,126.46266 64.56316,1.04445 v -9.66116"
       id="path1776" />
    <path
       style="fill:#ffffff;stroke-width:0.283332"
       d="m 28.944234,119.41263 -0.614887,7.31114 15.372181,-0.52222"
       id="path1778" />
    <path
       style="fill:#ffffff;stroke-width:0.283332"
       d="m 91.047845,166.41282 0.307443,-9.13893 -65.48549,-0.52221 0.307444,11.48894"
       id="path1780" />
    <path
       style="fill:#ffffff;stroke-width:0.283332"
       d="m 102.11582,157.2739 15.98706,12.7945 -1.84466,-47.26131 -13.52752,5.74447"
       id="path1782" />
    <path
       style="fill:#ffffff;stroke-width:0.283332"
       d="m 175.59484,120.45708 2.1521,44.12796"
       id="path1784" />
    <path
       style="fill:#ffffff;stroke-width:0.283332"
       d="m 174.97995,118.62929 0.92233,46.73909 16.29451,-0.52223"
       id="path1786" />
    <path
       style="fill:#ffffff;stroke-width:0.283332"
       d="m 187.89258,130.37934 -11.37541,-11.48893 0.61489,13.0556 5.53398,11.48894"
       id="path1788" />
    <path
       style="fill:#ffffff;stroke-width:0.283332"
       d="m 181.43627,117.06262 -0.92234,11.22783 -66.40781,-1.30557 v -11.75005"
       id="path1790" />
    <path
       style="fill:#ffffff;stroke-width:0.283332"
       d="m 163.45082,172.1573 16.29451,-14.10007 -64.40944,-0.65277 4.45794,13.9695"
       id="path1819" />
    <path
       style="fill:#ffffff;stroke-width:0.150181"
       d="m 56.921603,125.94044 1.294239,0.12635 0.08926,31.08076 -1.383497,0.12635"
       id="path1821" />
    <path
       style="fill:#ffffff;stroke-width:0.188402"
       d="m 28.175626,142.39051 v 0.705 l 60.569069,0.47 0.151045,-1.0575"
       id="path1823" />
    <path
       style="fill:#ffffff;stroke-width:0.238733"
       d="m 144.54304,126.85433 0.11271,31.72513 1.46548,-0.1264 0.11272,-31.59873"
       id="path1825" />
    <path
       style="fill:#ffffff;stroke-width:0.222925"
       d="m 116.25822,142.78217 0.15372,1.61641 62.87222,0.0808 -0.30744,-0.88902"
       id="path1827" />
  </g>
</svg>
