<?xml version="1.0" encoding="UTF-8" standalone="no"?>
<!-- Created with Inkscape (http://www.inkscape.org/) -->

<svg
   width="210mm"
   height="297mm"
   viewBox="0 0 210 297"
   version="1.1"
   id="svg5"
   sodipodi:docname="homes.svg"
   inkscape:version="1.2 (dc2aedaf03, 2022-05-15)"
   xmlns:inkscape="http://www.inkscape.org/namespaces/inkscape"
   xmlns:sodipodi="http://sodipodi.sourceforge.net/DTD/sodipodi-0.dtd"
   xmlns="http://www.w3.org/2000/svg"
   xmlns:svg="http://www.w3.org/2000/svg">
  <sodipodi:namedview
     id="namedview7"
     pagecolor="#505050"
     bordercolor="#ffffff"
     borderopacity="1"
     inkscape:showpageshadow="0"
     inkscape:pageopacity="0"
     inkscape:pagecheckerboard="1"
     inkscape:deskcolor="#505050"
     inkscape:document-units="mm"
     showgrid="false"
     inkscape:zoom="0.25"
     inkscape:cx="-870"
     inkscape:cy="-376"
     inkscape:window-width="1920"
     inkscape:window-height="1009"
     inkscape:window-x="-8"
     inkscape:window-y="-8"
     inkscape:window-maximized="1"
     inkscape:current-layer="layer1" />
  <defs
     id="defs2" />
  <g
     inkscape:label="Katman 1"
     inkscape:groupmode="layer"
     id="layer1">
    <path
       style="fill:#ffffff;stroke-width:1.16343"
       d="m 53.99966,145.62883 c 0.24874,0.94859 0.474614,1.89925 0.657091,2.85405 0.258795,1.55622 0.354719,3.12027 0.437813,4.68327 0.01207,0.27583 0.01609,0.55199 0.02795,0.82773 1.209491,5.4e-4 2.419223,0.002 3.628452,0.002 2.74816,4.3e-4 5.49449,-1.1e-4 8.24265,0 0.900261,4e-5 1.80034,0 2.70048,0 0,-1.19657 0.004,-2.39385 0.01609,-3.5904 0.01609,-1.44285 0.03901,-2.88595 0.08929,-4.32854 -2.787475,-0.0588 -5.572235,-0.15086 -8.357921,-0.24364 -2.480256,-0.0711 -4.960834,-0.13364 -7.441411,-0.20424 z"
       id="path1353" />
    <path
       style="fill:#ffffff;stroke-width:1.16343"
       d="m 52.074458,131.69011 v 0.40668 2.6498 c 0.08587,1.59116 0.282765,3.17875 0.515879,4.76389 0.169527,1.07849 0.397091,2.15323 0.654196,3.2249 2.802698,0.0827 5.607146,0.15442 8.409804,0.23471 2.763223,0.0915 5.524052,0.18568 8.288783,0.24366 0.07481,-1.15769 0.167918,-2.31436 0.296702,-3.47035 0.05792,-0.51727 0.112012,-1.03414 0.167314,-1.55152 -0.992323,-0.59794 -1.872836,-1.49787 -2.458376,-2.72863 -0.342995,-0.72123 -0.520344,-1.46805 -0.694556,-2.21086 -0.107588,-0.45853 -0.168924,-0.92122 -0.224769,-1.38312 -0.004,-0.0401 -0.004,-0.0805 -0.01207,-0.11998 -0.779279,-7.1e-4 -1.558498,-0.001 -2.337355,-0.002 -1.937027,-0.002 -3.873108,-0.006 -5.810156,-0.0131 -2.266346,-0.009 -4.532593,-0.0208 -6.798739,-0.0447 z"
       id="path1323" />
    <path
       style="fill:#ffffff;stroke-width:1.16343"
       d="m 31.047111,144.66495 c 0.07521,0.50625 0.152836,1.01266 0.219178,1.51929 0.07984,0.80982 0.251535,1.61449 0.369198,2.42225 0.09311,0.80602 0.196876,1.61196 0.273837,2.41869 0.06697,0.74601 0.101555,1.49255 0.123877,2.23951 0.004,0.16771 0.006,0.3356 0.01207,0.50344 0.526477,0.0223 1.052995,0.0425 1.579312,0.061 2.504287,0.0767 5.012516,0.11118 7.519257,0.13439 2.67866,0.0225 5.356295,0.0236 8.035136,0.0269 0.44449,4.3e-4 0.889582,-3.9e-4 1.334373,0 -0.01207,-0.2431 -0.01609,-0.48599 -0.02795,-0.72919 -0.07803,-1.48176 -0.16832,-2.96577 -0.409358,-4.44141 -0.212481,-1.11796 -0.490782,-2.22988 -0.792572,-3.33956 -2.493448,-0.0872 -4.984845,-0.19213 -7.473125,-0.33145 -0.06737,-0.004 -5.752098,-0.29389 -6.032068,-0.30638 -1.575129,-0.07 -3.151988,-0.12465 -4.729409,-0.17744 z"
       id="path1361" />
    <path
       style="fill:#ffffff;stroke-width:1.16343"
       d="m 30.378477,131.27623 c 0.006,0.30988 0.01207,0.62022 0.01609,0.92985 0.004,0.78689 0.006,1.5727 0.006,2.35955 9.45e-4,1.07839 0.002,2.15728 0.002,3.23566 -0.02232,1.02375 0.02795,2.04588 0.08084,3.06903 0.03338,0.30356 0.07803,0.60564 0.126692,0.90835 1.816729,0.0591 3.633137,0.12203 5.447091,0.20242 0.399866,0.0169 5.875131,0.29714 6.127209,0.30996 2.117775,0.11848 4.238969,0.20948 6.360665,0.28845 -0.213608,-0.93393 -0.403787,-1.87024 -0.550449,-2.80924 -0.245401,-1.67173 -0.454544,-3.34538 -0.535969,-5.02367 v -2.64981 -0.47656 c -1.821858,-0.0354 -3.642669,-0.0777 -5.464366,-0.11642 -2.342161,-0.0112 -4.685428,-0.0236 -7.026403,-0.0753 -1.53143,-0.0354 -3.063564,-0.0741 -4.591073,-0.15235 z"
       id="path1195" />
    <path
       style="fill:#ffffff;stroke-width:1.16343"
       d="m 147.28264,143.62044 c -0.71096,6e-4 -1.42209,3.4e-4 -2.13273,0.002 -1.45266,0.004 -2.9051,0.007 -4.35766,0.0187 -3.43515,0.0247 -6.86969,0.0595 -10.30327,0.13252 -1.24018,0.0301 -2.18466,0.0515 -3.23366,0.0824 0.0334,0.14505 0.063,0.29051 0.0981,0.43536 0.36196,1.48083 0.9476,2.93304 1.62834,4.36795 0.68531,1.47003 1.15769,2.97441 1.6284,4.47545 0.27886,0.8561 0.49022,1.71912 0.70606,2.58172 h 6.01773 7.63453 2.60534 c -0.0557,-1.12266 -0.0654,-2.24483 -0.0607,-3.36824 -0.0121,-1.77152 -0.0279,-3.5426 -0.072,-5.31392 -0.0334,-1.13779 -0.0837,-2.27559 -0.15847,-3.41302 z"
       id="path1429" />
    <path
       style="fill:#ffffff;stroke-width:1.16343"
       d="m 126.8951,131.59156 c -0.0931,0.46389 -0.17838,0.92882 -0.25655,1.39387 -0.2716,1.45406 -0.28666,2.91586 -0.23647,4.37692 0.0334,1.21501 0.1462,2.42775 0.32013,3.63697 1.19165,-0.0367 2.18259,-0.0571 3.5853,-0.0913 3.47614,-0.0741 6.95511,-0.10987 10.43294,-0.13439 1.46464,-0.009 2.93041,-0.015 4.39512,-0.0187 0.63246,-0.001 1.26439,-0.001 1.89638,-0.002 -0.1834,-1.77473 -0.38872,-3.54822 -0.47238,-5.32646 -0.0334,-1.10156 -0.0503,-2.20388 -0.0837,-3.30551 -1.52126,0.0391 -3.04392,0.0359 -4.56803,-0.0215 -4.07891,-0.0979 -8.15437,-0.23523 -12.22848,-0.39237 -0.92875,-0.0372 -1.85556,-0.0771 -2.78403,-0.11642 z"
       id="path1399" />
    <path
       style="fill:#ffffff;stroke-width:1.16343"
       d="m 122.62968,144.03431 c -2.56474,0.11848 -5.12595,0.26036 -7.68928,0.39056 -1.0011,0.0445 -2.00106,0.0968 -3.0031,0.13251 -2.08996,0.0747 -4.186,0.10913 -6.27998,0.10033 0.028,0.13963 0.0607,0.27827 0.0953,0.41745 0.21918,0.95418 0.50528,1.90297 0.77242,2.85223 0.37143,1.03218 0.56825,2.07894 0.70322,3.13174 0.14661,1.0704 0.25822,2.14292 0.3402,3.21595 0.0334,0.45129 0.0557,0.9011 0.0774,1.35268 0.001,0.0301 -9.5e-4,0.0578 0,0.0878 h 13.06137 5.93992 c -0.17073,-0.6797 -0.34633,-1.35868 -0.56491,-2.03347 -0.44225,-1.41266 -0.88023,-2.82989 -1.52169,-4.21388 -0.74065,-1.56273 -1.37297,-3.1442 -1.76672,-4.75673 -0.0557,-0.22591 -0.1092,-0.45125 -0.1639,-0.67724 z"
       id="path1437" />
    <path
       style="fill:#ffffff;stroke-width:1.16343"
       d="m 105.42386,130.61334 c -0.0686,1.35655 -0.17355,2.71183 -0.22754,4.06875 -0.0613,2.1308 -0.11664,4.26171 -0.0334,6.39248 0.0223,0.23849 0.0503,0.4779 0.072,0.71664 2.16765,0.0168 4.33725,-0.0187 6.50188,-0.0968 0.95898,-0.0346 1.91808,-0.0861 2.87628,-0.12896 2.49998,-0.12746 4.99783,-0.26474 7.49904,-0.38162 -0.16671,-1.25205 -0.2649,-2.50734 -0.32011,-3.76238 -0.0503,-1.58052 -0.0279,-3.16057 0.26212,-4.73345 0.0726,-0.4313 0.15002,-0.86279 0.23367,-1.29354 -2.7675,-0.11979 -5.53603,-0.23777 -8.30599,-0.33682 -2.45828,-0.11118 -4.91269,-0.23149 -7.36651,-0.37623 -0.39652,-0.0236 -0.79305,-0.0462 -1.19032,-0.0681 z"
       id="path1291" />
    <path
       style="fill:#ffffff;stroke-width:1.16343"
       d="m 8.5181818,110.71749 v 114.83338 c 0.2569926,0.25899 0.5398627,0.50832 0.8646156,0.73811 0.5914386,0.36837 1.2381126,0.69396 1.9280846,0.989 0.129507,0.0659 0.256984,0.1327 0.383315,0.20074 h 57.024028 c -0.03901,-0.42354 -0.06033,-0.84802 -0.08084,-1.27208 -0.03338,-0.79619 -0.04464,-1.59178 -0.05751,-2.38818 -0.006,-0.71518 -0.01207,-1.43121 -0.01207,-2.14637 -0.0013,-0.8184 2.82e-4,-1.63611 0,-2.4545 -1.61e-4,-0.75389 0,-1.50892 0,-2.26283 -6e-5,-0.94984 0,-1.89879 0,-2.84865 v -2.15887 -2.29151 c -0.03901,-0.96154 0.05027,-1.91984 0.181794,-2.87732 0.156656,-0.87984 0.317897,-1.76035 0.435018,-2.64264 0.132122,-0.81654 0.451185,-1.60826 0.858813,-2.38642 0.432786,-0.69464 0.849001,-1.39387 1.294053,-2.08542 0.443926,-0.7307 0.972636,-1.43558 1.550535,-2.12846 0.676175,-0.80734 1.273862,-1.63433 2.049139,-2.40791 0.946031,-0.93245 2.47728,-1.50458 3.971447,-2.04781 1.343623,-0.39802 2.660159,-0.95637 4.049291,-1.28815 0.297265,-0.0711 0.606736,-0.1196 0.910678,-0.17931 0.858271,-0.11886 1.732308,-0.14188 2.608235,-0.13626 0.525935,0.004 1.053418,0.0168 1.576477,0.0277 1.239233,0.0208 2.478305,0.0361 3.71786,0.0431 1.505649,0.007 3.010514,0.0112 4.516163,0.0112 1.214458,-0.0131 2.425296,0.004 3.634243,0.0769 1.096189,0.0911 2.175229,0.25204 3.210629,0.49269 0.95725,0.31134 1.97545,0.53909 3.00593,0.73635 1.00656,0.16078 1.93966,0.45039 2.91666,0.66293 0.87486,0.1327 1.71499,0.29608 2.51307,0.55899 0.75264,0.28255 1.42155,0.63185 2.02322,1.02836 0.61715,0.45969 1.06042,0.98937 1.467,1.52825 0.38927,0.62091 0.72641,1.25286 1.07497,1.88299 0.4378,0.67786 0.77812,1.37232 1.05195,2.08186 0.25878,0.70296 0.55906,1.40088 0.83288,2.10152 0.24093,0.65467 0.48298,1.30807 0.71766,1.96364 0.28667,0.78524 0.51198,1.57692 0.67438,2.37568 0.12991,0.87007 0.22198,1.74212 0.31678,2.61397 0.10256,1.0411 0.14499,2.08752 0.17857,3.13172 0.0223,0.85753 0.0334,1.71507 0.039,2.57273 -0.0503,0.72065 0.0921,1.4349 0.20748,2.14995 0.14278,0.97663 0.19848,1.9566 0.25097,2.93646 0.039,0.84497 0.0503,1.68989 0.0607,2.53514 0.0121,0.78269 0.0121,1.56606 0.0121,2.3488 9e-4,0.71421 1.8e-4,1.42851 0,2.14278 h 57.31801 c 0.0121,-0.004 0.0161,-0.007 0.028,-0.0112 0.72769,-0.26938 1.33252,-0.64492 1.95693,-0.99617 0.2003,-0.10987 0.3904,-0.22466 0.5735,-0.34393 V 110.71749 Z m 93.8334482,14.00145 h 0.002 c 0.41437,10e-4 0.84655,0.0122 1.29405,0.0376 3.66526,0.2075 7.32924,0.41645 11.00075,0.58227 5.21022,0.18594 10.41561,0.43841 15.62349,0.64677 3.9952,0.1538 7.99228,0.28939 11.99219,0.3852 1.85594,0.0708 3.70591,0.0623 5.55655,-0.043 0.2097,-0.0167 0.41884,-0.0319 0.62831,-0.0484 0.45342,-0.0357 0.88164,-0.0517 1.29691,-0.0591 h 0.002 c 0.34689,-0.0724 0.70445,-0.10927 1.06343,-0.10927 0.59397,1e-5 1.19379,0.0993 1.75807,0.2974 3.28646,0.56376 4.38521,2.2485 3.01749,3.6316 0.028,0.17388 0.0446,0.35377 0.0557,0.53928 0.0798,1.57978 0.0881,3.16039 0.13835,4.74061 0.10256,2.01067 0.35693,4.01577 0.55045,6.02339 0.18019,1.85682 0.26937,3.71769 0.3285,5.57729 0.0334,1.39595 0.0446,2.79132 0.0575,4.187 1.41351,0.66025 2.45637,2.02597 2.36617,4.08488 -0.0334,0.74318 -0.0708,1.48588 -0.12106,2.22876 -0.028,0.39409 -0.0903,0.76168 -0.18742,1.10362 0.0585,0.50378 -0.17838,1.0101 -0.70896,1.45839 -1.3761,1.86204 -4.03425,2.35846 -5.98026,1.48882 -0.20245,0.002 -0.40546,0.004 -0.61671,0 -0.69384,-0.0131 -1.38662,-0.0292 -2.08086,-0.0232 h -4.42102 -7.63453 -16.62653 -15.96357 c -6.647392,0 -8.684305,-2.7565 -6.112831,-4.44677 -0.109196,-0.37122 -0.184609,-0.77057 -0.204678,-1.20756 -0.02232,-0.41621 -0.04464,-0.83278 -0.07199,-1.24875 -0.07702,-1.01329 -0.184005,-2.02602 -0.322925,-3.03677 -0.108794,-0.87366 -0.275506,-1.74034 -0.590769,-2.59606 -0.27997,-0.99691 -0.579024,-1.99178 -0.809906,-2.99377 -0.36586,-1.56272 -0.566637,-3.14046 -0.688765,-4.71733 -0.07581,-2.22089 -0.02795,-4.44209 0.03338,-6.663 0.06978,-1.71453 0.211918,-3.42734 0.273836,-5.14193 0.006,-0.16866 0.02232,-0.33176 0.03901,-0.4909 -2.537409,-1.7038 -0.05027,-4.20391 6.063808,-4.187 z m -77.235776,0.38161 h 0.002 c 0.756132,-0.0159 1.530706,0.12842 2.242235,0.43715 0.472361,-0.0384 0.973842,-0.0608 1.507298,-0.0609 0.411589,-1e-4 0.840735,0.0107 1.288301,0.0358 1.715335,0.0968 3.435035,0.1471 5.15596,0.18631 2.252813,0.0493 4.507336,0.0602 6.761275,0.0717 2.816876,0.0558 5.632525,0.12548 8.450124,0.16662 2.802598,0.0388 5.606584,0.053 8.409805,0.0645 1.922407,0.007 3.844452,0.0105 5.766919,0.0125 1.519485,0.002 3.039955,0.004 4.55938,0.004 0.867682,1.7e-4 1.734802,-6e-5 2.602504,0 4.222458,3.1e-4 6.584186,1.113 7.086954,2.35776 0.371451,0.0336 0.650576,0.49473 0.82135,1.65186 0.03901,0.25418 0.09311,0.50658 0.11543,0.76146 0.02232,0.24701 0.01609,1.27246 0.01609,1.50673 0,0.78356 -0.01207,1.56708 -0.02232,2.3506 -0.01609,1.8358 -0.232551,3.6663 -0.437792,5.49667 -0.205805,1.84853 -0.327933,3.70007 -0.406583,5.55219 -0.05751,1.58363 -0.08426,3.16744 -0.100951,4.75136 -0.01207,1.18875 -0.01609,2.37834 -0.01609,3.5671 -0.0014,0.66646 -0.002,1.33298 -0.002,1.99945 -4.03e-4,0.49158 -0.06576,0.94222 -0.181794,1.35267 1.555502,1.10487 2.055937,2.09391 -1.452559,2.30938 -0.07984,0.006 -0.159472,0.007 -0.239268,0.0131 -1.576798,1.04285 -3.821687,1.05653 -5.415338,0.0412 -1.543918,2e-5 -3.087374,7e-5 -4.631433,0 -2.748945,-1.1e-4 -5.496683,4.3e-4 -8.245567,0 -3.195445,-6.9e-4 -6.392458,-0.004 -9.588506,-0.006 -2.718901,-0.004 -5.437439,-0.006 -8.156159,-0.0288 -2.635625,-0.0245 -5.272577,-0.0595 -7.905467,-0.1415 -2.238314,-0.0801 -4.498869,-0.14974 -6.689201,-0.46761 -6.767709,-0.98223 -7.373098,-3.90413 -3.582379,-5.09894 -0.004,-0.20377 -0.006,-0.40758 -0.01207,-0.61093 -0.02112,-0.67178 -0.05027,-1.34282 -0.109599,-2.01378 -0.07059,-0.74846 -0.169326,-1.4952 -0.253586,-2.24309 -0.118046,-0.82456 -0.296662,-1.64567 -0.374688,-2.47242 -0.119051,-0.91825 -0.287874,-1.83425 -0.383295,-2.75371 -0.14077,-0.95162 -0.349913,-1.8988 -0.423696,-2.85404 -0.05027,-1.07867 -0.108191,-2.15816 -0.08647,-3.23745 -1.6e-4,-1.07714 9.66e-4,-2.15319 0,-3.23027 -0.0011,-0.77618 -0.004,-1.55291 -0.01207,-2.32909 -0.004,-0.475 -0.008,-0.9496 -0.03459,-1.42434 -0.02172,-0.32523 -0.04846,-0.65065 -0.100951,-0.97464 h 0.002 c -0.494805,-3.05481 1.699046,-4.68855 4.075193,-4.7424 z"
       id="rect280" />
    <path
       style="fill:#ffffff;stroke-width:1.20606"
       d="m 53.99964,145.62883 c 0.248719,0.94859 0.474674,1.89925 0.657111,2.85405 0.258916,1.55622 0.3548,3.12027 0.438115,4.68327 0.01207,0.27583 0.0181,0.55199 0.02996,0.82773 1.207701,5.8e-4 2.415401,0.002 3.62274,0.002 2.74814,4.3e-4 5.494511,-1.1e-4 8.242651,0 0.902171,4e-5 1.804221,0 2.706191,0 6e-5,-1.19657 0.006,-2.39385 0.0181,-3.5904 0.0181,-1.44285 0.04203,-2.88595 0.08929,-4.32854 -2.789386,-0.0588 -5.576077,-0.15086 -8.363713,-0.24366 -2.480256,-0.0711 -4.960874,-0.13364 -7.441411,-0.20422 z"
       id="path1375" />
    <path
       style="fill:#ffffff;stroke-width:1.20606"
       d="m 52.074438,131.69011 v 0.40668 2.6498 c 0.08567,1.59116 0.282886,3.17875 0.51602,4.76389 0.169527,1.07849 0.397352,2.15323 0.654216,3.2249 2.802698,0.0827 5.607126,0.15442 8.409804,0.23471 2.764148,0.0915 5.525963,0.18568 8.291618,0.24366 0.07501,-1.15769 0.170734,-2.31436 0.299658,-3.47033 0.05993,-0.51669 0.115029,-1.03297 0.17013,-1.54977 -0.99349,-0.59792 -1.875169,-1.49844 -2.461252,-2.7304 -0.343417,-0.72123 -0.51781,-1.46807 -0.69168,-2.21086 -0.10779,-0.45853 -0.168924,-0.92122 -0.224749,-1.38312 -0.004,-0.0401 -0.006,-0.0805 -0.01207,-0.11998 -0.779239,-7.1e-4 -1.558478,-0.001 -2.337375,-0.002 -1.936946,-0.002 -3.873129,-0.006 -5.810156,-0.0131 -2.266347,-0.009 -4.532593,-0.0208 -6.798759,-0.0447 z"
       id="path1337" />
    <path
       style="fill:#ffffff;stroke-width:1.20606"
       d="m 31.04132,144.66495 c 0.07501,0.50625 0.152835,1.01268 0.219359,1.51929 0.07963,0.80982 0.251112,1.61447 0.368574,2.42225 0.09291,0.806 0.196675,1.61196 0.273897,2.41869 0.06717,0.74599 0.101957,1.49255 0.124078,2.23951 0.004,0.16771 0.006,0.3356 0.006,0.50344 0.528006,0.0223 1.056977,0.0425 1.585164,0.061 2.504287,0.0767 5.012456,0.11118 7.519217,0.13439 2.67868,0.0225 5.356295,0.0236 8.035157,0.0269 0.4465,4.3e-4 0.893423,-3.9e-4 1.340144,0 -0.01207,-0.2431 -0.0181,-0.48599 -0.02393,-0.72919 -0.07783,-1.48178 -0.16832,-2.96577 -0.409337,-4.4414 -0.212763,-1.11797 -0.490843,-2.22989 -0.792552,-3.33957 -2.495338,-0.0874 -4.988726,-0.19204 -7.478856,-0.33145 -0.06777,-0.004 -5.752159,-0.29389 -6.032109,-0.30638 -1.577059,-0.07 -3.155808,-0.12447 -4.73522,-0.17744 z"
       id="path1383" />
    <path
       style="fill:#ffffff;stroke-width:1.20606"
       d="m 30.378477,131.27623 c 0.006,0.30988 0.01207,0.62022 0.01207,0.92985 0.004,0.78689 0.004,1.57268 0.006,2.35955 9.45e-4,1.07837 0.002,2.15728 0.002,3.23566 -0.02393,1.02377 0.02996,2.0459 0.08084,3.06903 0.036,0.3036 0.08084,0.60562 0.129507,0.90835 1.817715,0.0591 3.635048,0.12185 5.449927,0.20242 0.399745,0.0169 5.875131,0.29714 6.127209,0.30996 2.119806,0.11867 4.242809,0.21124 6.366456,0.29025 -0.213949,-0.93455 -0.403344,-1.87138 -0.550187,-2.81104 -0.245119,-1.67171 -0.454886,-3.34538 -0.535788,-5.02367 v -2.6498 -0.47657 c -1.821415,-0.0354 -3.643072,-0.0777 -5.464366,-0.11642 -2.342161,-0.0112 -4.685469,-0.0236 -7.026423,-0.0753 -1.532376,-0.0354 -3.065495,-0.0741 -4.593969,-0.15235 z"
       id="path1205" />
    <path
       style="fill:#ffffff;stroke-width:1.20606"
       d="m 147.28554,143.62044 c -0.71195,6e-4 -1.424,3.4e-4 -2.13563,0.002 -1.45266,0.004 -2.90506,0.007 -4.35766,0.0187 -3.43515,0.0247 -6.86971,0.0595 -10.30325,0.13252 -1.24018,0.0301 -2.18472,0.0515 -3.23366,0.0824 0.036,0.14505 0.063,0.29047 0.0983,0.43536 0.362,1.48083 0.9476,2.93304 1.62838,4.36795 0.68527,1.47001 1.15759,2.97441 1.6283,4.47545 0.2787,0.8561 0.49026,1.71912 0.70614,2.58172 h 6.02346 7.63451 2.60246 c -0.0539,-1.12266 -0.0653,-2.24485 -0.0605,-3.36824 -0.0121,-1.77152 -0.03,-3.5426 -0.072,-5.31392 -0.036,-1.13779 -0.0833,-2.27559 -0.15827,-3.41302 z"
       id="path1451" />
    <path
       style="fill:#ffffff;stroke-width:1.20606"
       d="m 126.8951,131.59156 c -0.0929,0.46389 -0.17858,0.92882 -0.25653,1.39387 -0.2715,1.45404 -0.28648,2.91586 -0.23613,4.37692 0.036,1.21501 0.1462,2.42775 0.32003,3.63695 1.19165,-0.0367 2.18257,-0.0571 3.58524,-0.0913 3.47616,-0.0741 6.95517,-0.10968 10.433,-0.13439 1.46464,-0.009 2.93042,-0.015 4.3951,-0.0187 0.63344,-0.001 1.26632,-0.001 1.89926,-0.002 -0.1834,-1.77473 -0.38894,-3.54824 -0.47286,-5.32648 -0.03,-1.10154 -0.0539,-2.20387 -0.0833,-3.30551 -1.52127,0.0391 -3.04391,0.0359 -4.56806,-0.0215 -4.07878,-0.0979 -8.15437,-0.23523 -12.22848,-0.39235 -0.92902,-0.0372 -1.85822,-0.0771 -2.78693,-0.11642 z"
       id="path1413" />
    <path
       style="fill:#ffffff;stroke-width:1.20606"
       d="m 122.62968,144.0343 c -2.5647,0.11847 -5.12591,0.26037 -7.68928,0.39059 -1.00114,0.0445 -2.00104,0.0968 -3.00312,0.13251 -2.08902,0.0747 -4.18407,0.10912 -6.27705,0.10033 0.03,0.13963 0.0605,0.27827 0.0953,0.41745 0.21935,0.9542 0.50522,1.90297 0.7724,2.85225 0.37098,1.03218 0.56816,2.07892 0.70326,3.13172 0.1468,1.07042 0.25831,2.14291 0.33982,3.21595 0.036,0.45129 0.0539,0.9011 0.0778,1.35267 0.001,0.0301 -9e-4,0.0578 0,0.0878 h 13.06429 5.93411 c -0.17013,-0.67968 -0.34581,-1.35868 -0.56517,-2.03349 -0.4423,-1.41264 -0.88023,-2.82987 -1.52168,-4.21386 -0.74064,-1.56273 -1.373,-3.14419 -1.76669,-4.75673 -0.0539,-0.22584 -0.1096,-0.45132 -0.1643,-0.67724 z"
       id="path1459" />
    <path
       style="fill:#ffffff;stroke-width:1.20606"
       d="m 105.42386,130.61334 c -0.069,1.35653 -0.17375,2.71184 -0.22774,4.06875 -0.0611,2.13082 -0.11865,4.26169 -0.036,6.39248 0.0239,0.23849 0.0479,0.47788 0.075,0.71664 2.16765,0.0168 4.33727,-0.0187 6.50186,-0.0968 0.95898,-0.0346 1.91808,-0.0861 2.87628,-0.12896 2.50004,-0.12746 4.99785,-0.26475 7.49906,-0.38162 -0.16711,-1.25205 -0.26488,-2.50734 -0.32002,-3.76238 -0.0539,-1.5805 -0.03,-3.16059 0.26249,-4.73345 0.0726,-0.4313 0.15042,-0.86279 0.23315,-1.29354 -2.76668,-0.11979 -5.534,-0.23777 -8.30314,-0.33682 -2.45831,-0.11118 -4.91273,-0.23149 -7.36648,-0.37623 -0.39677,-0.0236 -0.79309,-0.0462 -1.19032,-0.0681 z"
       id="path1299" />
    <path
       style="fill:#ffffff;stroke-width:1.20606"
       d="M 93.120478,66.138599 -0.2749175,107.02318 21.642992,143.60073 c -0.136948,-0.85352 -0.311301,-1.70454 -0.377583,-2.56201 -0.05027,-1.07861 -0.108192,-2.15811 -0.08647,-3.23743 -1.81e-4,-1.07714 9.45e-4,-2.15315 0,-3.23027 -0.0011,-0.7762 -0.006,-1.55293 -0.008,-2.32911 -0.006,-0.47495 -0.01005,-0.94958 -0.03781,-1.42432 -0.02212,-0.32525 -0.04846,-0.65065 -0.100951,-0.97464 h 0.002 c -0.495167,-3.05727 1.702605,-4.69105 4.080964,-4.7424 0.757018,-0.0163 1.532698,0.12803 2.245091,0.43715 0.472402,-0.0384 0.973843,-0.0608 1.507319,-0.0609 0.41179,-1e-4 0.840715,0.0107 1.288261,0.0358 1.715335,0.0968 3.435054,0.1471 5.15596,0.18631 2.252793,0.0493 4.507335,0.0602 6.761294,0.0717 2.816896,0.0558 5.632525,0.12546 8.450125,0.16662 2.802578,0.0388 5.606583,0.053 8.409804,0.0645 1.922407,0.007 3.844513,0.0105 5.76696,0.0125 1.519485,0.002 3.039975,0.004 4.55938,0.004 0.867702,1.6e-4 1.734801,-7e-5 2.602504,0 4.221714,3e-4 6.584146,1.11299 7.086914,2.35776 0.371591,0.0336 0.650576,0.49469 0.821389,1.65186 0.036,0.25418 0.09291,0.50658 0.115029,0.76145 0.02393,0.24701 0.0181,1.27247 0.01207,1.50674 0,0.78355 -0.01207,1.56706 -0.0181,2.35059 -0.0181,1.83584 -0.232551,3.66634 -0.438115,5.49666 -0.205563,1.84858 -0.327831,3.70005 -0.40634,5.55221 -0.05993,1.58359 -0.08386,3.1674 -0.100751,4.75136 -0.01207,1.18871 -0.01207,2.37837 -0.0181,3.5671 -0.0014,0.66646 -0.002,1.33302 -0.002,1.99944 -4.22e-4,0.49299 -0.06536,0.94486 -0.181593,1.35625 1.551601,1.10345 2.046466,2.09056 -1.45829,2.30581 -0.07782,0.006 -0.155852,0.007 -0.233134,0.0131 -1.576818,1.04288 -3.821728,1.05617 -5.415378,0.0412 -1.545789,0 -3.091215,5e-5 -4.637185,0 -2.748925,-1.2e-4 -5.496642,4.3e-4 -8.245527,0 -3.196088,-7e-4 -6.392458,-2.1e-4 -9.588546,-0.006 -2.718841,-0.004 -5.437459,-0.006 -8.156179,-0.0288 -2.635585,-0.0245 -5.272517,-0.0595 -7.905407,-0.1415 -0.646795,-0.0232 -1.294254,-0.0459 -1.942537,-0.0734 l 6.925572,11.5577 117.100188,-1.32043 34.01378,-64.83127 z m 9.234072,58.580341 h 0.002 c 0.41412,10e-4 0.84461,0.0122 1.29111,0.0376 3.66526,0.2075 7.32922,0.41647 11.00075,0.58227 5.21074,0.18594 10.41516,0.4384 15.62355,0.64677 3.99522,0.1538 7.9923,0.28942 11.99215,0.3852 1.85594,0.0708 3.70593,0.0623 5.55659,-0.043 0.20976,-0.0167 0.41832,-0.0319 0.62827,-0.0484 0.4537,-0.0357 0.88168,-0.0517 1.29695,-0.0591 h 0.002 c 0.34702,-0.0724 0.70445,-0.10931 1.06345,-0.10927 0.59393,1e-5 1.19379,0.0993 1.75805,0.2974 3.28646,0.56376 4.38521,2.2485 3.01749,3.6316 0.0239,0.17388 0.0479,0.35377 0.0539,0.53928 0.0796,1.5798 0.0881,3.16039 0.13855,4.74061 0.10256,2.01067 0.3578,4.01579 0.55017,6.02339 0.18039,1.85684 0.26972,3.71769 0.32844,5.57729 0.036,1.39655 0.0539,2.79251 0.0635,4.18878 1.41087,0.66115 2.45048,2.02666 2.36038,4.0831 -0.03,0.74318 -0.0708,1.48588 -0.12106,2.22876 -0.0239,0.39475 -0.0905,0.76299 -0.18762,1.10542 0.0599,0.50316 -0.17918,1.00884 -0.70894,1.45659 -1.37612,1.86206 -4.03425,2.35846 -5.98026,1.48882 -0.20197,0.002 -0.40274,0.004 -0.61388,0 -0.69385,-0.0131 -1.38662,-0.0292 -2.08081,-0.0232 h -4.42104 -7.63453 -16.62649 -15.96359 c -6.644983,0 -8.682922,-2.75455 -6.115711,-4.44499 -0.109599,-0.37169 -0.184609,-0.77165 -0.204377,-1.20934 -0.02393,-0.41621 -0.04203,-0.83278 -0.06898,-1.24875 -0.07682,-1.01326 -0.184609,-2.02599 -0.323045,-3.03677 -0.108393,-0.87366 -0.275687,-1.74034 -0.59093,-2.59606 -0.27989,-0.99689 -0.578944,-1.99178 -0.809867,-2.99377 -0.365598,-1.56268 -0.566355,-3.1405 -0.688804,-4.71733 -0.07602,-2.22092 -0.02996,-4.44206 0.036,-6.663 0.06958,-1.71449 0.212159,-3.42738 0.273897,-5.14193 0.006,-0.16866 0.0181,-0.33179 0.04203,-0.4909 -2.536584,-1.70322 -0.04786,-4.20227 6.058047,-4.187 z"
       id="path286" />
  </g>
</svg>
