<?xml version="1.0" encoding="UTF-8" standalone="no"?>
<!-- Created with Inkscape (http://www.inkscape.org/) -->

<svg
   width="210mm"
   height="297mm"
   viewBox="0 0 210 297"
   version="1.1"
   id="svg5"
   inkscape:version="1.2 (dc2aedaf03, 2022-05-15)"
   sodipodi:docname="cizim1.svg"
   xmlns:inkscape="http://www.inkscape.org/namespaces/inkscape"
   xmlns:sodipodi="http://sodipodi.sourceforge.net/DTD/sodipodi-0.dtd"
   xmlns="http://www.w3.org/2000/svg"
   xmlns:svg="http://www.w3.org/2000/svg">
  <sodipodi:namedview
     id="namedview7"
     pagecolor="#505050"
     bordercolor="#ffffff"
     borderopacity="1"
     inkscape:showpageshadow="0"
     inkscape:pageopacity="0"
     inkscape:pagecheckerboard="1"
     inkscape:deskcolor="#505050"
     inkscape:document-units="mm"
     showgrid="false"
     inkscape:zoom="1.0129245"
     inkscape:cx="96.74956"
     inkscape:cy="433.89216"
     inkscape:window-width="1920"
     inkscape:window-height="991"
     inkscape:window-x="-9"
     inkscape:window-y="-9"
     inkscape:window-maximized="1"
     inkscape:current-layer="layer1" />
  <defs
     id="defs2">
    <inkscape:path-effect
       effect="spiro"
       id="path-effect2849"
       is_visible="true"
       lpeversion="1" />
    <inkscape:path-effect
       effect="spiro"
       id="path-effect2845"
       is_visible="true"
       lpeversion="1" />
    <inkscape:path-effect
       effect="spiro"
       id="path-effect2841"
       is_visible="true"
       lpeversion="1" />
  </defs>
  <g
     inkscape:groupmode="layer"
     id="layer1"
     inkscape:label="Layer 1">
    <path
       style="fill:#ffffff;stroke-width:0.693525"
       id="path2913"
       d="m 91.925754,72.309455 c -0.131629,1.266127 -0.393899,2.51832 -0.606172,3.774365 -0.24655,1.347923 -0.47232,2.700862 -0.643881,4.059901 -0.148892,1.459216 -0.183043,2.926291 -0.202739,4.391556 -0.01112,1.225798 -0.0083,2.451648 -0.0056,3.677446 0.0014,1.227479 0.0028,2.454984 0.0028,3.682463 2.78e-4,1.225333 2.5e-4,2.450664 2.5e-4,3.676024 -1.3e-5,1.540236 -2.7e-5,3.080472 -2.7e-5,4.62068 -0.04851,1.91693 0.13135,3.81677 0.482897,5.70019 0.333505,1.74648 0.804629,3.46406 1.209675,5.1957 0.280756,1.31983 0.518605,2.64748 0.642769,3.99016 0.110501,1.55202 0.115922,3.10873 0.122733,4.66375 0.02419,2.10587 -0.0549,4.21315 0.06046,6.31668 0.08381,2.10751 0.544305,4.15087 1.182821,6.15737 0.653945,1.87704 1.253084,3.76913 1.743125,5.69274 0.430079,2.12313 0.748739,4.26591 1.067219,6.40716 0.276044,2.08147 0.662868,4.14658 0.966295,6.22452 0.374077,2.3228 0.715853,4.64378 0.917813,6.98766 0.152922,2.62511 0.407561,5.24266 0.558482,7.86813 0.04239,1.37776 -0.0042,2.7559 -0.05129,4.13286 -0.09146,1.82768 2.565786,1.95345 2.657216,0.12568 v 0 c 0.0507,-1.48022 0.10063,-2.96181 0.0477,-4.44274 -0.15344,-2.64942 -0.40884,-5.29098 -0.56478,-7.94001 -0.20901,-2.39206 -0.55587,-4.76172 -0.9369,-7.13265 -0.3045,-2.07989 -0.690963,-4.1472 -0.967313,-6.23076 -0.331267,-2.22529 -0.660881,-4.45303 -1.121274,-6.65707 -0.5044,-1.97067 -1.116035,-3.91035 -1.785699,-5.83396 -0.57804,-1.80626 -0.987478,-3.6453 -1.059811,-5.54355 -0.126903,-2.05816 -0.01432,-4.12337 -0.05421,-6.18422 -0.0083,-1.62968 -0.01459,-3.26133 -0.137327,-4.8875 -0.140928,-1.45391 -0.391939,-2.89343 -0.702037,-4.32222 -0.39629,-1.69535 -0.858407,-3.37668 -1.185101,-5.08643 -0.319689,-1.70499 -0.476601,-3.42555 -0.433373,-5.16091 1.4e-5,-1.540238 2.8e-5,-3.080474 2.8e-5,-4.62071 0,-1.252685 2.7e-5,-2.505369 -2.65e-4,-3.758053 -3.61e-4,-1.228332 -6.94e-4,-2.456638 -0.0028,-3.684944 -0.0014,-1.186762 -0.0056,-2.373523 0.0056,-3.560233 0.01751,-1.373284 0.04768,-2.748041 0.179554,-4.116233 0.162639,-1.323906 0.388242,-2.640833 0.626716,-3.953571 0.216999,-1.288361 0.483675,-2.573153 0.622003,-3.871285 0.260297,-1.812225 -2.374455,-2.170302 -2.634765,-0.358076 z" />
    <path
       style="fill:#ffffff;stroke-width:0.693525"
       id="path2915"
       d="m 93.752804,73.315174 c 1.198764,0.181999 2.398028,0.363739 3.586215,0.604834 1.595303,0.503675 3.023621,1.422144 4.418601,2.310729 1.46352,0.918289 2.80865,1.998721 4.09042,3.141948 1.37851,1.270418 2.7254,2.572713 4.06319,3.883564 1.38249,1.257442 2.702,2.589078 3.91773,4.000675 1.28062,1.332231 2.33368,2.832034 3.29511,4.391504 0.70812,1.321942 1.26666,2.712572 1.85361,4.088028 1.10818,3.021788 1.86266,6.150394 2.64569,9.262594 0.65871,2.66826 1.39283,5.31827 2.06498,7.98332 0.7107,2.51049 1.07726,5.09461 1.59514,7.64516 0.40118,1.67299 0.62434,3.37338 0.72568,5.0861 0.0619,1.5581 -0.063,3.11757 -0.11773,4.67495 -0.0111,1.4931 -0.1414,2.98042 -0.22139,4.47061 -0.006,1.41485 -0.24504,2.80388 -0.50475,4.19066 -0.32882,1.89097 -0.68639,3.76979 -1.1631,5.63159 -0.43432,1.79827 -0.95267,3.57986 -1.72654,5.26903 -0.46758,0.75876 -0.83487,1.57692 -1.32977,2.32026 -0.13635,0.20476 -0.75138,0.99159 -0.84788,1.11645 -1.15463,1.51436 -2.36552,2.98185 -3.64725,4.39611 -1.29823,1.42325 -2.57669,2.86335 -3.87959,4.28238 -1.04194,1.1848 -2.29099,2.16883 -3.5539,3.11969 -0.82624,0.69243 -1.79882,1.15812 -2.78566,1.58871 -1.13171,0.51885 -2.26879,1.02682 -3.45175,1.42576 -1.07153,0.40158 -2.34642,0.59941 -3.204853,1.40152 -0.188214,0.17579 -0.317702,0.40285 -0.476559,0.60428 -0.08715,0.28435 -0.174467,0.56873 -0.2617,0.8531 -0.319717,1.8032 2.301942,2.24302 2.621662,0.43982 v 0 c -0.0488,0.0476 -0.0976,0.0949 -0.14631,0.14245 -0.16429,-0.19312 0.26146,-0.27027 0.52564,-0.37225 0.59509,-0.22982 1.2003,-0.44031 1.81216,-0.62339 1.25278,-0.42938 2.4664,-0.95092 3.66466,-1.50758 1.1731,-0.5164 2.32959,-1.07941 3.3182,-1.89633 1.38871,-1.04749 2.75926,-2.13409 3.90772,-3.43589 1.30655,-1.42331 2.58924,-2.86711 3.89107,-4.29471 1.32678,-1.46439 2.58276,-2.98211 3.7783,-4.54985 0.30388,-0.39349 0.7419,-0.94518 1.02023,-1.36362 0.54702,-0.82234 0.95529,-1.72678 1.46467,-2.57002 0.83053,-1.82702 1.41797,-3.7414 1.88014,-5.68703 0.49056,-1.91462 0.86405,-3.84605 1.20073,-5.79092 0.28034,-1.49427 0.53871,-2.99291 0.54883,-4.51705 0.0798,-1.50538 0.21422,-3.0078 0.22405,-4.5161 0.0577,-1.66374 0.19216,-3.32956 0.11342,-4.9941 -0.11342,-1.82828 -0.35085,-3.64415 -0.77616,-5.43087 -0.52556,-2.58898 -0.89961,-5.21159 -1.62284,-7.75956 -0.67355,-2.66405 -1.40513,-5.31395 -2.06446,-7.98139 -0.81541,-3.23892 -1.60164,-6.496063 -2.77623,-9.634108 -0.63665,-1.491634 -1.24203,-3.001157 -2.03272,-4.423948 -1.03635,-1.67278 -2.17008,-3.283746 -3.54031,-4.718713 -1.26847,-1.460561 -2.62826,-2.851269 -4.06569,-4.155424 -1.36842,-1.339263 -2.74424,-2.671624 -4.15546,-3.968359 -1.39039,-1.232908 -2.84466,-2.40222 -4.42937,-3.394083 -1.67203,-1.058845 -3.386061,-2.144475 -5.324738,-2.670537 -1.363126,-0.273876 -2.738386,-0.503855 -4.121472,-0.657753 -1.881147,0 -1.881147,2.587786 0,2.587786 z" />
    <path
       style="fill:#ffffff;stroke-width:0.693525"
       id="path2917"
       d="m 93.069504,72.307258 c 0.897992,0.481829 1.891682,0.751982 2.88472,0.976247 0.950643,0.202164 1.921664,0.247146 2.890947,0.268552 0.899994,0.0077 1.794529,0.119954 2.692319,0.175793 1.20737,0.04756 2.41384,0.05816 3.62027,0.130038 1.20041,0.19027 2.3847,0.473971 3.57419,0.722978 1.30864,0.168813 2.56277,0.554369 3.828,0.905052 1.51384,0.441139 2.94887,1.091523 4.38922,1.715486 1.33299,0.558817 2.57634,1.273651 3.80886,2.012424 1.51595,0.818758 2.87818,1.864109 4.19462,2.953693 1.34143,1.275511 2.63902,2.597428 3.8974,3.950521 0.21261,0.232152 0.42488,0.464173 0.63747,0.696143 0.43661,0.476426 0.83396,0.884345 1.21946,1.402755 0.84975,1.14258 1.59008,2.371559 2.36815,3.560311 1.27019,2.030725 2.63266,4.005974 3.63442,6.17961 0.4879,1.123811 0.79095,2.315409 1.30883,3.428129 0.28469,0.61171 0.56739,1.06841 0.90551,1.6499 0.82711,1.35232 1.72684,2.66503 2.46419,4.06693 0.70039,1.22787 1.23992,2.51964 1.75113,3.82902 0.66343,2.10471 1.54142,4.13327 2.42867,6.15536 0.61826,1.35418 1.10423,2.75058 1.55393,4.16401 0.46396,1.61101 0.75386,3.26337 1.01913,4.91439 0.31751,1.95179 0.48867,3.91998 0.71965,5.88168 0.24983,1.73629 0.38781,3.48345 0.46811,5.23405 0.003,0.86382 0.0869,1.73268 0.0499,2.5967 -0.0139,0.30421 -0.0859,0.61954 -0.14271,0.91651 -0.24213,1.22856 -0.90995,2.24907 -1.65301,3.24274 -0.91954,1.30971 -2.08176,2.42438 -3.23059,3.53992 -1.6159,1.51345 -3.21281,3.04541 -4.79808,4.58939 -1.76482,1.66235 -3.60215,3.25279 -5.45273,4.82433 -1.50408,1.29893 -3.16971,2.39425 -4.82912,3.49188 -1.59429,1.06874 -3.26223,2.02507 -4.8785,3.06089 -1.55922,0.96739 -3.19968,1.79854 -4.84163,2.62265 -1.55473,0.8255 -3.10014,1.66864 -4.67531,2.45701 -1.55419,0.74483 -3.13678,1.43397 -4.74458,2.06217 -1.48307,0.57205 -3.05038,0.85606 -4.61308,1.12992 -1.85663,0.32237 -3.7156,0.63261 -5.563212,1.00168 -1.05218,0.20941 -0.545334,0.0951 -1.521636,0.33841 -1.822282,0.45422 -1.161916,2.961 0.660366,2.50678 v 0 c 0.844549,-0.2156 0.381487,-0.10828 1.392152,-0.30944 1.82632,-0.36627 3.66477,-0.67027 5.50013,-0.98998 1.73849,-0.30565 3.4796,-0.63234 5.12794,-1.27259 1.68347,-0.6585 3.34126,-1.37926 4.96831,-2.1605 1.5756,-0.78931 3.12363,-1.62938 4.67751,-2.45814 1.72511,-0.86579 3.4476,-1.74101 5.08453,-2.75926 1.62592,-1.04365 3.30626,-2.00382 4.90984,-3.08107 1.74686,-1.1555 3.49773,-2.31199 5.08145,-3.67881 1.89583,-1.60988 3.77791,-3.23932 5.58513,-4.94295 1.58424,-1.54311 3.1799,-3.07443 4.79517,-4.58662 1.2481,-1.21173 2.50425,-2.42799 3.50598,-3.84835 0.96976,-1.30796 1.81288,-2.6777 2.12461,-4.28706 0.25142,-1.39591 0.20251,-2.7519 0.13663,-4.1623 -0.0848,-1.80925 -0.22883,-3.61495 -0.48519,-5.40972 -0.23493,-1.99719 -0.41125,-4.00085 -0.73605,-5.98771 -0.28772,-1.77264 -0.60072,-3.54696 -1.11028,-5.27425 -0.47776,-1.49654 -0.99807,-2.97483 -1.65028,-4.4098 -0.87329,-1.99073 -1.73175,-3.98891 -2.38775,-6.05991 -0.54662,-1.39981 -1.13291,-2.77834 -1.87608,-4.09317 -0.76279,-1.42665 -1.65931,-2.77855 -2.51395,-4.15411 -0.22139,-0.3792 -0.56095,-0.93967 -0.7495,-1.34348 -0.53447,-1.144853 -0.82926,-2.379312 -1.35402,-3.527941 -1.06622,-2.278855 -2.46775,-4.37072 -3.8163,-6.498546 -0.83072,-1.269127 -1.62562,-2.574652 -2.54043,-3.789283 -0.41727,-0.554059 -0.83922,-0.991191 -1.30554,-1.499854 -0.21766,-0.23758 -0.43525,-0.475057 -0.65288,-0.712585 -1.33814,-1.432562 -2.7076,-2.841936 -4.14541,-4.1805 -1.42007,-1.171174 -2.88957,-2.293952 -4.51954,-3.18021 -1.33212,-0.798232 -2.68083,-1.564097 -4.11986,-2.170171 -1.55381,-0.672876 -3.10404,-1.368812 -4.73936,-1.837793 -1.32026,-0.365858 -2.63183,-0.763487 -3.99603,-0.945434 -1.31852,-0.275581 -2.63012,-0.601679 -3.96741,-0.774965 -1.20409,-0.07136 -2.40803,-0.08634 -3.61314,-0.129772 -0.934,-0.05765 -1.864547,-0.176569 -2.801166,-0.180447 -0.79016,-0.0181 -1.582377,-0.04472 -2.358582,-0.20449 -0.742971,-0.164935 -1.491808,-0.355956 -2.168047,-0.706613 -1.638128,-0.899597 -2.946031,1.353843 -1.307903,2.253442 z" />
    <path
       style="fill:#ffffff;stroke-width:0.693525"
       id="path2919"
       d="m 91.351412,96.659268 c 1.073168,0.650024 2.110558,1.352267 3.156956,2.041921 0.975357,0.732154 1.974413,1.414931 3.043939,2.012421 1.231039,0.62546 2.501013,1.17441 3.796163,1.66081 1.29796,0.54587 2.65252,0.92522 4.03389,1.2068 1.61866,0.25154 3.2698,0.30968 4.90685,0.26772 1.50546,-0.008 2.91814,-0.4591 4.29722,-1.00246 1.52609,-0.54638 2.95441,-1.28614 4.34514,-2.09815 1.44736,-0.888274 2.92715,-1.735677 4.32791,-2.692795 1.33739,-0.900658 2.53014,-1.966768 3.70415,-3.055758 0.99011,-0.939306 2.04144,-1.808735 3.03534,-2.744137 0.89984,-0.858236 1.78143,-1.721562 2.46922,-2.753393 0.34842,-0.649946 0.19215,-0.324391 0.47222,-0.975163 0.72888,-1.686894 -1.72365,-2.68959 -2.45255,-1.00267 v 0 c -0.15336,0.386384 -0.0694,0.196217 -0.25222,0.570528 -0.54985,0.876667 -1.34445,1.553343 -2.07169,2.287048 -0.9895,0.93106 -2.03678,1.796042 -3.02196,2.731833 -1.08113,1.003729 -2.17259,1.991922 -3.40624,2.820427 -1.33915,0.931034 -2.77809,1.72606 -4.16347,2.589568 -1.27383,0.747613 -2.58208,1.42628 -3.9836,1.923772 -1.08309,0.43631 -2.18735,0.81036 -3.37498,0.8146 -1.4315,0.0439 -2.8762,-0.0155 -4.29391,-0.21535 -1.24244,-0.25024 -2.45712,-0.59661 -3.62267,-1.090019 -1.17137,-0.43946 -2.318986,-0.935895 -3.435228,-1.495694 -1.014276,-0.562513 -1.94553,-1.225307 -2.87449,-1.910902 -1.101815,-0.726028 -2.193775,-1.466635 -3.328087,-2.144372 -1.638128,-0.899597 -2.946031,1.35387 -1.307903,2.253467 z" />
    <path
       style="fill:#ffffff;stroke-width:0.693525"
       id="path2925"
       d="m 96.534751,128.24531 c 2.583545,0.19932 5.181479,0.0582 7.767709,-0.0181 3.53505,-0.1011 7.07082,-0.17604 10.60712,-0.21818 0.42032,0.005 0.84098,0.001 1.26098,0.0181 1.52169,0.0615 3.03959,0.19984 4.56249,0.25051 1.52804,0.0509 1.58143,0.0326 3.0655,0.0106 2.15271,-0.099 4.26583,-0.53054 6.30546,-1.1913 1.44161,-0.5034 2.72751,-1.32735 4.06554,-2.03645 1.03674,-0.5128 2.10479,-0.95919 3.19434,-1.35355 1.04647,-0.37809 2.14564,-0.56701 3.25248,-0.67117 1.1476,-0.0781 2.29905,-0.0683 3.44872,-0.0683 0.60996,-0.0133 1.21807,-0.0631 1.82616,-0.10801 1.87584,-0.13753 1.67595,-2.71795 -0.19986,-2.58047 v 0 c -0.54169,0.0401 -1.08332,0.0845 -1.62652,0.10057 -1.23585,1.2e-4 -2.47376,-0.0106 -3.70705,0.0804 -1.33238,0.13007 -2.65469,0.36205 -3.91424,0.81869 -1.20638,0.43817 -2.39036,0.93142 -3.53662,1.50379 -1.20162,0.63869 -2.35733,1.37757 -3.63952,1.85772 -1.78196,0.58405 -3.63085,0.96201 -5.51261,1.06037 -1.39388,0.0233 -1.45072,0.0411 -2.89662,-0.008 -1.55171,-0.0514 -3.09853,-0.19208 -4.64922,-0.25308 -0.44355,-0.0181 -0.88772,-0.0133 -1.33159,-0.0181 -3.55262,0.0424 -7.10472,0.11757 -10.65608,0.21922 -2.45051,0.0735 -4.910932,0.20655 -7.359819,0.0377 -1.866928,-0.22466 -2.193622,2.34348 -0.326694,2.56819 z" />
    <path
       style="fill:#ffffff;stroke-width:0.693525"
       id="path2927"
       d="m 100.87059,150.19109 c 2.03804,-0.33434 4.04075,-0.87063 6.03384,-1.40023 1.65025,-0.43507 3.32236,-0.97385 5.05691,-0.8707 0.30304,0.0181 0.60217,0.076 0.90325,0.11399 2.48423,0.47527 4.87361,1.32391 7.19486,2.29165 1.76833,0.70682 3.40394,1.65477 5.03938,2.60578 1.2286,0.75679 2.53098,1.4163 3.72065,2.23111 0.91561,0.59115 1.68283,1.35826 2.44682,2.11864 0.42214,0.47124 0.82043,0.96041 1.21903,1.45022 1.18061,1.4246 3.25181,-0.19957 2.07121,-1.62407 v 0 c -0.4555,-0.56009 -0.91207,-1.11871 -1.40321,-1.65024 -0.88136,-0.87588 -1.77661,-1.74746 -2.83075,-2.4297 -1.24967,-0.8339 -2.58417,-1.54704 -3.87106,-2.32428 -1.73713,-1.01 -3.47981,-2.00859 -5.35661,-2.76117 -2.55429,-1.05874 -5.18383,-1.99194 -7.92338,-2.47846 -0.41447,-0.0437 -0.82697,-0.11173 -1.24337,-0.13099 -1.95863,-0.091 -3.85454,0.45228 -5.71823,0.96022 -1.77112,0.47102 -3.5534,0.89974 -5.33934,1.3105 -1.881156,0 -1.881156,2.58779 0,2.58779 z" />
    <path
       style="fill:#ffffff;stroke-width:0.693525"
       id="path2929"
       d="m 87.117674,71.204876 c -1.029732,0 -2.059464,0 -3.08921,0 -1.234527,-0.0181 -2.464802,0.173208 -3.67438,0.397087 -1.159178,0.286595 -2.347628,0.39825 -3.530936,0.538522 -1.253,0.165453 -2.517801,0.207334 -3.780377,0.237063 -1.534271,0.02585 -3.068861,0.02326 -4.603299,0.02326 -1.984087,0.05739 -3.899274,0.681356 -5.803035,1.180169 -1.782891,0.350839 -3.396606,1.193432 -4.985865,2.020025 -1.52935,0.819275 -2.838336,1.932255 -4.093604,3.09787 -1.268416,1.211915 -2.568211,2.392162 -3.847001,3.593764 -1.404643,1.18751 -2.817363,2.363156 -4.044646,3.727314 -1.102774,1.203462 -2.063282,2.516925 -2.887021,3.913812 -0.775858,1.284947 -1.498217,2.595229 -2.119206,3.95763 -0.682708,1.483 -0.85155,3.091666 -0.95326,4.69343 -0.06618,1.483648 -0.05738,2.969108 -0.05344,4.453758 0.0069,1.23697 -0.152288,2.43906 -0.490477,3.6289 -0.507924,1.59781 -0.74255,3.24745 -0.878975,4.90875 -0.120258,1.51177 7.05e-4,3.02665 0.155343,4.5311 0.162599,1.35855 0.199274,2.7255 0.225931,4.09155 0.0341,1.49186 -0.0088,2.98459 0.05161,4.47568 0.0597,1.41182 0.237385,2.81272 0.571217,4.18717 0.323717,1.16122 0.456241,2.3582 0.729926,3.52923 0.367063,1.31084 0.715919,2.62566 1.018204,3.95214 0.388602,1.39391 0.827479,2.7744 1.352455,4.12537 0.708783,1.66061 1.569305,3.24653 2.467593,4.81531 0.813354,1.45789 1.597762,2.92854 2.364985,4.40949 0.602419,1.26696 1.049756,2.58877 1.652125,3.8557 0.770035,1.54894 1.6812,3.02661 2.671875,4.45026 1.054636,1.43545 2.217217,2.79117 3.339204,4.17667 0.98019,1.28854 2.194387,2.38475 3.334816,3.53578 1.226889,1.23237 2.45962,2.45719 3.710882,3.66643 1.143708,1.10807 2.364823,2.12733 3.71259,2.9911 1.078561,0.76463 2.147448,1.54425 3.228941,2.30684 1.176567,0.99359 2.554468,1.67068 3.94877,2.31778 1.411441,0.61227 2.830512,1.21166 4.276048,1.74413 1.61682,0.57887 3.31833,0.70651 5.022508,0.7835 1.568783,0.13152 3.121679,-0.0571 4.673463,-0.25413 0.955648,-0.10827 1.912963,-0.17424 2.861147,-0.33825 0.933478,-0.16261 1.873321,-0.29269 2.813429,-0.4151 0.617431,-0.0703 0.28811,-0.0155 0.985101,-0.1776 1.820767,-0.45994 1.152089,-2.96464 -0.668678,-2.50472 v 0 c -0.345487,0.11173 -0.12732,0.0553 -0.666413,0.11704 -0.980472,0.12794 -1.96068,0.2641 -2.934369,0.43345 -0.903538,0.16442 -1.820781,0.20269 -2.731158,0.31874 -1.39932,0.1776 -2.796041,0.36262 -4.211457,0.23551 -1.426772,-0.0631 -2.853835,-0.14451 -4.21129,-0.62206 -1.377359,-0.50628 -2.727989,-1.07982 -4.073421,-1.66096 -1.251541,-0.58086 -2.486527,-1.17965 -3.536052,-2.08212 -1.113893,-0.78507 -2.213178,-1.58948 -3.327586,-2.37223 -1.202128,-0.76759 -2.281022,-1.68624 -3.301761,-2.67121 -1.238184,-1.19555 -2.456643,-2.40782 -3.670141,-3.62686 -1.079698,-1.0895 -2.23275,-2.12471 -3.160399,-3.34452 -1.083171,-1.33778 -2.205278,-2.6469 -3.226955,-4.03026 -0.913133,-1.30727 -1.746316,-2.66884 -2.457706,-4.09085 -0.615187,-1.2915 -1.052829,-2.6493 -1.690996,-3.93176 -0.783298,-1.51273 -1.5863,-3.01392 -2.417154,-4.5028 -0.835537,-1.45955 -1.637975,-2.93338 -2.30112,-4.47676 -0.481097,-1.23689 -0.878748,-2.50188 -1.240361,-3.77657 -0.305121,-1.33135 -0.652514,-2.65218 -1.022114,-3.96797 -0.279375,-1.1758 -0.397151,-2.38357 -0.734744,-3.54819 -0.296841,-1.21328 -0.439504,-2.45275 -0.495063,-3.69887 -0.06055,-1.47353 -0.01042,-2.94924 -0.04913,-4.4235 -0.0289,-1.43449 -0.07183,-2.86966 -0.241665,-4.29628 -0.135785,-1.32639 -0.249239,-2.66229 -0.149576,-3.99535 0.118827,-1.50158 0.322678,-2.99242 0.787186,-4.43545 0.400295,-1.43954 0.610139,-2.89509 0.593391,-4.39021 -0.0035,-1.40438 -0.01195,-2.80944 0.0464,-4.213 0.0771,-1.297254 0.177296,-2.608648 0.721496,-3.814669 0.580445,-1.284819 1.266217,-2.515426 1.995791,-3.72579 0.729225,-1.256149 1.598979,-2.427064 2.584328,-3.506203 1.16221,-1.319124 2.553904,-2.410543 3.883308,-3.56437 1.275452,-1.198705 2.572086,-2.37585 3.837241,-3.584767 1.080887,-1.007323 2.197767,-1.980029 3.51344,-2.694191 1.412526,-0.736007 2.838256,-1.50588 4.427388,-1.807133 1.36717,-0.358334 0.536632,-0.142703 1.945418,-0.503596 0.826146,-0.211728 1.669861,-0.47304 2.523666,-0.5621 0.215207,-0.02326 0.432456,-0.0181 0.648677,-0.02714 1.555898,0 3.111935,0.0013 4.667653,-0.02585 1.347948,-0.03231 2.697994,-0.07937 4.035781,-0.255159 1.243729,-0.148649 2.493087,-0.267361 3.712033,-0.566029 1.042728,-0.200871 2.108321,-0.3626 3.173525,-0.350812 1.029732,0 2.059464,0 3.089196,0 1.881175,0 1.881175,-2.587785 0,-2.587785 z" />
    <path
       style="fill:#ffffff;stroke-width:0.693525"
       id="path2939"
       d="m 86.519633,74.386068 c -0.197165,0.804411 -0.166391,0.712377 -0.443867,1.651554 -0.593315,2.008106 -0.435444,1.328379 -1.058587,3.651492 -0.07061,0.263354 -1.212886,4.711087 -1.279979,4.972166 -1.266816,5.291412 -2.163808,10.656244 -2.814597,16.04959 -0.579513,5.29085 -0.725236,10.6116 -0.651248,15.92793 0.01807,2.5047 0.201473,5.02012 0.619723,7.49377 0.50832,3.00636 1.318189,5.94462 2.12835,8.88317 0.894198,3.06692 1.870139,6.11608 2.993999,9.11158 0.857378,2.19553 0.440573,1.10489 1.251318,3.2716 0.95826,2.47341 1.825757,4.97684 2.522304,7.5321 0.534242,1.74069 0.821948,3.52485 0.986449,5.32937 0.154618,1.33138 0.08173,2.67708 0.172006,4.01078 0.04851,0.7164 0.133575,1.13623 0.248357,1.82781 0.26833,1.51141 0.823935,2.95312 1.447593,4.35536 0.699702,1.41269 1.223297,2.89823 1.8047,4.35834 0.535548,1.23454 1.073279,2.49485 1.257906,3.83181 -0.04156,0.45754 -0.08006,-0.0809 0.198235,-0.3663 0.148947,-0.15278 0.375245,-0.20965 0.562875,-0.31463 -1.871626,0.18405 -1.60406,2.75871 0.267566,2.57467 v 0 c 0.323414,-0.11838 0.696936,-0.14943 0.970256,-0.35513 0.656404,-0.49395 0.666885,-1.25416 0.625895,-1.96012 -0.251178,-1.51788 -0.775788,-2.96975 -1.413664,-4.3738 -0.593885,-1.49164 -1.131727,-3.00794 -1.845356,-4.45159 -0.539121,-1.20685 -1.02167,-2.4482 -1.256253,-3.74905 -0.07992,-0.47619 -0.178205,-0.99233 -0.209618,-1.47398 -0.09076,-1.39187 -0.02363,-2.79512 -0.184711,-4.1843 -0.182793,-1.94886 -0.497575,-3.87666 -1.07061,-5.75757 -0.721525,-2.62747 -1.608203,-5.20473 -2.595541,-7.74899 -0.205157,-0.54759 -0.4103,-1.09519 -0.615457,-1.64282 -0.208507,-0.53386 -0.424283,-1.06512 -0.625492,-1.60165 -1.100647,-2.93472 -2.056698,-5.92189 -2.932479,-8.92649 -0.779638,-2.82738 -1.564738,-5.65585 -2.05535,-8.54827 -0.403211,-2.37709 -0.579054,-4.79467 -0.593829,-7.20178 -0.07547,-5.17802 0.07158,-10.36023 0.629607,-15.5138 0.633442,-5.284902 1.513824,-10.541104 2.749199,-15.726833 0.02071,-0.08092 1.2345,-4.805292 1.265274,-4.92023 0.427966,-1.598997 0.969686,-3.170411 1.375621,-4.774295 0.08284,-0.327079 0.144652,-0.658812 0.216972,-0.988218 0.184099,-1.821067 -2.463495,-2.074313 -2.647595,-0.25335 z" />
    <path
       style="fill:#ffffff;stroke-width:0.693525"
       id="path2941"
       d="m 73.108182,72.044963 c -0.583002,1.15941 -1.166754,2.319207 -1.657087,3.518819 -0.564334,1.281586 -0.873168,2.637135 -1.025826,4.017555 -0.104942,1.423488 -0.09354,2.85194 -0.09271,4.278169 -0.06964,1.188648 0.123428,2.402193 -0.03989,3.584198 -0.208075,1.049101 -0.243825,2.120432 -0.398402,3.175633 -0.02002,0.06308 -0.0802,0.252057 -0.05963,0.189237 0.03503,-0.106257 0.03016,-0.232926 0.10244,-0.319582 0.115922,-0.138825 0.291626,-0.218191 0.437279,-0.327416 0.02335,-0.0181 0.08062,-0.02637 0.06991,-0.05325 -0.01571,-0.0393 -0.07659,-0.03955 -0.11481,-0.05947 -0.06338,-0.03309 -0.126485,-0.06618 -0.189756,-0.09927 -0.72732,-0.44269 -1.470944,-0.848411 -2.378291,-0.485915 -0.772257,0.308543 -0.882758,0.786081 -1.198681,1.416586 -0.260296,0.919531 -0.494767,2.148948 0.311572,2.919466 0.643145,0.614606 1.018876,0.546899 1.781043,0.61944 1.073432,-0.09229 2.204853,-0.421698 2.998029,-1.170811 0.154243,-0.145805 0.27268,-0.323486 0.409021,-0.485217 0.592036,-0.923148 0.765182,-1.995256 -0.258434,-2.777201 -0.554243,-0.423379 -1.049594,-0.277393 -1.642339,-0.215089 -0.19255,0.07626 -0.402781,0.119436 -0.57765,0.22879 -0.878089,0.549148 -1.288305,1.483827 -1.244869,2.478896 0.0097,0.228532 0.08937,0.449128 0.13413,0.673704 0.168059,0.26082 0.280812,0.564374 0.504122,0.782435 0.676364,0.660494 1.697228,0.711551 2.484164,0.222845 0.490806,-0.304873 0.624297,-0.656304 0.889861,-1.115953 0.347863,-0.756739 0.490722,-1.585193 0.555814,-2.40726 0.0139,-0.17631 0.04392,-0.354716 0.02043,-0.530019 -0.03628,-0.270255 -0.132045,-0.529732 -0.198096,-0.794611 -0.230079,-0.238615 -0.375843,-0.59969 -0.690236,-0.715946 -1.710836,-0.632625 -2.744015,0.936204 -3.591983,2.049081 -0.331851,0.529293 -0.703566,1.069186 -0.893378,1.669057 -0.06727,0.212502 -0.09869,0.43408 -0.147988,0.651107 -0.336633,1.800308 2.280786,2.263395 2.617418,0.463088 v 0 c -0.05699,-0.384238 0.391925,-0.900425 0.552423,-1.230788 0.110779,-0.147874 0.21718,-0.29903 0.332184,-0.443905 0.188269,-0.237063 0.440059,-0.432737 0.580514,-0.6994 0.07603,-0.144513 -1.491224,-0.169072 -1.226105,-0.774112 0.0028,-0.09385 -0.0028,-0.37537 0.007,-0.281916 0.067,0.612227 -0.114115,1.273082 -0.280756,1.856018 -0.01112,0.04343 -0.07297,0.107798 -0.03336,0.130556 0.0492,0.02818 0.104663,-0.04731 0.160734,-0.05739 0.110084,-0.02069 0.223365,-0.04679 0.334422,-0.03258 0.377386,0.0486 0.555884,0.290266 0.603504,0.632004 -0.01863,-0.03594 -0.03697,-0.07187 -0.05546,-0.108064 -0.02474,0.01036 -0.05866,0.05661 -0.07422,0.03464 -0.308639,-0.436898 0.420641,0.08686 -0.235875,-0.143477 -0.509584,-0.162092 -0.653694,-0.389048 -0.808326,-0.928708 -0.03169,-0.110641 0.08006,-0.432116 0.120647,-0.32421 0.01696,0.04524 -0.03405,0.09049 -0.05101,0.135723 -0.03239,0.06799 -0.03266,0.159506 -0.09327,0.205523 -0.306581,0.233185 -0.738564,0.330519 -1.102732,0.437468 -0.239085,0.12228 -0.0028,-0.03231 0.21586,0.372166 0.05337,0.09902 0.05045,0.218966 0.05643,0.330544 0.0097,0.170881 -0.07478,-0.19053 -0.06144,-0.360197 0.0083,-0.105474 0.03934,-0.208367 0.05893,-0.312421 -0.104942,-0.223103 0.04698,0.0305 -0.411579,0.05223 -0.182264,0.0077 -0.360651,-0.0548 -0.539941,-0.0879 -0.03433,-0.0052 0.07242,-0.0052 0.104386,0.0077 0.120648,0.05222 0.231371,0.123834 0.346487,0.186909 0.166099,0.09099 0.33142,0.18329 0.49713,0.274781 0.543207,0.234218 1.229802,0.551036 1.848428,0.407169 1.019057,-0.237064 1.456642,-0.733524 1.654682,-1.689351 0.154229,-1.084336 0.202738,-2.182063 0.410383,-3.260195 0.124262,-1.30886 0.041,-2.624287 0.05893,-3.937595 -7.09e-4,-1.311782 -0.0097,-2.625167 0.07506,-3.934958 0.112725,-1.150957 0.377274,-2.278052 0.848079,-3.344085 0.432539,-1.089015 0.981209,-2.128395 1.48836,-3.185768 0.950449,-1.579117 -1.34539,-2.886581 -2.295825,-1.307464 z" />
    <path
       style="fill:#ffffff;stroke-width:0.693525"
       id="path2943"
       d="m 79.850686,98.963017 c -0.921052,0.46226 -1.821838,0.950605 -2.781002,1.336883 -0.996151,0.42646 -1.823979,0.69162 -2.900343,0.8413 -1.028217,0.12436 -2.065497,0.14322 -3.100288,0.15253 -1.120232,0.0326 -2.23596,-0.0804 -3.352884,-0.14555 -1.192176,-0.0545 -2.379306,-0.1807 -3.569396,-0.26643 -1.157302,-0.067 -2.317231,-0.0682 -3.476173,-0.0734 -0.157356,-3.6e-4 -0.31588,-0.0207 -0.472125,-0.001 -0.227467,0.0269 -0.459455,0.0553 -0.672976,0.13624 -0.22011,0.0835 -0.408087,0.23163 -0.610575,0.34988 -0.01807,0.0104 -0.06883,0.0465 -0.05055,0.0365 0.444133,-0.24534 0.05956,-0.11116 0.838007,-0.22673 0.05871,0.0104 0.165202,0.0882 0.176179,0.0313 0.0114,-0.0592 -0.109362,-0.0574 -0.166718,-0.0804 -0.1121,-0.045 -0.219818,-0.12616 -0.341044,-0.12305 -0.400962,0.0104 -0.821193,0.0129 -1.191728,0.16184 -0.548752,0.22129 -0.673707,0.77969 -0.864432,1.23575 -0.197069,1.04949 -0.334485,2.17762 0.214715,3.15702 0.108306,0.19311 0.265841,0.35596 0.398764,0.53395 0.266668,0.16493 0.498887,0.40166 0.800005,0.49506 1.194984,0.37069 2.407031,-0.35451 3.23629,-1.12032 0.199222,-0.18407 0.368532,-0.39636 0.552812,-0.59454 0.796053,-1.09972 1.050122,-2.1966 0.213274,-3.37728 -0.122316,-0.17244 -0.276378,-0.3215 -0.414567,-0.48225 -0.905734,-0.85521 -2.048219,-1.172901 -3.27492,-1.251803 -1.216614,0.07187 -2.219286,0.731923 -2.680014,1.850563 -0.09522,0.23112 -0.145747,0.47749 -0.218622,0.71621 -0.08053,0.88935 -0.09063,0.4296 0.05443,1.37855 0.42726,1.78203 3.018095,1.19426 2.590834,-0.58774 v 0 c -0.106651,0.0437 -0.04726,0.037 -0.06442,-0.16287 -0.021,-0.19725 0.109848,-0.28241 0.14309,-0.46001 2.06e-4,-0.001 -0.06857,-0.0861 -0.05647,-0.10005 0.02498,-0.029 0.06961,-0.0331 0.104441,-0.0496 0.507166,0.003 1.004298,0.10651 1.423313,0.39717 0.04642,0.0424 0.09382,0.0838 0.139162,0.12719 0.02891,0.0277 0.0474,0.1047 0.08354,0.0866 0.05796,-0.0292 0.03002,-0.42961 0.119257,-0.21923 0.03586,0.0843 -0.155535,0.41431 -0.162791,0.42891 -0.310154,0.38859 -0.178247,0.26364 -0.612984,0.61407 -0.09092,0.0734 -0.188431,0.13856 -0.279415,0.21198 -0.03426,0.0277 -0.122844,0.0558 -0.09581,0.0902 0.06285,0.0799 0.183807,0.092 0.275697,0.13805 0.05815,0.0742 0.116269,0.14865 0.174398,0.22285 -0.337255,-0.0315 -0.118187,-1.06766 -0.120495,-1.28368 -0.109472,0.0804 -0.384507,0.28512 -0.438877,0.29507 -0.824512,0.15072 -1.407865,-0.19958 -0.189574,0.26775 0.28017,-0.0155 0.565523,0.005 0.840523,-0.0483 0.140344,-0.0279 0.256724,-0.12408 0.380555,-0.19414 0.04448,-0.0259 0.174272,-0.0969 0.12315,-0.0907 -0.109389,0.0129 -0.201779,0.091 -0.309653,0.11323 -0.02627,0.005 -0.09896,-0.0323 -0.07228,-0.0344 0.155105,-0.0129 0.311363,6.7e-4 0.467066,10e-4 1.098006,0.005 2.196958,0.005 3.293546,0.0664 1.202392,0.0863 2.401782,0.21432 3.606342,0.26881 1.177317,0.0685 2.353605,0.18459 3.534453,0.14995 1.155203,-0.0104 2.313047,-0.0352 3.460271,-0.17942 0.586477,-0.0861 0.831789,-0.10677 1.404338,-0.25154 0.73477,-0.18561 1.410398,-0.51182 2.123374,-0.75712 1.049859,-0.42612 2.041853,-0.95206 3.049499,-1.46181 1.649039,-0.88052 0.368852,-3.148975 -1.280187,-2.268457 z" />
    <path
       style="fill:#ffffff;stroke-width:0.693525"
       id="path2945"
       d="m 40.00123,121.30294 c 1.228778,0.0309 2.428996,-0.21018 3.591948,-0.57295 1.184388,-0.41702 2.421352,-0.64514 3.628031,-0.9867 1.181229,-0.35877 2.411951,-0.46502 3.639753,-0.54286 1.33621,-0.0104 2.686789,-0.13831 4.018733,-10e-4 1.347533,0.22672 2.701288,0.39931 4.057814,0.5691 0.513636,0.0915 1.59714,0.14348 2.052446,0.43638 0.03934,0.0259 -0.06755,0.0659 -0.09035,0.10628 0.09146,0.89169 0.171631,1.78141 0.29991,2.66986 0.233539,1.35542 0.604448,2.68145 1.001224,3.99855 0.412259,1.5038 0.773953,3.01743 1.196957,4.51832 0.3635,1.20403 0.704386,2.41585 0.901356,3.65717 0.273765,1.07291 0.463298,2.15849 0.569268,3.25842 -0.155104,-0.47151 0.100494,0.531 -0.05143,0.47327 -0.137883,-0.0525 0.131907,-0.2588 -0.08979,-0.23034 -0.06866,0.008 -0.135242,0.0287 -0.202863,0.0429 -0.794316,0.16519 -1.559123,-0.1104 -2.328767,-0.27493 -1.206076,-0.23396 -2.407375,-0.4499 -3.637808,-0.49685 -1.264852,0.0913 -2.506233,0.35208 -3.765333,0.49532 0.0079,0.0864 -0.958326,-0.0404 -0.74878,-0.15589 0.01015,-0.0155 0.0315,-0.0271 0.03051,-0.0452 -0.0186,-0.33675 -0.173734,-0.69909 -0.230715,-1.03196 -0.06819,-0.39846 -0.0852,-0.65357 -0.125151,-1.06143 -0.105595,-0.98072 -0.06306,-1.96887 -0.144447,-2.95016 -0.04494,-0.97459 -0.330892,-1.90689 -0.599091,-2.83975 -0.222504,-0.75731 -0.774658,-2.1571 -1.659115,-2.38258 -0.402278,-0.10269 -0.831333,-0.0259 -1.246999,-0.0372 -0.234783,0.1132 -0.485598,0.19906 -0.704324,0.33938 -0.553356,0.35495 -1.326466,1.25132 -1.462917,1.90863 -0.05866,0.28246 -0.04458,0.57472 -0.06687,0.86207 0.139529,0.28419 0.212297,0.60981 0.418563,0.85257 0.191887,0.22569 0.472862,0.36782 0.737463,0.50775 0.815772,0.43142 1.791186,0.19287 2.621401,-0.0369 1.406932,-0.56826 1.937492,-1.63316 2.140741,-3.02252 -0.04128,-0.2737 -0.03158,-0.55944 -0.123928,-0.82106 -0.294282,-0.83344 -1.083382,-1.30216 -1.978037,-1.21292 -0.608162,0.0607 -0.802972,0.35366 -1.221677,0.72282 -0.399788,0.68702 -0.248202,0.34714 -0.478722,1.00928 -0.571654,1.74331 1.962904,2.5297 2.534553,0.7864 v 0 c 0.02841,-0.15098 0.06597,-0.14347 -0.0426,-0.10389 -0.07585,0.0388 -0.145855,0.0913 -0.22758,0.11638 -0.538512,0.16493 -1.289877,-0.21535 -1.101381,-0.82101 -0.0043,0.25749 -0.104747,0.46291 -0.149231,0.70581 -0.0043,0.0207 0.03025,0.0462 0.01754,0.0646 -0.03009,0.0437 -0.08561,0.0639 -0.128417,0.0959 -0.09345,0.0306 -0.185402,0.0654 -0.280298,0.0913 -0.08986,0.0232 -0.189866,0.0181 -0.273206,0.0587 -0.02153,0.0106 0.03123,0.0582 0.01042,0.0697 -0.03354,0.0181 -0.12497,-0.047 -0.115824,-0.0106 0.06006,0.24094 0.501603,0.3269 0.287506,0.68901 -0.037,0.11997 -0.07011,0.24093 -0.11096,0.3596 -0.01408,0.0411 0.01376,-0.0866 0.03072,-0.12675 0.07453,-0.17708 0.252881,-0.33341 0.308116,-0.51251 0.0056,-0.0181 -0.01307,-0.0372 -0.01967,-0.0558 -0.335904,-0.10309 -0.612938,-0.0656 -0.761381,-0.37444 -0.02419,-0.0502 0.08324,0.076 0.118535,0.11944 0.208311,0.25593 0.276205,0.58435 0.375225,0.88796 0.223938,0.77874 0.475171,1.55166 0.504317,2.36654 0.09243,0.99163 0.01914,1.99604 0.14846,2.98671 0.131642,1.25599 0.278132,2.56531 1.039083,3.62753 0.155981,0.14193 0.296722,0.30184 0.467968,0.42617 0.718795,0.5218 1.660133,0.56761 2.517591,0.51877 1.128863,-0.12953 2.245659,-0.32842 3.371197,-0.47939 1.069931,0.0259 2.109664,0.25334 3.159536,0.43913 1.199584,0.25595 2.394929,0.57204 3.620297,0.23578 1.70415,-0.51655 2.356288,-1.27939 2.261924,-3.06069 -0.115922,-1.15112 -0.30237,-2.29151 -0.592008,-3.41441 -0.22192,-1.33293 -0.570895,-2.6391 -0.966545,-3.93287 -0.427327,-1.51487 -0.786935,-3.04443 -1.209925,-4.5607 -0.360596,-1.19791 -0.699535,-2.40315 -0.915437,-3.63521 -0.01682,-0.11638 -0.135798,-0.92841 -0.150378,-1.08271 -0.08687,-0.91644 -0.102579,-1.83856 -0.590855,-2.6636 -0.165863,-0.2032 -0.300744,-0.43452 -0.497603,-0.60959 -0.882897,-0.78525 -2.197041,-0.86676 -3.316767,-1.02767 -1.386757,-0.17295 -2.769153,-0.35603 -4.148111,-0.57877 -1.474789,-0.12255 -2.958719,-0.045 -4.436614,-0.005 -1.419183,0.0913 -2.840093,0.22749 -4.2056,0.63914 -1.233117,0.35171 -2.500114,0.57962 -3.709865,1.01107 -0.893867,0.29352 -1.82342,0.47156 -2.771574,0.44685 -1.881158,0 -1.881158,2.58778 0,2.58778 z" />
    <path
       style="fill:#ffffff;stroke-width:0.693525"
       id="path2947"
       d="m 89.384296,154.45461 c -0.932699,0.3754 -1.916021,0.55794 -2.912658,0.67401 -1.296547,0.11426 -2.600308,0.11373 -3.901108,0.12024 -0.62067,-0.0359 -1.25118,0.046 -1.871237,-0.001 -0.138022,-0.0106 -0.267913,-0.0686 -0.401974,-0.1023 -0.295935,-0.1378 0.0083,-0.0352 0.0028,-0.0558 -0.04378,-0.17397 -0.21668,-0.29285 -0.291473,-0.45654 -0.0335,-0.0732 -0.04809,-0.1533 -0.07214,-0.23008 -0.205532,-0.82044 -0.318799,-1.66265 -0.42274,-2.50064 -0.176134,-1.0037 -0.276864,-2.01519 -0.330864,-3.03128 0.02419,-1.14756 -0.204448,-2.27324 -0.356411,-3.40577 -0.1481,-1.27884 -0.309598,-2.55668 -0.509015,-3.82903 -0.134964,-1.4145 -0.498214,-2.77133 -0.992439,-4.10323 -0.51185,-1.41259 -1.182238,-2.75906 -1.820531,-4.11926 -0.780153,-1.52341 -1.653404,-2.9987 -2.43072,-4.52334 -0.552353,-1.08045 -1.055697,-2.18738 -1.386325,-3.35223 -0.534047,-1.75456 -3.084956,-1.0199 -2.550895,0.73466 v 0 c 0.387352,1.31465 0.935743,2.57425 1.568199,3.79504 0.76724,1.49831 1.619572,2.95258 2.392747,4.44802 0.609605,1.29684 1.249511,2.58062 1.737384,3.9279 0.439003,1.17466 0.742735,2.36965 0.858504,3.61845 0.196428,1.25532 0.352951,2.51635 0.500772,3.77786 0.145653,1.06689 0.360609,2.12565 0.334548,3.20712 0.05991,1.07461 0.165362,2.14494 0.349378,3.20689 0.13413,1.05148 0.26751,2.11443 0.595761,3.12784 0.447565,1.01445 1.037557,1.96389 2.203254,2.28006 0.968839,0.21896 1.917286,0.18897 2.906446,0.17501 1.4026,-0.008 2.808495,-0.008 4.205938,-0.13882 1.202907,-0.14451 2.391496,-0.36963 3.519359,-0.81692 1.763751,-0.63635 0.838585,-3.06261 -0.925166,-2.42626 z" />
    <path
       style="fill:#ffffff;stroke-width:0.693525"
       id="path2949"
       d="m 71.545695,124.4739 c 0.381542,-1.01266 0.330517,-2.09319 -0.258475,-3.02362 -0.109668,-0.17322 -0.250303,-0.326 -0.375454,-0.489 -0.249955,-0.16441 -0.474252,-0.37387 -0.749851,-0.49347 -0.857948,-0.37225 -1.75544,-0.13059 -2.422131,0.47337 -0.41693,0.37758 -0.535159,0.83798 -0.728918,1.32868 -0.328446,1.48773 0.185614,2.92596 0.810745,4.27005 0.521843,0.97566 1.337036,1.78209 2.488806,1.98461 0.207756,0.0364 0.421503,0.0233 0.632261,0.0361 0.241685,-0.055 0.494601,-0.0752 0.725083,-0.16468 0.887498,-0.34494 1.422866,-1.22666 1.389437,-2.14324 -0.0097,-0.25489 -0.08062,-0.50417 -0.120926,-0.75624 -0.303593,-0.94754 -0.668233,-1.87841 -1.218932,-2.71646 -1.058101,-1.51296 -3.257727,-0.0574 -2.199626,1.45555 v 0 c 0.413691,0.53043 0.553312,1.22712 0.822837,1.82789 0.172271,0.21974 0.227494,-0.24792 0.622504,-0.0905 -0.321134,0.19853 -0.616569,-0.3406 -0.735868,-0.53801 -0.347641,-0.7241 -0.642867,-1.50131 -0.707931,-2.30318 0.137745,-0.67792 -0.354465,0.16984 -0.667927,-0.53345 0.377108,0.32391 0.355035,0.56561 0.181166,1.02664 -0.617111,1.72857 1.89602,2.5775 2.513144,0.84893 z" />
    <path
       style="fill:#ffffff;stroke-width:0.693525"
       id="path2951"
       d="m 74.721791,175.79179 c 0.01487,-1.53483 0.242199,-3.06499 0.478393,-4.58079 0.243103,-1.53447 0.489764,-3.06678 0.637293,-4.61322 0.09688,-1.12363 0.109668,-2.25173 0.1162,-3.37856 0.03253,-1.16446 -0.172215,-2.31567 -0.301883,-3.46909 -0.104108,-1.24883 -0.392759,-2.47628 -0.638836,-3.70444 -0.20581,-0.95504 -0.457475,-1.88713 -0.931518,-2.75023 -0.117312,-0.14814 -0.212913,-0.31544 -0.351908,-0.44474 -0.691626,-0.6434 -2.059881,-1.00822 -2.972801,-1.29686 -1.255127,-0.35715 -2.439783,-0.88227 -3.709685,-1.19597 -1.58435,-0.3409 -3.1132,-0.36277 -4.721527,-0.22542 -1.314839,0.16028 -2.598643,0.48848 -3.908028,0.68299 -0.725434,0.0951 -1.452597,0.14606 -2.180724,0.0721 -0.740452,-0.2782 -1.520676,-0.42713 -2.302922,-0.54027 -0.526323,-0.0509 -1.050893,-0.0984 -1.575075,-0.16829 -1.864183,-0.24534 -2.220796,2.31916 -0.356613,2.56444 v 0 c 0.515581,0.0683 1.031508,0.12077 1.549635,0.16494 0.827437,0.11585 1.615997,0.35094 2.423181,0.55455 0.949614,0.0891 1.898247,0.0424 2.842938,-0.0891 1.254204,-0.18872 2.48673,-0.48642 3.742343,-0.6636 0.344583,-0.0308 0.98738,-0.0962 1.34154,-0.0959 0.841004,3.2e-4 1.683398,0.11611 2.509544,0.25645 1.213748,0.285 2.330018,0.83425 3.535329,1.14806 0.783363,0.24456 0.32219,0.091 1.11438,0.37752 0.162999,0.059 0.324748,0.12156 0.48961,0.17528 0.05866,0.0181 0.120231,0.0582 0.180402,0.0434 0.159038,-0.0383 -0.150407,-0.12156 0.0221,-0.0677 0.06783,0.12076 0.156995,0.23189 0.205199,0.36125 0.201168,0.53985 0.298631,1.11471 0.450803,1.66769 0.232817,1.15853 0.507249,2.31619 0.602822,3.49459 0.117173,1.02847 0.302746,2.0559 0.281938,3.09379 -0.0056,1.05336 -0.01487,2.10794 -0.101744,3.15854 -0.139301,1.49663 -0.38246,2.97849 -0.616291,4.46333 -0.256307,1.6429 -0.49827,3.3008 -0.514088,4.96449 -0.02947,1.82959 2.630484,1.87026 2.660035,0.0406 z" />
    <path
       style="fill:#ffffff;stroke-width:0.693525"
       id="path2953"
       d="m 122.43753,70.780309 c -1.74646,-1.017768 -3.4718,-2.068626 -5.20997,-3.100249 -1.45754,-0.840707 -2.78461,-1.867962 -4.12503,-2.87058 -1.12336,-0.945278 -2.45058,-1.558049 -3.77454,-2.179917 -1.41911,-0.63989 -2.86045,-1.224765 -4.31911,-1.774405 -1.59528,-0.698753 -3.2847,-1.082319 -4.99878,-1.376127 -1.984278,-0.325088 -4.001168,-0.381835 -6.008689,-0.431496 -1.777735,0.0077 -3.548019,0.111426 -5.308519,0.347839 -2.297715,0.475289 -4.534551,1.246092 -6.678093,2.175936 -1.470875,0.609721 -2.904694,1.32869 -4.422424,1.827555 -0.446049,0.146582 -0.899883,0.269767 -1.34981,0.404636 -3.120122,0.872506 -6.319333,1.447867 -9.489007,2.124104 -2.047427,0.447446 -4.114147,0.796707 -6.166133,1.221662 -1.525689,0.302003 -3.068259,0.515696 -4.593817,0.815837 -1.186806,0.337343 -2.448206,0.510887 -3.585747,1.001921 -0.275374,0.118918 -0.536079,0.267541 -0.804119,0.401326 -1.504484,0.895073 -2.936447,1.900845 -4.294263,2.99423 -1.65848,1.237043 -3.162719,2.647502 -4.6511,4.069905 -1.4799,1.483981 -2.95698,2.970524 -4.367598,4.517404 -0.863017,0.979816 -1.833382,1.866281 -2.681296,2.85892 -0.577272,0.675823 -0.683538,0.853995 -1.205293,1.575731 -1.742548,2.656292 -2.772966,5.656882 -3.872738,8.598529 -0.873228,2.175497 -1.492404,4.433644 -2.266695,6.64117 -0.456864,1.59683 -1.154296,3.10935 -1.823743,4.62921 -0.595429,1.46868 -1.363444,2.86086 -1.899863,4.35134 -0.576139,1.55528 -0.926579,3.09556 -1.130664,4.73479 -0.193002,1.62472 -0.201481,3.25614 -0.0519,4.88318 0.412818,2.15583 1.119685,4.24935 1.793631,6.33876 0.954356,2.90118 1.80042,5.83435 2.640289,8.76838 0.81793,2.96853 1.759775,5.89797 2.985601,8.73143 0.751881,1.6506 1.441387,3.32684 2.154227,4.99351 0.597994,1.4876 1.506201,2.82002 2.331984,4.19039 0.820441,1.44336 1.546892,2.9365 2.25718,4.43358 0.788817,1.4149 1.550969,2.84297 2.344874,4.25524 0.740705,1.40217 1.463995,2.81373 2.145767,4.24407 0.68159,1.2538 1.287094,2.54332 1.959491,3.80161 0.901179,1.59066 2.057427,3.02308 3.26096,4.4046 1.298839,1.49201 2.751498,2.84697 4.138479,4.25998 1.28744,1.31145 2.805995,2.36366 4.285044,3.45515 1.000015,0.71954 1.866237,1.60944 2.861476,2.33304 0.8275,0.60163 1.367785,0.88226 2.26244,1.40043 1.140831,0.64857 2.266817,1.32151 3.395708,1.98946 0.398652,0.23578 1.623269,0.9774 2.040255,1.18856 0.40613,0.20578 0.829634,0.37712 1.244438,0.56568 2.871654,1.13682 5.970024,1.54376 9.025722,1.91721 2.104262,0.3066 4.226302,0.21148 6.3303,-0.0266 1.288499,-0.167 2.574427,-0.36082 3.868611,-0.48136 1.545224,-0.12196 3.087917,-0.2627 4.636824,-0.33368 1.611274,-0.0798 3.193192,0.18976 4.771135,0.46152 0.823616,0.1533 1.654029,0.25825 2.487903,0.33961 1.872072,0.17967 2.133162,-2.39573 0.261089,-2.57529 v 0 c -0.767601,-0.074 -1.531575,-0.17192 -2.289571,-0.31323 -1.770409,-0.30505 -3.54845,-0.58782 -5.355179,-0.49755 -1.592231,0.0737 -3.178292,0.21613 -4.766701,0.3427 -1.311753,0.12542 -2.616293,0.3133 -3.922097,0.48689 -1.892725,0.21974 -3.801129,0.3081 -5.694452,0.029 -2.787257,-0.33956 -5.617546,-0.69508 -8.247377,-1.70264 -0.339635,-0.15072 -0.687568,-0.285 -1.018863,-0.45241 -0.4,-0.20216 -1.642561,-0.95385 -2.007882,-1.17003 -1.134938,-0.67153 -2.267068,-1.34788 -3.413986,-2 -0.594177,-0.34202 -1.345279,-0.74975 -1.908877,-1.15917 -1.031203,-0.74914 -1.926961,-1.67304 -2.966676,-2.41376 -1.367601,-1.00939 -2.776894,-1.9759 -3.97022,-3.18576 -1.351621,-1.37646 -2.766946,-2.69669 -4.033964,-4.14898 -1.077821,-1.23394 -2.114371,-2.51355 -2.927435,-3.9316 -0.654136,-1.22472 -1.241922,-2.48053 -1.906691,-3.70004 -0.707986,-1.48013 -1.454319,-2.94305 -2.225205,-4.39301 -0.765318,-1.36177 -1.49855,-2.73953 -2.263142,-4.10162 -0.747979,-1.57296 -1.511058,-3.14268 -2.380187,-4.65628 -0.768335,-1.26758 -1.610898,-2.5017 -2.16741,-3.87842 -0.715267,-1.66944 -1.404421,-3.34955 -2.158447,-5.00303 -1.184218,-2.73293 -2.079197,-5.56354 -2.871868,-8.426 -0.848371,-2.96028 -1.701888,-5.92001 -2.665433,-8.84722 -0.617741,-1.9162 -1.257548,-3.83546 -1.675999,-5.80385 -0.133574,-1.42308 -0.121273,-2.84908 0.04319,-4.27055 0.08872,-0.74712 0.184419,-1.48398 0.37453,-2.21461 0.161163,-0.61946 0.232655,-0.75154 0.432964,-1.37044 0.06652,-0.20552 0.12725,-0.41304 0.190877,-0.61957 0.496426,-1.43672 1.276793,-2.75879 1.827989,-4.17636 0.695844,-1.57909 1.419876,-3.15208 1.897795,-4.81013 0.768864,-2.191471 1.384318,-4.432763 2.248686,-6.593343 1.021053,-2.732376 1.963988,-5.523357 3.54914,-8.009 0.432437,-0.605247 0.546889,-0.792415 1.026881,-1.358315 0.841051,-0.991606 1.814948,-1.868868 2.671074,-2.847856 1.367567,-1.504974 2.806571,-2.94506 4.240854,-4.389618 1.435572,-1.372844 2.884358,-2.736278 4.486662,-3.927461 1.215706,-0.985763 2.504411,-1.88218 3.842984,-2.703938 0.163184,-0.08841 0.320204,-0.18872 0.489593,-0.265551 1.003783,-0.454634 2.14356,-0.575311 3.192557,-0.893523 1.531598,-0.306966 3.084257,-0.509904 4.615816,-0.820258 2.057226,-0.426041 4.129408,-0.775612 6.18195,-1.224945 3.242146,-0.691696 6.514524,-1.280217 9.704436,-2.178858 0.500466,-0.151493 1.005199,-0.29037 1.50137,-0.454763 1.567157,-0.51916 3.051557,-1.254028 4.570732,-1.886445 1.911254,-0.841819 3.917107,-1.516919 5.960948,-1.97742 1.618126,-0.220259 3.245093,-0.311439 4.879301,-0.324494 1.877061,0.04602 3.763545,0.09385 5.619451,0.394011 1.545905,0.263561 3.066985,0.604677 4.502995,1.243145 1.39315,0.524872 2.77056,1.08144 4.1255,1.693563 1.16218,0.545116 2.33188,1.066706 3.31224,1.906068 1.41553,1.058407 2.82007,2.138296 4.35951,3.025175 1.75972,1.044317 3.50695,2.107144 5.27522,3.137295 1.63814,0.899597 2.94603,-1.35387 1.30792,-2.253467 z" />
    <path
       style="fill:#ffffff;stroke-width:0.693525"
       id="path2955"
       d="m 124.31565,70.929527 c 0.29802,-1.048195 0.41779,-2.135969 0.73467,-3.178658 0.37833,-1.184126 0.67652,-2.390638 1.054,-3.574582 0.2639,-0.865447 0.67866,-1.660732 0.68743,-2.583648 0.008,-0.719358 -0.11773,-0.937497 -0.32835,-1.604685 -0.5381,-1.215328 -1.33429,-2.310186 -2.15391,-3.360346 -0.69706,-0.781093 -1.3032,-1.632114 -1.85999,-2.511883 -0.40807,-0.640665 -0.72336,-1.332438 -0.94412,-2.054045 -0.0866,-0.621896 -0.25621,-1.218483 -0.43192,-1.821816 -0.14377,-0.617915 -0.36494,-1.214785 -0.54059,-1.824091 -0.10286,-1.05833 -0.78095,-1.816826 -1.58407,-2.465144 -1.10407,-0.693142 -2.25506,-1.323078 -3.4213,-1.913564 -1.30339,-0.644929 -2.67886,-1.110318 -4.10378,-1.41806 -1.33223,-0.177602 -2.66462,-0.354663 -3.9862,-0.600282 -0.98813,-0.191047 -1.98904,-0.30066 -2.98485,-0.443905 -0.8388,-0.216124 -1.5868,-0.281192 -2.38954,0.173208 -0.42025,0.238097 -0.91108,0.799085 -1.24834,1.156153 -0.931784,1.203359 -1.851084,2.415481 -2.830945,3.58275 -0.502537,0.536791 -1.057656,1.023042 -1.598152,1.522864 -0.326806,0.302261 -0.598722,0.566081 -1.014137,0.733241 -0.820225,0.01809 -1.574413,-0.256195 -2.265663,-0.667576 -1.001391,-0.700305 -1.948963,-1.497296 -2.825675,-2.343149 -0.564696,-0.610288 -0.96282,-1.354929 -1.2813,-2.111073 -0.30907,-0.824886 -0.424158,-1.700312 -0.58011,-2.560795 -0.506235,-1.840302 -1.817056,-1.836139 -3.428873,-1.628418 -0.953381,0.158473 -1.907945,0.20268 -2.871988,0.16597 -1.225576,-0.06385 -2.452097,-0.104703 -3.679147,-0.127966 -1.117869,-0.153819 -2.231526,-0.319299 -3.357651,-0.406471 -1.156218,-0.07626 -2.315326,-0.08582 -3.473698,-0.09178 -1.237683,-0.03154 -2.459423,0.196993 -3.685764,0.324934 -0.559108,0.05325 -1.119884,0.08815 -1.68098,0.114003 -0.185266,0.0077 -0.766572,0.02069 -0.944583,0.0654 -0.248148,0.06333 -0.481299,0.17295 -0.721941,0.259554 -0.255988,0.381136 -0.60891,0.715195 -0.767949,1.143357 -0.36072,0.971182 0.937426,2.577081 1.488222,3.304867 0.610995,0.830805 1.168824,1.69677 1.818363,2.500275 0.370269,0.606851 0.72732,1.231512 0.990188,1.891463 0.07339,0.336644 0.302036,1.16016 0.02905,1.462395 -0.01946,0.02069 -0.02933,-0.04938 -0.04406,-0.07393 -0.02849,-2.84e-4 -0.05893,-0.01036 -0.08548,-6.72e-4 -0.565738,0.214054 0.06755,0.05428 -0.525165,0.227755 -0.358705,0.104955 -0.733603,0.144255 -1.103928,0.185101 -0.999584,0.08092 -2.004311,0.07005 -3.006536,0.06877 -1.094795,-0.116075 -2.139747,-0.456133 -3.142597,-0.884836 -1.126266,-0.38672 -2.148045,-0.9907 -3.222856,-1.485456 -0.875237,-0.474409 -1.641862,-1.102407 -2.449316,-1.672133 -0.592271,-0.414433 -1.182567,-0.823231 -1.659733,-1.365011 -0.709434,-0.809503 -1.76959,-1.084051 -2.823263,-0.908619 -0.214078,0.03567 -0.41971,0.108834 -0.629568,0.163383 -1.380069,0.519884 -2.57938,1.385435 -3.876506,2.064541 -1.050085,0.556438 -2.15069,1.004557 -3.183781,1.593595 -1.254852,0.812115 -2.610823,1.45177 -3.979214,2.058362 -1.534093,0.711989 -2.962128,1.605461 -4.383089,2.506221 -1.107872,0.640096 -2.183857,1.338048 -3.325569,1.920855 -0.862574,0.460657 -1.707232,0.952362 -2.573724,1.406297 -1.170198,0.64555 -1.372151,1.360591 -0.735573,2.567207 0.07843,0.148649 0.598332,0.522572 0.761212,0.645266 0.692186,0.457631 1.336696,0.7821 1.868084,1.421265 0.581057,0.83975 1.028958,1.773188 1.375346,2.72705 0.29289,0.801179 0.375239,1.642531 0.415934,2.485203 0.07218,0.716799 -0.239805,1.341823 -0.608003,1.93859 -0.374999,0.563393 -0.962209,0.938194 -1.572875,1.228255 -0.569184,0.20759 -1.172292,0.296625 -1.755704,0.456804 -0.858876,0.255934 -1.75055,0.40055 -2.637425,0.531673 -0.542767,0.0025 -1.281027,0.297323 -1.787615,0.05507 -0.263936,-0.139342 -0.793662,-0.266043 -0.904316,-0.540566 -0.351255,-0.420663 -0.672441,-0.864128 -1.009076,-1.296271 -0.452985,-0.626549 -0.899617,-1.262171 -1.412169,-1.844332 -0.538273,-0.436305 -1.123598,-1.306587 -1.822825,-1.485818 -0.353533,-0.09049 -0.727612,-0.07032 -1.091418,-0.105739 -0.253039,0.07213 -0.517127,0.11452 -0.759122,0.21664 -1.209814,0.50944 -2.184394,1.559134 -3.05585,2.485902 -0.923196,1.090204 -1.587601,2.353877 -2.26165,3.597047 -0.604706,1.287558 -1.2357132,2.565629 -1.784683,3.876946 C 8.8002145,75.990727 8.3737564,77.223376 7.844927,78.415773 7.3960267,79.513604 6.8260825,80.55544 6.2962398,81.616664 5.7370315,82.57554 5.28468,83.582449 4.8164163,84.584395 4.4870311,85.369779 4.105645,86.135463 3.8132046,86.934574 c -0.021266,0.259141 -0.1190354,0.523064 -0.06384,0.777395 0.3099064,1.427935 1.5163527,1.610606 2.7347748,1.87471 1.1383137,0.218967 2.2466724,0.59289 3.3131075,1.034106 1.0154051,0.337368 1.9177511,0.884294 2.8329951,1.412811 0.847154,0.530871 1.430355,1.292006 1.987163,2.088609 0.487027,0.704027 0.624057,1.512651 0.714253,2.337253 -0.02313,0.582419 0.203899,1.267161 -0.0531,1.81786 -0.430925,0.799344 -1.096142,1.449807 -1.771571,2.056602 -0.546967,0.44703 -1.206575,0.6654 -1.889761,0.82442 -0.739517,0.13572 -1.495863,0.12797 -2.2453431,0.13469 -1.0413173,0.003 -2.0826428,-0.001 -3.1239615,-0.003 -1.3069022,-0.0726 -2.3816826,0.60106 -2.9007254,1.76308 -0.1029537,0.2306 -0.1523387,0.48028 -0.2285094,0.72042 -0.1878465,1.15877 -0.4043162,2.3136 -0.5696996,3.47647 -0.1631832,1.21316 -0.175355,2.43868 -0.1902914,3.66013 -0.010147,1.22991 -0.00639,2.45987 -0.005,3.6898 -0.00848,1.11182 -0.013622,2.22054 0.078143,3.32915 0.03657,1.0059 0.2119259,1.99755 0.3100343,2.9978 0.1277088,0.97239 0.2407091,1.94613 0.309338,2.92423 0.053235,0.83001 0.2860118,1.61936 0.5270503,2.41125 0.2728295,0.64097 0.3754885,1.35901 0.9465781,1.84186 0.178253,0.15071 0.4127476,0.22335 0.6191263,0.33511 1.0082308,0.25928 2.0373206,0.0411 3.0413913,-0.12874 0.8994921,-0.17761 1.8094477,-0.26308 2.7250071,-0.29875 0.926221,-0.0456 1.781152,-0.0522 2.668676,0.22595 1.068206,0.44383 1.931907,1.20587 2.711914,2.02533 0.797003,0.97872 1.203178,2.16551 1.575758,3.34275 0.274526,0.99014 0.379877,2.0115 0.434181,3.03234 0.02366,0.61939 0.07335,1.24332 -0.133602,1.83859 -0.519162,0.51051 -1.235166,0.74488 -1.924447,0.95196 -0.758224,0.21509 -1.543918,0.27902 -2.32922,0.30469 -0.786104,0.0106 -1.566008,-0.0282 -2.346168,0.0719 -0.904577,0.26317 -1.7668082,0.62111 -2.1365896,1.55404 -0.09132,0.23033 -0.065884,0.48971 -0.098839,0.73458 0.082841,0.30712 0.1399292,0.62192 0.2484692,0.92136 0.087206,0.24068 0.219579,0.46343 0.3362613,0.69188 0.4868781,0.95325 1.0595091,1.85321 1.6432241,2.75202 0.513752,0.71011 0.900386,1.49763 1.380449,2.22736 0.134241,0.20398 0.732155,1.03011 0.878817,1.23376 0.833598,1.28503 1.778537,2.4957 2.607724,3.78303 0.874904,1.34024 1.782559,2.65839 2.652469,4.00176 0.854585,1.3199 1.544733,2.73157 2.206843,4.14977 0.387217,0.91513 0.86544,1.78939 1.166977,2.7369 0.300831,0.55469 0.353251,1.86064 0.709219,2.29867 0.241639,0.29737 0.572363,0.51454 0.858544,0.77178 0.415934,0.0259 0.832338,0.10655 1.247802,0.0749 0.267548,-0.0207 0.94034,-0.33658 1.215699,-0.43762 0.50825,-0.18638 1.038542,-0.28796 1.568516,-0.39467 0.84636,-0.0778 2.116629,-0.38835 2.92365,-0.1197 0.911272,0.47257 1.729884,1.18061 2.362097,1.97274 0.532078,0.78952 1.078008,1.57987 1.442341,2.4585 0.04598,0.11732 0.08937,0.23552 0.137994,0.35195 0.110056,0.2633 0.27398,0.60167 0.367053,0.87602 0.162758,0.47979 0.23425,0.99396 0.336011,1.48762 0.220351,1.04223 0.295226,2.10386 0.339617,3.1646 0.03025,0.91294 0.02578,1.82657 0.02471,2.73988 -0.03614,0.22077 -0.170837,1.56137 -0.462675,1.54783 -0.286043,-0.0569 -1.038075,0.17735 -1.276519,0.31066 -0.200418,0.11199 -0.374186,0.26401 -0.561275,0.39598 -0.148008,0.2881 -0.36434,0.55168 -0.444034,0.86428 -0.247113,0.96937 0.606948,2.18514 1.061599,3.00405 0.452506,0.84829 1.035585,1.61671 1.588499,2.40406 0.664833,0.90154 1.35072,1.78931 2.023701,2.68584 0.53535,0.54912 0.884577,1.21962 1.308037,1.84337 0.235153,0.34637 0.52814,0.70744 0.788621,1.03806 0.695378,0.85502 1.389709,1.70398 2.182796,2.47567 0.669901,0.63697 1.302592,1.31448 1.996375,1.92662 0.569362,0.4619 1.121333,0.94412 1.700426,1.39472 0.5791,0.53867 1.209457,1.02721 1.834228,1.5155 0.61542,0.45717 1.160115,0.99499 1.769021,1.45872 0.24512,0.0935 0.474243,0.24792 0.735384,0.2806 1.275802,0.16028 2.184668,-0.8762 2.890868,-1.73917 0.542084,-0.75118 0.8384,-1.63295 1.355766,-2.39581 0.504664,-0.79443 0.677385,-0.90893 1.584816,-1.10768 1.046697,-0.19751 1.962082,-0.0651 2.94491,0.28876 0.803479,0.37225 1.414576,0.96926 2.067937,1.53613 0.490444,0.46947 0.946543,1.00133 1.29303,1.58181 0.323136,0.45745 0.573939,0.96249 0.717855,1.50045 0.272611,0.5965 0.480256,1.21129 0.67585,1.83448 0.25261,0.55083 0.340775,1.13289 0.399194,1.72689 -0.0042,0.0406 0.0271,0.13599 -0.01251,0.12222 -0.04239,-0.0155 0.0069,-0.0913 -0.01251,-0.13099 -0.02474,-0.0506 -0.356926,0.46504 -0.400056,0.53321 -0.06644,0.18872 -0.173966,0.36801 -0.199027,0.56586 -0.111335,0.87948 0.322983,1.50388 1.141915,1.86116 0.05337,0.0232 1.21707,0.28555 1.390188,0.32491 1.297631,0.30684 2.61835,0.48113 3.948492,0.57463 1.05218,0.0623 2.106792,0.0621 3.160487,0.0628 1.487943,-10e-4 2.975873,-0.003 4.463803,-0.005 1.40171,-0.0388 2.799738,0.0558 4.19764,0.14011 0.979527,0.0654 1.961403,0.0828 2.942876,0.0941 0.984531,0.0941 1.873405,-0.17708 2.74945,-0.58505 1.135827,-0.46889 1.812483,-0.68451 1.656197,-2.25035 -0.02933,-0.29332 -0.282855,-0.52123 -0.424283,-0.78184 -0.577469,-0.7079 -1.232345,-1.36376 -1.546307,-2.22766 -0.03947,-0.31653 -0.107721,-0.94391 0.204351,-1.17195 0.52504,-0.81176 1.19376,-1.50958 1.843687,-2.22426 0.378179,-0.44253 0.71128,-0.97705 1.295908,-1.16533 0.539593,-0.10469 1.093475,-0.10469 1.641492,-0.10961 0.931698,0.17941 1.821226,0.51785 2.69659,0.8685 0.641546,0.32314 1.452541,0.41084 1.944556,0.95533 0.575385,0.73409 0.970062,1.58763 1.528016,2.33519 1.011149,0.68754 0.860353,0.86413 2.427741,-0.28455 0.25028,-0.1833 0.21474,-1.69362 0.21503,-2.03541 -0.0603,-1.10194 -0.32661,-2.1899 -0.68862,-3.23263 -0.385395,-0.90796 -0.968439,-1.70808 -1.381185,-2.60364 -0.307652,-0.76849 -0.363417,-1.58118 -0.402266,-2.39509 -0.02933,-0.89796 -0.02391,-1.7965 -0.02015,-2.69478 0.0028,-0.45698 0.0028,-0.91398 0.0042,-1.37098 0.03447,-1.82952 -2.625439,-1.87693 -2.659909,-0.0473 v 0 c -0.0014,0.45599 -0.0028,0.91196 -0.0042,1.36791 -0.0042,0.97036 -0.0097,1.94105 0.0253,2.91096 0.05963,1.13734 0.185558,2.26732 0.648204,3.32749 0.387018,0.81891 0.87699,1.57513 1.286623,2.38088 0.28348,0.76792 0.457308,1.58727 0.532143,2.39897 2.36e-4,0.10655 -0.04364,0.87473 -0.0097,0.92503 0.02766,0.0419 0.04364,-0.10256 0.09188,-0.11944 0.52675,-0.18199 1.048343,-0.44009 1.6066,-0.46734 0.19354,-0.0106 0.29463,0.24481 0.44194,0.36741 -0.20791,-0.2443 -0.0706,-0.0705 -0.3605,-0.55279 -0.437876,-0.72846 -0.868969,-1.47951 -1.46316,-2.09989 -0.168865,-0.14658 -0.326763,-0.30627 -0.506609,-0.44003 -0.664953,-0.49462 -1.513491,-0.67612 -2.256365,-1.02379 -1.196165,-0.47436 -2.422033,-0.9491 -3.720123,-1.05768 -0.879798,0.008 -1.773259,0.0207 -2.61582,0.29885 -0.991327,0.41964 -1.642381,0.9861 -2.276088,1.83454 -0.737633,0.81428 -1.492655,1.61337 -2.090237,2.536 -0.118146,0.19958 -0.253986,0.38987 -0.354299,0.59832 -0.44705,0.92893 -0.359914,2.002 -0.0909,2.96023 0.422893,1.00498 1.037224,1.88219 1.792162,2.68318 0.338148,-0.40859 -0.986935,1.20579 0.382557,-0.89858 0.07047,-0.10828 0.230315,-0.12542 0.340705,-0.19571 0.04545,-0.029 -0.09507,0.0514 -0.14532,0.0713 -0.858489,0.34089 -0.01251,-0.0298 -0.73363,0.29419 -0.592592,0.28053 -0.878589,0.4056 -1.573495,0.33344 -0.937495,-0.0106 -1.875434,-0.0268 -2.811094,-0.0894 -1.452806,-0.0877 -2.905987,-0.1833 -4.362712,-0.14504 -1.486693,0.001 -2.973399,0.003 -4.460092,0.005 -0.991772,-5.9e-4 -1.984392,6e-4 -2.974816,-0.0563 -1.192718,-0.0814 -2.376151,-0.23939 -3.539416,-0.51517 -0.218111,-0.0492 -0.434151,-0.10788 -0.65432,-0.14737 -0.07603,-0.0133 -0.229884,-0.0869 -0.231746,-0.0106 -0.0028,0.11173 0.168392,0.15639 0.22577,0.25334 0.194412,0.32804 0.242866,0.6957 0.0083,1.01332 0.123428,-0.23292 0.311266,-0.4142 0.449664,-0.64092 0.279533,-0.45792 0.38838,-0.99047 0.341247,-1.51793 -0.08131,-0.75849 -0.203364,-1.51296 -0.509028,-2.22133 -0.193218,-0.60881 -0.383863,-1.21935 -0.663869,-1.7972 -0.235653,-0.74986 -0.550171,-1.47672 -1.011079,-2.12467 -0.507055,-0.77822 -1.089889,-1.52246 -1.788813,-2.14774 -0.904636,-0.78424 -1.79351,-1.5752 -2.934791,-2.03108 -1.546564,-0.52721 -2.867531,-0.67676 -4.495324,-0.35634 -0.282498,0.0765 -0.572238,0.13086 -0.847507,0.22904 -1.023288,0.36519 -1.73855,1.0764 -2.29754,1.96144 -0.463526,0.70943 -0.814234,1.4708 -1.219225,2.21224 -0.206929,0.26927 -0.205334,0.28429 -0.450686,0.5318 -0.07035,0.0708 -0.172485,0.11705 -0.219579,0.20449 -0.01515,0.0282 0.06174,0.0232 0.09389,0.0284 0.500892,0.0957 0.23231,-0.0232 0.639313,0.2368 -0.607327,-0.42962 -1.105982,-1.00034 -1.721571,-1.42302 -0.628268,-0.49043 -1.256801,-0.98436 -1.842947,-1.52216 -0.542669,-0.41743 -1.055169,-0.87178 -1.586337,-1.30245 -0.669057,-0.56461 -1.243447,-1.2379 -1.888394,-1.82898 -0.712317,-0.69046 -1.323672,-1.46087 -1.951568,-2.22365 -0.0872,-0.11067 -0.521494,-0.65559 -0.614519,-0.79356 -0.465747,-0.6909 -0.86744,-1.424 -1.444551,-2.03993 -0.656586,-0.87491 -1.327254,-1.74025 -1.975232,-2.62041 -0.50158,-0.71465 -1.035572,-1.4067 -1.443551,-2.17785 -0.224523,-0.40461 -0.437748,-0.81669 -0.669187,-1.21758 -0.02072,-0.0356 -0.0334,-0.12435 -0.06918,-0.10257 -0.212323,0.12768 0.210995,0.76141 -0.406833,0.61167 -0.07492,0.0303 -0.147422,0.067 -0.224788,0.0907 -0.02206,0.008 0.03439,-0.0323 0.05639,-0.0391 0.101925,-0.0318 0.207567,-0.0512 0.311512,-0.076 0.638089,-0.15304 1.232647,-0.31444 1.753501,-0.73648 0.158027,-0.17087 0.336973,-0.32526 0.474052,-0.5124 0.598874,-0.81755 0.671753,-1.88366 0.790182,-2.84349 0.0014,-0.97708 0.0064,-1.95449 -0.02862,-2.93112 -0.05251,-1.19408 -0.145376,-2.38834 -0.394767,-3.5612 -0.227579,-1.101 -0.499859,-2.17663 -0.998879,-3.19576 -0.480979,-1.09727 -1.129665,-2.11295 -1.837202,-3.08558 -1.036114,-1.2033 -2.275745,-2.3201 -3.823762,-2.84539 -0.261225,-0.0489 -0.519366,-0.11704 -0.783657,-0.14632 -1.065464,-0.11784 -2.212528,0.14141 -3.266159,0.2562 -0.700431,0.14373 -1.385152,0.29667 -2.057137,0.542 -0.137702,0.0504 -0.271061,0.1112 -0.405518,0.16907 -0.07652,0.0331 -0.278455,0.0393 -0.227313,0.1039 0.105164,0.13258 0.314577,0.13649 0.471873,0.20447 0.10376,0.15926 0.199912,0.32349 0.311277,0.4778 0.037,0.0512 -0.06871,-0.10774 -0.08747,-0.16777 -0.05217,-0.16649 -0.08103,-0.33892 -0.124165,-0.50777 -0.0628,-0.24585 -0.20536,-0.77297 -0.280175,-1.0145 -0.04213,-0.13598 -0.09167,-0.26976 -0.137508,-0.40464 -0.348154,-1.03876 -0.838447,-2.01566 -1.282228,-3.01755 -0.713309,-1.52229 -1.458588,-3.03613 -2.378935,-4.45236 -0.869572,-1.34303 -1.777467,-2.66053 -2.651716,-4.00061 -0.856914,-1.32017 -1.818181,-2.57075 -2.680742,-3.88773 -0.255272,-0.35461 -0.524913,-0.69989 -0.764566,-1.06467 -0.494436,-0.75258 -0.896455,-1.56246 -1.424229,-2.29563 -0.405969,-0.62531 -0.810526,-1.24702 -1.172558,-1.89787 -0.10982,-0.19751 -0.215858,-0.39683 -0.320562,-0.59688 -0.07973,-0.15226 -0.128418,-0.3226 -0.232708,-0.46023 -0.0186,-0.0233 -0.05154,0.0341 -0.07725,0.0511 -0.145988,0.2754 -0.07157,0.18225 -0.396623,0.46177 -0.0088,0.008 -0.01408,-0.0416 0.134589,-0.11532 0.282238,-0.13987 0.171634,-0.029 0.271233,-0.13935 0.228242,-0.0757 0.07299,-0.0377 0.476773,-0.0355 0.509245,0.003 1.018605,0.008 1.527795,-0.003 1.025651,-0.036 2.050181,-0.13392 3.037721,-0.42305 1.518836,-0.48131 2.979877,-1.14418 3.663098,-2.64726 0.266331,-0.91561 0.325489,-1.84113 0.248629,-2.78937 -0.07046,-1.23334 -0.210545,-2.46627 -0.559596,-3.65833 -0.503691,-1.54484 -1.075836,-3.08185 -2.182973,-4.3284 -1.111028,-1.13232 -2.334753,-2.1665 -3.86782,-2.71384 -1.186968,-0.33788 -2.309604,-0.41192 -3.54199,-0.33334 -1.0306062,0.0418 -2.0558222,0.1365 -3.0687608,0.33419 -0.4360488,0.074 -0.8764967,0.1683 -1.318596,0.2032 -0.033456,0.003 -0.3864775,0.0106 -0.39194,0.0181 -0.019404,0.0259 0.056404,0.031 0.08462,0.0465 0.4109184,0.32825 0.092335,0.0233 0.3983824,0.4892 0.031872,0.0484 -0.049149,-0.10469 -0.068914,-0.15873 -0.2753453,-0.75305 0.048871,0.0628 -0.2342764,-0.65959 -0.026715,-0.0683 -0.056057,-0.13547 -0.084064,-0.2032 -0.1872348,-0.61349 -0.3802964,-1.2168 -0.4168479,-1.86181 -0.0725,-1.0014 -0.18556,-1.9988 -0.3164476,-2.99453 -0.1000349,-0.98571 -0.2678854,-1.96356 -0.3054711,-2.95501 -0.085663,-1.04119 -0.06947,-2.08305 -0.066523,-3.12716 -0.00139,-1.19207 -0.005,-2.38415 0.00431,-3.57616 0.012788,-1.11477 0.018876,-2.23351 0.1610301,-3.34142 0.1473169,-1.05104 0.3586257,-2.09125 0.4942905,-3.14343 0.079074,-0.38413 0.06384,-0.1838 0.056905,-0.41911 -7.047e-4,-0.0258 -0.023393,-0.19337 0.028272,-0.19958 0.159914,-0.0181 0.3223048,6.2e-4 0.48346,7e-4 1.0514778,0.002 2.1029695,0.008 3.1544556,0.003 0.9530172,-0.008 1.9138762,-0.0104 2.8500682,-0.20811 1.11745,-0.27243 2.178502,-0.67901 3.056729,-1.42995 1.016517,-0.92323 1.993372,-1.92541 2.517075,-3.201592 0.06152,-0.232667 0.142559,-0.461017 0.184632,-0.697641 0.128904,-0.724631 -0.02259,-1.48481 -0.03432,-2.210708 C 17.823015,94.895458 17.537689,93.691298 16.80092,92.643594 16.023297,91.540567 15.160765,90.519 13.976981,89.80277 12.957864,89.214793 11.945217,88.617172 10.819783,88.232908 9.6045548,87.740712 8.3513603,87.309371 7.0574304,87.061088 6.8938748,87.025935 6.730112,86.991287 6.5667705,86.955097 c -0.8473592,-0.187944 0.1035931,0.105221 -0.2454656,0.84792 0.2356316,-0.728251 0.6308617,-1.403841 0.9055454,-2.118986 0.4593416,-0.982504 0.8985858,-1.971292 1.4510403,-2.909874 0.546518,-1.096099 1.1350097,-2.172136 1.5993674,-3.305411 0.535735,-1.211372 0.975189,-2.460101 1.519357,-3.668268 0.505994,-1.234691 1.115283,-2.427528 1.669386,-3.642133 0.57014,-1.053313 1.126106,-2.126043 1.875736,-3.072199 0.63354,-0.683889 1.314899,-1.318193 2.064775,-1.87833 -0.103857,-0.0548 -0.214636,-0.09875 -0.311616,-0.164418 -0.01362,-0.01036 0.03298,-0.02326 0.04691,-0.0155 0.07967,0.0486 0.148273,0.113232 0.216842,0.175793 0.190478,0.173984 0.371823,0.357326 0.560345,0.533378 0.07256,0.06773 0.14309,0.137533 0.214635,0.2063 0.492851,0.515255 0.8534,1.14925 1.293824,1.706206 0.367219,0.465567 0.712561,0.947268 1.096506,1.400144 0.117715,0.124086 0.224337,0.25914 0.353131,0.372397 0.505948,0.444913 1.172463,0.712146 1.795659,0.954715 0.185189,0.04835 0.366724,0.112714 0.555586,0.144772 0.796473,0.135464 1.607858,-0.04291 2.399784,-0.1184 1.006152,-0.15046 2.016465,-0.317463 2.991143,-0.608014 0.72575,-0.233443 1.51861,-0.276098 2.207091,-0.631098 1.045017,-0.534413 2.020277,-1.198499 2.647307,-2.198945 0.648102,-1.08214 1.087227,-2.164434 0.985098,-3.445063 -0.0597,-1.096383 -0.193455,-2.188372 -0.58076,-3.227622 -0.470143,-1.238129 -1.045067,-2.459999 -1.863157,-3.519672 -0.155342,-0.170105 -0.300972,-0.348976 -0.466028,-0.510111 -0.52815,-0.515618 -1.185956,-0.856141 -1.794378,-1.267291 -0.538725,-0.400809 -0.05626,0.002 -0.117548,0.657028 -0.03995,0.427179 -0.866252,0.821008 -0.266246,0.474359 0.85915,-0.451531 1.69982,-0.934886 2.553436,-1.395905 1.209865,-0.625024 2.361145,-1.351025 3.53386,-2.038584 1.31091,-0.830936 2.623989,-1.661017 4.036651,-2.323164 1.453869,-0.644826 2.895424,-1.324761 4.23063,-2.184649 0.995837,-0.583196 2.082409,-0.986591 3.092526,-1.543933 1.130322,-0.596277 2.194366,-1.306353 3.348923,-1.857543 0.06105,-0.02069 0.352226,-0.159507 0.455544,-0.162351 0.03683,-0.0013 0.08159,0.03567 0.109876,0.01289 0.02259,-0.01809 -0.0467,-0.100557 -0.02339,-0.08298 0.08302,0.06231 0.141868,0.150201 0.212803,0.225171 0.621677,0.665042 1.328891,1.225513 2.088472,1.736013 0.942525,0.657468 1.83204,1.395698 2.872625,1.911575 1.10118,0.497857 2.140206,1.127404 3.293623,1.516245 1.334997,0.558299 2.72848,1.000421 4.188652,1.09465 1.108528,0.0013 2.220017,0.01289 3.324987,-0.08713 1.31142,-0.160282 2.553328,-0.467688 3.515495,-1.413096 0.158718,-0.250247 0.351018,-0.483148 0.476141,-0.750846 0.452611,-0.968441 0.17355,-2.239325 -0.124539,-3.208206 C 70.181487,46.700487 69.735632,45.845432 69.185781,45.062246 68.549406,44.2856 68.02727,43.428478 67.421585,42.629651 67.186057,42.319892 66.969572,42.04824 66.75905,41.723073 66.624781,41.51574 66.532446,41.265338 66.467466,41.317377 c -0.268038,0.21483 0.384197,1.142788 -0.712531,0.739238 -0.05907,-0.0021 -0.233262,0.01289 -0.177052,-0.0052 0.127737,-0.04007 0.758052,-0.05248 0.803865,-0.0548 0.608479,-0.02818 1.216569,-0.06669 1.822852,-0.12487 1.12828,-0.1184 2.252584,-0.331499 3.390635,-0.310429 1.094003,0.0052 2.188729,0.01289 3.280787,0.08376 1.178151,0.08867 2.338511,0.292542 3.512686,0.413787 1.210885,0.02326 2.421241,0.0636 3.630694,0.126677 1.114811,0.03982 2.221351,-0.0077 3.323778,-0.186909 0.234777,-0.03154 0.480993,-0.01289 0.705053,-0.08919 0.102161,-0.03438 -0.143596,-0.158731 -0.199166,-0.248954 -0.05838,-0.09487 -0.08089,-0.206558 -0.119814,-0.310275 -0.02474,-0.06618 0.05171,0.131592 0.07756,0.19725 0.190424,1.04791 0.344208,2.111099 0.752868,3.105781 0.467524,1.0635 1.040921,2.099829 1.871236,2.93994 1.044285,0.991942 2.153939,1.945907 3.366603,2.736461 1.576873,0.84523 2.980529,1.26044 4.771538,0.726389 0.226937,-0.120472 0.463938,-0.224654 0.680798,-0.361463 0.547864,-0.3459 0.998445,-0.843964 1.468526,-1.277735 0.215248,-0.198543 0.440907,-0.386643 0.650915,-0.590511 0.227702,-0.221035 0.441059,-0.455744 0.661583,-0.683605 0.94952,-1.131697 1.85798,-2.295268 2.73757,-3.479213 0.035,-0.03774 0.52774,-0.536869 0.5156,-0.614088 -0.01,-0.0592 -0.12857,-0.01809 -0.17554,-0.05713 -0.0181,-0.01552 0.0332,-0.0437 0.0567,-0.04136 0.30606,0.03129 0.59329,0.173985 0.90325,0.185877 0.96067,0.138309 1.92625,0.243266 2.87963,0.426816 1.29844,0.237839 2.60534,0.427464 3.916,0.586504 1.20111,0.248179 2.35255,0.656564 3.45122,1.19139 1.01596,0.510086 2.00624,1.070996 2.9863,1.64186 0.55291,0.393441 0.55579,0.457502 0.68333,1.174585 0.18072,0.610263 0.39469,1.211192 0.54257,1.830425 0.0641,0.214571 0.18098,0.466577 0.22192,0.689086 0.0723,0.392665 0.0839,0.798412 0.22483,1.178565 0.29984,0.9262 0.69619,1.820575 1.22844,2.644893 0.60524,0.94776 1.25623,1.870211 2.00708,2.715571 0.64951,0.824988 1.27115,1.690255 1.74262,2.624185 0.0685,0.16416 0.26233,0.602402 0.22751,0.786805 -0.113,0.601989 -0.50083,1.147104 -0.60553,1.753592 -0.38128,1.199844 -0.68768,2.420496 -1.06885,3.620728 -0.31489,1.076554 -0.47813,2.183899 -0.76083,3.268339 -0.48039,1.769181 2.09175,2.430035 2.57216,0.660853 z" />
    <path
       style="fill:#ffffff;stroke-width:0.693525"
       id="path2957"
       d="m 143.68809,81.86474 c 0.6295,1.52563 0.91576,3.129746 1.07884,4.75625 0.17754,2.885988 0.26497,5.785832 0.73642,8.645786 0.10661,0.647127 0.24771,1.288465 0.3715,1.932695 0.60303,2.47626 1.28412,4.947299 2.23733,7.321109 0.51159,1.27393 0.66874,1.52216 1.27716,2.7242 1.22749,2.37102 2.74403,4.58235 4.12789,6.86694 1.53768,2.554 3.16145,5.05363 4.83737,7.52353 1.13224,1.6614 2.1662,3.40741 2.88725,5.27954 0.42412,1.10111 0.56139,1.709 0.87067,2.83589 0.69084,2.64435 0.63149,5.03893 0.0402,7.69665 -0.14484,0.65064 -0.33651,1.29056 -0.50475,1.93583 -1.16987,3.99431 -2.27741,8.00461 -3.65722,11.93623 -0.89761,2.72816 -2.38775,5.20204 -3.9533,7.6089 -1.20424,1.98925 -2.81526,3.66306 -4.46619,5.29948 -0.96454,1.01879 -2.09822,1.8629 -3.34616,2.52918 -0.74081,0.39551 -1.97642,0.9254 -2.72322,1.25677 -2.63007,1.12444 -5.34618,2.0456 -8.07221,2.92211 -1.70707,0.60341 -3.39581,1.24982 -5.04739,1.98407 -1.23642,0.51111 -2.2957,1.32271 -3.44648,1.98029 -1.09705,0.52334 -1.96609,1.40096 -2.85132,2.20178 -1.09256,0.92587 -2.06663,1.96876 -3.13715,2.91776 -1.15818,0.81227 -2.30521,1.62996 -3.40805,2.51349 -1.3667,1.16297 -2.79716,2.25204 -4.13835,3.44281 -1.08686,0.91746 -1.92329,2.04479 -2.67892,3.2247 -0.84789,1.45242 -1.66928,2.91952 -2.56398,4.3453 -0.86194,1.60257 -2.07377,2.94835 -3.358,4.23658 -1.34415,1.32558 -2.59185,2.73777 -3.69732,4.25731 -0.62422,0.85391 -1.165382,1.76618 -1.836479,2.58784 -0.429439,0.52574 -0.59957,0.67196 -1.088277,1.16382 -1.233471,1.16675 -2.30486,2.47872 -3.483164,3.69519 -0.984099,1.04147 -2.177915,1.80896 -3.438838,2.48983 -1.428203,0.74636 -2.980474,1.24084 -4.517594,1.72773 -1.622616,0.51237 -3.309253,0.73581 -4.993055,0.95046 -1.115797,0.16726 -2.251054,0.26787 -3.347449,0.53366 -0.3234,0.10111 -0.64181,0.21508 -0.965168,0.31598 -1.792163,0.55619 -0.983516,3.02153 0.808632,2.46534 v 0 c 0.283495,-0.0892 0.565377,-0.18227 0.845327,-0.28178 0.391869,-0.12435 0.107026,-0.0481 0.708181,-0.13365 0.76464,-0.10854 1.523651,-0.25516 2.292795,-0.33338 1.844911,-0.23525 3.69092,-0.49125 5.467834,-1.05402 1.697702,-0.5396 3.408996,-1.09136 4.983242,-1.92336 1.494254,-0.81201 2.908891,-1.73558 4.078439,-2.96804 1.170534,-1.21096 2.239796,-2.51178 3.463144,-3.67507 0.61271,-0.62192 0.76933,-0.75056 1.31027,-1.41503 0.68238,-0.83822 1.24212,-1.76159 1.87253,-2.63545 1.01903,-1.41556 2.18795,-2.71863 3.43231,-3.95157 1.41851,-1.42405 2.75694,-2.91801 3.71926,-4.68191 0.89101,-1.42052 1.71639,-2.87809 2.55345,-4.32911 0.62442,-0.98305 1.30493,-1.92925 2.21347,-2.68883 1.30592,-1.16386 2.7061,-2.22059 4.03646,-3.35794 1.13504,-0.91242 2.3311,-1.73538 3.50679,-2.59563 1.07736,-0.95527 2.06105,-2.00071 3.15746,-2.93565 0.74613,-0.67592 1.4627,-1.43971 2.39253,-1.87318 1.07065,-0.61593 2.06049,-1.36563 3.20306,-1.85821 1.56416,-0.69552 3.16296,-1.30796 4.77873,-1.88264 2.81694,-0.90589 5.62307,-1.85919 8.33997,-3.02314 0.96405,-0.4286 2.08267,-0.9032 3.01249,-1.40527 1.42928,-0.77175 2.73115,-1.74987 3.84614,-2.91209 1.78114,-1.76548 3.51138,-3.58006 4.81621,-5.72139 1.67502,-2.57682 3.26151,-5.22937 4.22619,-8.14778 1.40298,-3.99769 2.53373,-8.0739 3.72096,-12.13603 0.44009,-1.70294 0.69065,-2.44956 0.91537,-4.18252 0.29728,-2.29279 0.11939,-4.58444 -0.46168,-6.82214 -0.36236,-1.29836 -0.49474,-1.89489 -0.99416,-3.17027 -0.78828,-2.013 -1.89755,-3.89528 -3.1175,-5.6862 -1.65123,-2.43394 -3.25081,-4.8972 -4.76557,-7.41415 -1.35188,-2.22934 -2.83036,-4.38879 -4.03304,-6.70055 -0.54874,-1.07901 -0.69726,-1.31488 -1.15917,-2.46328 -0.90281,-2.2446 -1.54523,-4.582112 -2.11999,-6.922959 -0.32021,-1.658121 -0.40889,-1.944846 -0.59966,-3.624993 -0.25434,-2.239042 -0.32262,-4.492043 -0.47326,-6.738349 -0.1948,-1.836448 -0.52582,-3.649293 -1.23275,-5.37357 -0.66442,-1.711918 -3.15334,-0.797896 -2.48892,0.913998 z" />
    <path
       style="fill:#ffffff;stroke-width:0.693525"
       id="path2959"
       d="m 78.348745,219.42719 c 3.052015,-0.005 6.103321,0.0866 9.154641,0.14349 2.140887,0.062 4.273601,-0.0435 6.37115,-0.48288 1.175343,-0.24636 1.747211,-0.43676 2.87759,-0.76836 1.587728,-0.54548 3.182892,-1.0858 4.707874,-1.78493 0.36667,-0.16803 0.72577,-0.3514 1.08866,-0.52713 0.43235,-0.19544 0.86473,-0.39095 1.2971,-0.58644 2.7101,-1.17206 5.58798,-1.96688 8.24133,-3.26661 0.42099,-0.20629 0.82435,-0.44486 1.23654,-0.66729 1.82441,-1.02659 3.20461,-2.54841 4.6084,-4.03971 1.33648,-1.34886 2.66967,-2.70123 4.03057,-4.02692 1.39001,-1.35428 2.79843,-2.6906 4.16303,-4.06936 1.29633,-1.24219 2.48537,-2.58494 3.79135,-3.81726 1.23119,-1.24355 2.43737,-2.51 3.66898,-3.75324 1.2196,-1.37843 2.61958,-2.56938 4.04831,-3.73382 1.58294,-1.28098 3.12587,-2.60625 4.61722,-3.98721 1.08956,-0.86207 2.01743,-1.91713 3.13213,-2.74955 0.56075,-0.41872 1.55159,-1.00628 2.13323,-1.36314 0.45275,-0.24896 0.90135,-0.50523 1.35822,-0.74692 0.48414,-0.2562 0.98195,-0.48731 1.46448,-0.74627 2.27,-1.21812 4.44187,-2.6012 6.58282,-4.01968 3.02242,-2.02537 5.79584,-4.35171 8.38043,-6.87968 2.34317,-2.23756 4.13906,-4.89957 5.84389,-7.60712 1.96203,-2.98288 3.26247,-6.30355 4.53347,-9.60397 0.95115,-2.67633 1.86427,-5.38019 2.58482,-8.12622 0.4272,-1.62816 0.49979,-2.1642 0.80895,-3.79868 0.48434,-3.19169 0.73879,-6.43255 0.55621,-9.65911 -0.0417,-0.73596 -0.12858,-1.46881 -0.19296,-2.20322 -0.48313,-3.61535 -1.32722,-7.20898 -2.76009,-10.58729 -0.24106,-0.56826 -0.52124,-1.11999 -0.78188,-1.67999 -0.93189,-1.83671 -1.99883,-3.60866 -3.29453,-5.22632 -0.69394,-0.86633 -1.10814,-1.29449 -1.85597,-2.11477 -1.60533,-1.70642 -3.29985,-3.33013 -4.98845,-4.95777 -1.42325,-1.38135 -2.8711,-2.739174 -4.26484,-4.148857 -1.62081,-1.866721 -3.24102,-3.734087 -4.8501,-5.610477 -1.33229,-1.461337 -2.61692,-2.962432 -3.90684,-4.45903 -1.05556,-1.186452 -1.9445,-2.496761 -2.9114,-3.749185 -0.8613,-1.101064 -1.66463,-2.252511 -2.36908,-3.455069 -0.95477,-1.576635 -3.24703,-0.263198 -2.29224,1.313437 v 0 c 0.76728,1.288334 1.61779,2.533289 2.54919,3.715035 0.99547,1.288464 1.91057,2.636929 2.99983,3.855567 1.28856,1.495098 2.57221,2.994385 3.90283,4.454479 1.64954,1.922484 3.30507,3.840341 4.97618,5.744961 1.40957,1.422739 2.86974,2.796879 4.30865,4.191409 1.64858,1.58917 3.30318,3.17421 4.87142,4.83942 0.68106,0.74598 1.07626,1.15512 1.70661,1.93882 1.1851,1.47338 2.15562,3.09104 3.00898,4.76478 0.23786,0.50833 0.49388,1.00895 0.71356,1.52496 1.34507,3.15953 2.13273,6.52334 2.59122,9.90506 0.0606,0.68371 0.14165,1.36603 0.18178,2.05112 0.1778,3.02288 -0.0651,6.05953 -0.50816,9.05104 -0.27828,1.48908 -0.36293,2.08554 -0.74981,3.56494 -0.70028,2.67775 -1.5903,5.31435 -2.51409,7.92476 -1.2097,3.14825 -2.43772,6.32171 -4.30829,9.16706 -1.59576,2.53941 -3.265,5.0444 -5.46204,7.1426 -2.4622,2.417 -5.11071,4.63451 -7.99281,6.57054 -2.0549,1.36426 -4.14069,2.69887 -6.32114,3.86875 -0.50748,0.27227 -1.03091,0.51574 -1.53973,0.78569 -0.49364,0.26188 -0.97814,0.53974 -1.46722,0.80962 -0.85407,0.52553 -1.65258,0.98994 -2.45449,1.59229 -1.14478,0.85987 -2.104,1.93973 -3.2235,2.82914 -1.44906,1.345 -2.95165,2.63218 -4.49079,3.87889 -1.50024,1.22257 -2.97135,2.47391 -4.25474,3.91836 -1.21159,1.22287 -2.40036,2.46649 -3.60709,3.69376 -1.32582,1.25413 -2.53969,2.61289 -3.85452,3.878 -1.35282,1.36791 -2.75021,2.69267 -4.12871,4.03588 -1.38788,1.35201 -2.74802,2.73072 -4.11046,4.10689 -1.21332,1.29019 -2.38231,2.62927 -3.94705,3.53732 -0.35067,0.19235 -0.6929,0.40006 -1.05201,0.57707 -2.65295,1.30767 -5.54519,2.08127 -8.25108,3.27094 -0.45427,0.20553 -0.90855,0.4113 -1.36283,0.61694 -0.32985,0.16054 -0.65635,0.32798 -0.98953,0.48196 -1.421786,0.65714 -2.913608,1.15561 -4.393351,1.67183 -1.013455,0.29985 -1.543194,0.47671 -2.591885,0.70156 -1.923026,0.4124 -3.878424,0.49926 -5.842802,0.44124 -3.068165,-0.0574 -6.136331,-0.1489 -9.205192,-0.14399 -1.881161,0 -1.881161,2.58778 0,2.58778 z" />
    <path
       style="fill:#ffffff;stroke-width:0.693525"
       id="path2961"
       d="m 137.21062,58.926549 c 1.43392,3.49188 2.70881,7.042342 4.2235,10.503665 1.15293,2.458861 2.19821,4.976535 3.67677,7.271857 1.12565,1.623557 2.54443,3.020496 3.95034,4.411461 1.31006,1.179395 2.53438,2.440403 3.7481,3.711882 1.24123,1.167657 2.2936,2.487635 3.33098,3.823665 1.02024,1.395285 2.12943,2.72206 3.35338,3.952151 1.21894,1.189191 2.50659,2.307341 3.785,3.434799 1.64549,1.295443 3.28176,2.601926 4.91516,3.912027 1.73684,1.454794 3.3708,3.020784 5.02952,4.558144 1.38886,1.30421 2.76433,2.62703 4.08714,3.99496 0.70385,0.83171 1.43767,1.64171 2.04665,2.54451 0.34442,0.51058 0.58755,0.96009 0.89366,1.49544 0.92419,1.71528 1.07204,3.64526 1.20663,5.54132 0.14378,1.84968 0.0239,3.70095 -0.0568,5.54996 -0.0699,1.54864 -0.0978,3.09854 -0.11189,4.64847 -0.008,1.37987 -0.008,2.75981 -0.008,4.1397 0.0111,1.31478 -0.0266,2.63014 0.0327,3.94394 0.0822,1.20123 0.1483,2.4031 0.1879,3.60638 0.0279,1.0535 0.0268,2.10742 0.0279,3.16118 0.008,1.47628 0.12203,2.95003 0.17833,4.42534 0.0624,1.88304 0.0739,3.76726 0.0361,5.65076 -0.0984,1.6923 -0.13023,3.41621 -0.51292,5.07872 -0.14456,0.62854 -0.42123,1.38782 -0.63039,1.9996 -0.61203,1.68238 -1.56768,3.22036 -2.69511,4.62009 -1.63233,1.80499 -3.82392,3.01014 -5.96218,4.15827 -0.53729,0.26718 -1.07324,0.53692 -1.61187,0.80156 -1.39561,0.68568 -1.95004,0.91802 -3.30712,1.66782 -1.42668,0.78823 -2.79242,1.68328 -4.17948,2.53451 -2.0299,1.21861 -4.20911,2.17246 -6.2763,3.3273 -1.106,0.6179 -1.73009,1.01945 -2.79215,1.67656 -2.0491,1.22903 -3.85381,2.77619 -5.57021,4.40606 -1.43115,1.38161 -2.81728,2.80812 -4.27784,4.16041 -1.05168,0.88569 -2.00553,1.87546 -3.03704,2.78165 -0.57681,0.50673 -1.11844,0.91679 -1.72509,1.39231 -1.82959,1.33714 -3.56367,2.78788 -5.30297,4.23226 -1.07578,0.90991 -2.07089,1.89989 -3.15905,2.79553 -1.10452,0.9597 -2.30375,1.79925 -3.51529,2.6238 -0.57059,0.47075 -1.22948,0.81565 -1.84442,1.22233 -0.1005,0.0664 -0.28422,0.0965 -0.29014,0.21457 -0.0359,0.71383 0.11425,1.42501 0.17142,2.1375 0.54811,0.0155 1.09744,0.0848 1.64434,0.0462 0.37684,-0.0266 0.73722,-0.16131 1.10619,-0.24042 0.50347,-0.10775 1.00894,-0.20707 1.51109,-0.32062 1.78377,-0.40352 3.51743,-0.90756 5.25664,-1.46208 2.48388,-0.8292 4.80141,-2.03826 7.11998,-3.22077 1.70818,-0.91364 3.54279,-1.56035 5.34272,-2.27437 0.80476,-0.31921 2.47838,-1.00889 3.25688,-1.32834 3.58972,-1.34933 7.1458,-2.77462 10.69899,-4.21187 3.69392,-1.525 7.40263,-3.01292 11.05885,-4.62266 2.42284,-1.11862 4.91922,-2.07729 7.3632,-3.14924 1.5038,-0.65961 1.96268,-0.9019 3.40053,-1.60578 2.52428,-1.33887 4.88396,-3.05498 6.71001,-5.2343 0.40033,-0.47777 0.75455,-0.99042 1.13181,-1.48563 1.84521,-2.59687 3.36813,-5.41601 4.40278,-8.41382 0.22192,-0.6431 0.39487,-1.30119 0.59234,-1.95175 1.17835,-4.53121 2.1465,-9.11456 3.10477,-13.69437 0.77947,-4.06559 1.67172,-8.10861 2.41269,-12.18112 0.84637,-4.75166 1.04811,-9.57112 1.18613,-14.38135 0.016,-4.12626 -0.3194,-8.25048 -1.10635,-12.30725 -0.15149,-0.78112 -0.33908,-1.5552 -0.50861,-2.33281 -0.74248,-2.99472 -1.76937,-5.94438 -3.39094,-8.6053 -0.26727,-0.43863 -0.56882,-0.85663 -0.85322,-1.28492 -1.65289,-2.126457 -3.70069,-3.911175 -5.86331,-5.53088 -2.02391,-1.407745 -4.0297,-2.847261 -6.13416,-4.139758 -2.45903,-1.48817 -4.8325,-3.103221 -7.28314,-4.604731 -2.92133,-1.653649 -5.81164,-3.34905 -8.6153,-5.185988 -2.41373,-1.643076 -4.38306,-3.778295 -6.39215,-5.849402 -1.82077,-1.805374 -3.20075,-3.947471 -4.6111,-6.05534 -1.31011,-2.156184 -2.89588,-4.121195 -4.51766,-6.057949 -1.33555,-1.560323 -2.68673,-3.116045 -3.84905,-4.804671 -0.88337,-1.200076 -1.72952,-2.422384 -2.49796,-3.695362 -0.7521,-1.138316 -1.45837,-2.304163 -2.18964,-3.455145 -0.68657,-1.038165 -1.14591,-2.18346 -1.6388,-3.313761 -0.58627,-1.218921 -0.96793,-2.511729 -1.41708,-3.780002 -0.64825,-1.622005 -1.46554,-1.736322 -3.0262,-0.33941 -0.28703,0.256969 -0.26045,0.716281 -0.35978,1.083224 -0.20278,0.748442 -0.32957,1.641679 -0.45489,2.402995 -0.15706,1.385744 -0.38547,2.776349 -0.37795,4.174659 0.003,0.64891 0.0502,1.06929 0.10341,1.703284 0.11773,1.472969 0.51137,2.908117 0.83867,4.346341 0.22457,1.433855 0.54174,2.848605 0.89671,4.257022 0.23521,0.80361 0.34627,1.632347 0.51477,2.449347 0.39676,1.788674 2.99728,1.242861 2.6005,-0.545813 v 0 c -0.17726,-0.851255 -0.29314,-1.715434 -0.53998,-2.552703 -0.34998,-1.390502 -0.65472,-2.787725 -0.88273,-4.20214 -0.30232,-1.32437 -0.66897,-2.646132 -0.78001,-4.002095 -0.0314,-0.37095 -0.0888,-0.966762 -0.0935,-1.343115 -0.016,-1.287299 0.20491,-2.56749 0.3414,-3.8437 0.18019,-1.120219 0.14937,-1.026118 0.37843,-2.090212 0.0409,-0.19027 0.32355,-0.508457 0.13344,-0.568356 -0.46643,-0.147098 -0.97528,0.09953 -1.46292,0.149167 -0.16716,-0.199579 -0.27746,-0.461381 -0.50121,-0.598811 -0.12357,-0.07574 0.11161,0.262553 0.16743,0.393804 0.46944,1.323855 0.87296,2.671829 1.48436,3.944497 0.54486,1.250332 1.06877,2.510436 1.82704,3.658524 0.72138,1.135316 1.41773,2.285549 2.15988,3.408249 0.79799,1.315479 1.66904,2.583441 2.5837,3.82488 1.21446,1.748629 2.60199,3.374591 3.9941,4.991375 1.56297,1.866177 3.09054,3.759422 4.35027,5.83906 1.49666,2.235992 2.97455,4.498635 4.90608,6.413313 2.14275,2.209129 4.25604,4.47286 6.83951,6.213294 2.82654,1.85046 5.7375,3.563154 8.68294,5.228308 2.45061,1.50107 4.82256,3.118112 7.28258,4.604395 2.03779,1.246351 3.97159,2.648382 5.93263,4.004863 1.92891,1.438688 3.75446,3.026493 5.25298,4.898353 0.24876,0.37147 0.51342,0.7334 0.74653,1.11438 1.49692,2.44656 2.43624,5.16236 3.12051,7.918 0.1616,0.73963 0.34064,1.47582 0.48482,2.21883 0.75081,3.86942 1.07276,7.8019 1.06685,11.73771 -0.13288,4.68458 -0.32142,9.37868 -1.14127,14.00702 -0.73551,4.05114 -1.62513,8.07229 -2.3991,12.11652 -0.9429,4.50994 -1.89833,9.02248 -3.0489,13.48666 -0.17487,0.58789 -0.32647,1.18291 -0.52483,1.76372 -0.94977,2.7808 -2.35109,5.39738 -4.05511,7.80766 -0.79617,1.06252 -1.04392,1.47827 -1.97651,2.40367 -1.43566,1.42455 -3.12327,2.60565 -4.92262,3.55224 -1.35772,0.66587 -1.84426,0.9214 -3.26262,1.54368 -2.45687,1.0779 -4.96668,2.04138 -7.4024,3.16597 -3.63093,1.59969 -7.31512,3.07589 -10.98364,4.59126 -3.55738,1.43886 -7.11768,2.8657 -10.71147,4.2169 -0.70794,0.29052 -2.46449,1.01413 -3.20826,1.30917 -1.88417,0.74743 -3.80258,1.42868 -5.59104,2.38417 -2.18987,1.11683 -4.37513,2.26632 -6.71813,3.05732 -1.65278,0.52921 -3.3,1.01003 -4.99591,1.39367 -0.50647,0.11452 -1.01633,0.21457 -1.52414,0.32341 -0.37207,0.0798 -0.82025,0.008 -1.11554,0.2425 -0.13497,0.10708 0.27113,0.21327 0.40671,0.31983 0.008,0.68043 0.0111,1.36093 0.0239,2.04128 1.8e-4,0.0106 0.008,-0.0207 0.016,-0.0271 0.13177,-0.0848 0.26928,-0.16106 0.4031,-0.243 0.53884,-0.32948 1.05927,-0.6809 1.56471,-1.05755 1.27756,-0.86944 2.54133,-1.7565 3.70785,-2.76611 1.09113,-0.89834 2.09569,-1.88307 3.16772,-2.8026 1.72065,-1.42873 3.4349,-2.86514 5.2458,-4.18676 0.7241,-0.56824 1.20218,-0.92702 1.8911,-1.53198 1.0312,-0.90555 1.98336,-1.8962 3.0356,-2.78033 1.46776,-1.36144 2.86641,-2.7915 4.30311,-4.18379 1.58253,-1.50952 3.24679,-2.94337 5.14046,-4.07897 0.97651,-0.60522 1.63405,-1.02718 2.64645,-1.59362 2.11201,-1.18168 4.34221,-2.15221 6.41293,-3.40475 1.33572,-0.81966 2.6502,-1.68611 4.02308,-2.44673 1.32636,-0.73482 1.87589,-0.96337 3.2571,-1.64256 0.56407,-0.27736 1.12523,-0.56026 1.68782,-0.8404 2.44804,-1.32072 4.93168,-2.72115 6.76993,-4.82038 1.30359,-1.63662 2.42132,-3.41916 3.12538,-5.38308 0.2853,-0.83851 0.53353,-1.50356 0.73246,-2.37665 0.4073,-1.78775 0.45285,-3.63857 0.55527,-5.45824 0.0367,-1.95868 0.03,-3.91806 -0.0382,-5.87619 -0.056,-1.44414 -0.16717,-2.88681 -0.17515,-4.33189 -0.001,-1.08058 -3.8e-4,-2.16138 -0.0306,-3.24166 -0.0409,-1.21299 -0.1073,-2.42463 -0.18949,-3.63564 -0.0585,-1.27649 -0.0139,-2.55511 -0.0285,-3.83254 -4.1e-4,-1.34515 -0.001,-2.69033 0.008,-4.03547 0.0139,-1.52067 0.0399,-3.04129 0.10814,-4.56073 0.0872,-1.97266 0.20837,-3.94793 0.0519,-5.92111 -0.16771,-2.27332 -0.41164,-4.56595 -1.54867,-6.60666 -0.39497,-0.68503 -0.60014,-1.07079 -1.04626,-1.72549 -0.68094,-0.99928 -1.49275,-1.90237 -2.28241,-2.81947 -1.35881,-1.39761 -2.76137,-2.75784 -4.1869,-4.09092 -1.70415,-1.57972 -3.38334,-3.188486 -5.17171,-4.679036 -1.60158,-1.284713 -3.20433,-2.567826 -4.82121,-3.834134 -1.23677,-1.090567 -2.48261,-2.17193 -3.66261,-3.321438 -1.1516,-1.151785 -2.17964,-2.407416 -3.14002,-3.714157 -1.09094,-1.405133 -2.20477,-2.788914 -3.50445,-4.021433 -1.23076,-1.289266 -2.47301,-2.567414 -3.8004,-3.764284 -1.27324,-1.259897 -2.56435,-2.520104 -3.59509,-3.982577 -1.41249,-2.174309 -2.36653,-4.588238 -3.47891,-6.913496 -0.27228,-0.621792 -0.55583,-1.239035 -0.81679,-1.865428 -1.06392,-2.554022 -1.96593,-5.169392 -3.01144,-7.730006 -0.14458,-0.353991 -0.30965,-0.69971 -0.46447,-1.049565 -0.85984,-1.627487 -3.22602,-0.444629 -2.36617,1.182858 z" />
  </g>
</svg>
